<svg id="Uncharted" xmlns="http://www.w3.org/2000/svg" viewBox="0 0 829.4 288"><defs><style>.cls-1{fill:#1f1b1f;}.cls-2{fill:#8767c8;}</style></defs><path class="cls-1" d="M343.44,177.6c-1-.16-2-.3-3.16-.43s-2.15-.18-3-.18q-6,0-9.43,2.12c-2.31,1.42-3.48,3.72-3.48,6.88a7.74,7.74,0,0,0,1.34,4.87,7.91,7.91,0,0,0,3.23,2.5,13.15,13.15,0,0,0,4,1c1.42.13,2.65.19,3.72.19a22.38,22.38,0,0,0,3.65-.3c1.21-.21,2.27-.38,3.16-.55Zm0-12.53a10.08,10.08,0,0,0-1-4.76,7.22,7.22,0,0,0-2.68-2.85,11.12,11.12,0,0,0-4.2-1.4,39.05,39.05,0,0,0-5.54-.36,43,43,0,0,0-14,2.56l-3.4-12.68a64.5,64.5,0,0,1,10.71-2.67,63.53,63.53,0,0,1,10-.85q12.66,0,19.78,6.09t7.13,19.48v36.52a97.41,97.41,0,0,1-10.35,2.55,70.68,70.68,0,0,1-13.76,1.22,55.2,55.2,0,0,1-11.39-1.09,24.39,24.39,0,0,1-8.88-3.65,17.11,17.11,0,0,1-5.72-6.57,21.89,21.89,0,0,1-2-9.87,18,18,0,0,1,2.5-9.8,19.14,19.14,0,0,1,6.45-6.33,28.84,28.84,0,0,1,8.82-3.42,46.73,46.73,0,0,1,9.74-1q3.53,0,7.8.36Z"/><path class="cls-1" d="M370,143.51h17.29v33.36a35.24,35.24,0,0,0,.79,8.22,12.07,12.07,0,0,0,2.44,5.11,8.91,8.91,0,0,0,4.08,2.67,18.47,18.47,0,0,0,5.72.79,28.44,28.44,0,0,0,7.56-.85v-49.3H425V204a81.09,81.09,0,0,1-10.29,2.62,67.94,67.94,0,0,1-13.32,1.27,70.9,70.9,0,0,1-11.93-1,23.27,23.27,0,0,1-10-4.14,21.4,21.4,0,0,1-6.88-9.25Q370,187.46,370,177.36V143.51Z"/><path class="cls-1" d="M448.12,179.07a24,24,0,0,1-10.65-5.79q-3.84-3.84-3.84-11.5,0-9.25,6.64-14.49t18.07-5.24a51.38,51.38,0,0,1,9.38.85,60,60,0,0,1,9.38,2.56L473.56,158a47.22,47.22,0,0,0-6.44-2.12,29.54,29.54,0,0,0-7.43-.92,13.48,13.48,0,0,0-6.45,1.28,4.32,4.32,0,0,0-2.31,4.07,4.2,4.2,0,0,0,1.65,3.78,19.06,19.06,0,0,0,4.68,2.07l6.94,2.07a34.15,34.15,0,0,1,6.14,2.37,16.88,16.88,0,0,1,4.69,3.47,14.47,14.47,0,0,1,3,5.11,22.11,22.11,0,0,1,1.09,7.43,19.14,19.14,0,0,1-1.88,8.4,19.41,19.41,0,0,1-5.47,6.75,27.52,27.52,0,0,1-8.7,4.51,38,38,0,0,1-11.57,1.64c-2,0-3.73-.06-5.35-.19a40.36,40.36,0,0,1-4.68-.61c-1.51-.28-3-.63-4.45-1s-3.05-.94-4.75-1.58l3.53-13.15a50.88,50.88,0,0,0,7.61,2.37,34.44,34.44,0,0,0,7.48.79,25.43,25.43,0,0,0,3.72-.3,13.9,13.9,0,0,0,3.71-1.1,8.54,8.54,0,0,0,2.86-2.06,5.7,5.7,0,0,0-.61-7.55,17.41,17.41,0,0,0-4.93-2.26Z"/><path class="cls-1" d="M526.49,168.24a15.31,15.31,0,0,0-3.23-9.44,10.26,10.26,0,0,0-8.34-3.59q-6.09,0-9.25,3.41c-2.12,2.27-3.36,5.47-3.77,9.62Zm-24.71,12c.32,4.86,2,8.4,5.11,10.59s7.14,3.29,12.18,3.29a48.53,48.53,0,0,0,16.67-3l3.41,13.15a59.5,59.5,0,0,1-21.43,3.64,41.57,41.57,0,0,1-15-2.43,26.6,26.6,0,0,1-10.23-6.77,27,27,0,0,1-5.84-10.28,42.9,42.9,0,0,1-1.88-13,42.47,42.47,0,0,1,1.95-13,30.36,30.36,0,0,1,5.78-10.59,27.35,27.35,0,0,1,9.49-7.12,31.14,31.14,0,0,1,13.21-2.62,28.1,28.1,0,0,1,11.69,2.31,25.54,25.54,0,0,1,8.7,6.33,26.68,26.68,0,0,1,5.42,9.56,37.55,37.55,0,0,1,1.82,11.87c0,1.54,0,3.06-.18,4.57s-.26,2.7-.43,3.59H501.78Z"/><path class="cls-1" d="M299.36,191.6l3.4,13.27a37.92,37.92,0,0,1-9.13,2.5,70.65,70.65,0,0,1-8.89.54A34.7,34.7,0,0,1,271,205.42a26.39,26.39,0,0,1-9.68-6.88,29.21,29.21,0,0,1-5.79-10.41,45,45,0,0,1-.06-26,29.84,29.84,0,0,1,5.72-10.47,26.66,26.66,0,0,1,9.56-7.06A32.19,32.19,0,0,1,284,142c1.79,0,3.43,0,4.94.13a34.78,34.78,0,0,1,4.32.49,36.44,36.44,0,0,1,4.14,1c1.37.41,2.92.94,4.62,1.58l-3,12.91A35,35,0,0,0,286.32,156q-7.54,0-11.38,4.93T271.1,175q0,9.85,4.14,14.36t11.2,4.5c1.22,0,2.33,0,3.35,0a24.25,24.25,0,0,0,3-.31,21.66,21.66,0,0,0,3-.73c1-.3,2.21-.71,3.6-1.2"/><path class="cls-1" d="M676.33,194.77q6.82,0,9.81-5.05t3-14.55q0-9.49-3-14.54t-9.81-5.06q-6.68,0-9.67,5.06t-3,14.54q0,9.5,3,14.55t9.67,5.05m0,13.14A32.84,32.84,0,0,1,663,205.42a25.29,25.29,0,0,1-9.38-6.94,30.27,30.27,0,0,1-5.6-10.41,42.54,42.54,0,0,1-1.88-12.91,43.7,43.7,0,0,1,1.88-13,30,30,0,0,1,5.6-10.53,26,26,0,0,1,9.38-7,32,32,0,0,1,13.32-2.56,32.49,32.49,0,0,1,13.4,2.56,26.28,26.28,0,0,1,9.49,7,28.87,28.87,0,0,1,5.6,10.53,45,45,0,0,1,1.83,13,43.83,43.83,0,0,1-1.83,12.91,29,29,0,0,1-5.6,10.41,25.58,25.58,0,0,1-9.49,6.94,33.21,33.21,0,0,1-13.4,2.49"/><path class="cls-1" d="M728.32,179.07a24.12,24.12,0,0,1-10.66-5.79q-3.82-3.84-3.83-11.5,0-9.25,6.63-14.49t18.08-5.24a51.7,51.7,0,0,1,9.38.85,59.86,59.86,0,0,1,9.37,2.56L753.76,158a48.77,48.77,0,0,0-6.45-2.13,29.46,29.46,0,0,0-7.42-.92,13.48,13.48,0,0,0-6.45,1.28,4.32,4.32,0,0,0-2.31,4.07,4.19,4.19,0,0,0,1.64,3.78,19.33,19.33,0,0,0,4.69,2.07l6.93,2.07a34,34,0,0,1,6.15,2.37,17,17,0,0,1,4.68,3.46,14.58,14.58,0,0,1,3,5.11,22.11,22.11,0,0,1,1.09,7.43,19,19,0,0,1-1.89,8.4,19.44,19.44,0,0,1-5.48,6.75,27.11,27.11,0,0,1-8.7,4.51,37.88,37.88,0,0,1-11.56,1.64c-1.94,0-3.74-.06-5.36-.19a42.37,42.37,0,0,1-4.68-.6c-1.5-.29-3-.64-4.44-1s-3-.94-4.75-1.58L716,191.32a52,52,0,0,0,7.61,2.37,34.53,34.53,0,0,0,7.49.79,25.19,25.19,0,0,0,3.71-.3,14.11,14.11,0,0,0,3.72-1.09,8.92,8.92,0,0,0,2.86-2.07,5.68,5.68,0,0,0-.62-7.55,17.41,17.41,0,0,0-4.93-2.26Z"/><path class="cls-1" d="M613.72,142c-8.23,0-15.34,3.37-19,7.61a23.28,23.28,0,0,0-17.87-7.73c-14.6,0-25.82,8.11-25.82,22.46l.13,42.42,16.71-.13v-41.8c0-6.23,3.74-9.35,9.12-9.35s9.22,3.62,9.22,9.85l.25,41.43,16.59-.13v-41.3c0-6.11,3.88-10,9.37-10s9.1,4.37,9.1,10.61v40.71l16.6.13.25-41.43C638.56,151.1,628.36,142,613.72,142Z"/><path class="cls-2" d="M198,141.55,171,97.24a43.43,43.43,0,0,0-36.19-21h-.47A42.12,42.12,0,0,0,98.05,96.66L60,159.21A43.1,43.1,0,0,0,59,203a42,42,0,0,0,36.89,21.41h45.65a2.59,2.59,0,0,0,2.4-3.53l-3.37-8.47a2.58,2.58,0,0,0-2.4-1.63H95.88a28.56,28.56,0,0,1-25-14.37,29.36,29.36,0,0,1,.61-30l38.16-62.66a28.87,28.87,0,0,1,49.31,0L183.53,144a2.59,2.59,0,0,0,2.16,1.24l10,.2a2.57,2.57,0,0,0,2.25-3.92Z"/><path class="cls-1" d="M174.87,212a8.56,8.56,0,0,0-3.38-2.93l-.35-.18a8.59,8.59,0,0,0-11.46,3.95,8.55,8.55,0,0,0,3.95,11.45l.35.18A8.57,8.57,0,0,0,174.87,212Z"/><path class="cls-1" d="M210.92,162.68a8.54,8.54,0,0,0-3.37-2.93l-.35-.17a8.57,8.57,0,0,0-11.46,3.95A8.56,8.56,0,0,0,199.69,175l.35.17a8.57,8.57,0,0,0,10.88-12.47Z"/><path class="cls-2" d="M155.46,125.3a24.69,24.69,0,0,0-42.19,0L93.83,157.21a24.71,24.71,0,0,0,21.1,37.56H153.8a24.71,24.71,0,0,0,21.1-37.56Zm8.25,50.33a11.23,11.23,0,0,1-9.91,5.8H114.93a11.37,11.37,0,0,1-9.71-17.28l19.44-31.91a11.36,11.36,0,0,1,19.41,0l19.44,31.91A11.25,11.25,0,0,1,163.71,175.63Z"/><circle class="cls-1" cx="134.4" cy="157.26" r="8.62"/></svg>