<svg width="50" height="48" viewBox="0 0 50 48" fill="none" xmlns="http://www.w3.org/2000/svg">
<g clip-path="url(#clip0_938_5821)" stroke-width="0.3" stroke-opacity=".3" fill="none">
<path d="M25.1221 0.5H25.2588L25.668 0.516602C27.7096 0.632508 29.6989 1.2465 31.4727 2.3125C33.3651 3.4499 34.9514 5.06593 36.083 7.01074L36.085 7.0127L44.4697 21.2646C44.497 21.3147 44.5127 21.3725 44.5117 21.4326C44.5106 21.494 44.493 21.553 44.4629 21.6025L44.4561 21.6133L44.4502 21.624C44.4219 21.6756 44.3823 21.7163 44.3369 21.7432C44.2914 21.77 44.2411 21.7823 44.1914 21.7812L41.084 21.7178C41.0601 21.7173 41.0361 21.7128 41.0127 21.7061L40.9443 21.6768C40.9224 21.6637 40.9015 21.6478 40.8828 21.6289L40.834 21.5645L33.2119 8.60059C32.3686 7.16676 31.1818 5.97986 29.7646 5.15527C28.3475 4.33066 26.7481 3.89654 25.1201 3.89648C23.4922 3.89648 21.892 4.33062 20.4746 5.15527C19.0577 5.97981 17.8716 7.16692 17.0283 8.60059L5.17285 28.7637C4.26114 30.2825 3.7626 32.0269 3.72754 33.8125C3.69257 35.5979 4.12248 37.3614 4.97363 38.917L4.97461 38.918C5.79896 40.4096 6.99284 41.6499 8.43555 42.5088C9.87739 43.3673 11.5152 43.813 13.1807 43.8008V43.8018H26.3203C26.3762 43.8015 26.4323 43.8182 26.4814 43.8525C26.5311 43.8873 26.5724 43.9388 26.5967 44.002L27.6436 46.7285L27.6445 46.7295C27.6644 46.7808 27.672 46.8374 27.666 46.8936C27.663 46.9216 27.6567 46.949 27.6475 46.9746L27.6104 47.0469L27.6055 47.0557C27.5778 47.099 27.5408 47.1328 27.5 47.1553H27.499C27.4584 47.1776 27.4141 47.189 27.3701 47.1885H13.1768C10.937 47.2062 8.73198 46.6015 6.79199 45.4365C4.85197 44.2715 3.24621 42.5876 2.14453 40.5586C1.01768 38.4723 0.4502 36.11 0.50293 33.7178C0.555681 31.3251 1.22739 28.9918 2.44531 26.9609L2.44727 26.957L14.2852 6.82227L14.2871 6.82031C15.4132 4.88222 17.0042 3.28185 18.9033 2.1748C20.8024 1.0679 22.9454 0.491267 25.1221 0.5Z" stroke="#8767C8"/>
<path d="M35.5259 42.9277C35.8077 42.9461 36.0837 43.0217 36.3384 43.1514L36.3403 43.1523L36.4487 43.2061V43.207C36.7915 43.38 37.0864 43.645 37.3013 43.9775L37.3677 44.0811C37.5925 44.4724 37.7016 44.9264 37.6733 45.3857C37.6426 45.8854 37.4538 46.3588 37.1392 46.7324C36.8246 47.1058 36.4023 47.3582 35.9399 47.4551C35.478 47.5518 34.9972 47.4885 34.5718 47.2734L34.4731 47.2207L34.4673 47.2178L34.4604 47.2139C34.2052 47.087 33.9751 46.909 33.7847 46.6885C33.5941 46.4677 33.4471 46.2086 33.3521 45.9268C33.2571 45.6451 33.2164 45.3466 33.2329 45.0479C33.2495 44.7494 33.3225 44.4575 33.4478 44.1895C33.5736 43.9208 33.7495 43.6816 33.9634 43.4854C34.1772 43.2892 34.425 43.1394 34.6929 43.0439C34.9607 42.9486 35.2441 42.9093 35.5259 42.9277Z" stroke="#201B1F"/>
<path d="M45.9038 27.165C46.3749 26.9969 46.8849 27.0037 47.3491 27.1807L47.5454 27.2666L47.6431 27.3193L47.6548 27.3252C47.9363 27.4655 48.185 27.6696 48.3833 27.9219L48.4927 28.0918C48.7598 28.505 48.8896 29.0003 48.8589 29.5C48.8282 29.9998 48.6393 30.4732 48.3247 30.8467C48.0102 31.2199 47.5884 31.4725 47.1265 31.5693C46.6644 31.6662 46.1838 31.6027 45.7583 31.3877H45.7573L45.6499 31.334H45.6509C45.1388 31.0728 44.7418 30.6088 44.5542 30.0391C44.3664 29.469 44.4053 28.8444 44.6606 28.3047C44.8842 27.8323 45.2561 27.4614 45.7065 27.2471L45.9038 27.165Z" stroke="#201B1F"/>
<path d="M25.1382 12.4727C26.3657 12.4727 27.5738 12.7999 28.646 13.4238C29.7184 14.0478 30.62 14.948 31.2622 16.04L37.3022 26.3291V26.3301C37.967 27.4604 38.3305 28.7551 38.353 30.0811C38.3755 31.4068 38.0563 32.7141 37.4302 33.8682C36.8042 35.0222 35.8943 35.9806 34.7954 36.6465C33.6966 37.3123 32.4476 37.6624 31.1772 37.6621H19.0962C17.8238 37.6635 16.5726 37.3133 15.4722 36.6465C14.3717 35.9797 13.4607 35.0194 12.8345 33.8633C12.2083 32.707 11.89 31.397 11.9146 30.0693C11.9391 28.7415 12.3058 27.4449 12.9741 26.3145V26.3135L19.0151 16.04C19.6573 14.9481 20.5591 14.0478 21.6313 13.4238C22.7034 12.8 23.911 12.4727 25.1382 12.4727ZM25.1353 15.7676C24.4407 15.7676 23.7583 15.9529 23.1548 16.3037C22.5514 16.6546 22.0471 17.1589 21.689 17.7666V17.7676L15.6519 28.04C15.2817 28.6694 15.0804 29.3888 15.0679 30.123C15.0554 30.8572 15.2314 31.5825 15.5796 32.2246C15.9278 32.867 16.4363 33.4046 17.0542 33.7793C17.6723 34.1541 18.3774 34.3524 19.0962 34.3525L31.1772 34.3516C31.897 34.3569 32.6038 34.1619 33.2231 33.7871C33.8435 33.4117 34.3515 32.8704 34.6968 32.2236C35.0477 31.5826 35.2263 30.8575 35.2134 30.123C35.202 29.4786 35.0442 28.8465 34.7534 28.2773L34.6206 28.0381L28.5815 17.7676V17.7666C28.2233 17.1589 27.7192 16.6546 27.1157 16.3037C26.5121 15.9529 25.83 15.7676 25.1353 15.7676Z" stroke="#8767C8"/>
<path d="M25.1494 23.8018C26.336 23.8019 27.3271 24.8035 27.3271 26.0762C27.3271 27.3489 26.3359 28.3504 25.1494 28.3506C23.9628 28.3506 22.9708 27.349 22.9707 26.0762C22.9707 24.8034 23.9628 23.8018 25.1494 23.8018Z" stroke="#201B1F"/>
</g>
<defs>
<clipPath id="clip0_938_5821">
<rect width="50" height="48" fill="white"/>
</clipPath>
</defs>
</svg>
