<?xml version="1.0" encoding="utf-8"?>
<!-- Generator: Adobe Illustrator 23.0.6, SVG Export Plug-In . SVG Version: 6.00 Build 0)  -->
<svg version="1.1" id="Layer_1" xmlns="http://www.w3.org/2000/svg" xmlns:xlink="http://www.w3.org/1999/xlink" x="0px" y="0px"
	 viewBox="0 0 576 144" style="enable-background:new 0 0 576 144;" xml:space="preserve">
<style type="text/css">
	.st0{fill:#201B1F;}
	.st1{fill:#FFFFFF;}
</style>
<g>
	<path class="st1" d="M119.07,74.68c-1-0.17-2.08-0.31-3.24-0.44c-1.17-0.12-2.2-0.19-3.12-0.19c-4.08,0-7.3,0.73-9.67,2.18
		s-3.56,3.81-3.56,7.05c0,2.16,0.46,3.83,1.37,4.99c0.91,1.17,2.01,2.02,3.31,2.56c1.29,0.54,2.66,0.87,4.12,1
		c1.46,0.13,2.72,0.19,3.81,0.19c1.25,0,2.5-0.1,3.74-0.31c1.25-0.21,2.33-0.39,3.24-0.56V74.68z M119.07,61.83
		c0-2-0.33-3.62-1-4.87c-0.67-1.25-1.58-2.22-2.75-2.93c-1.17-0.7-2.6-1.18-4.3-1.43c-1.71-0.25-3.6-0.37-5.68-0.37
		c-4.49,0-9.28,0.87-14.35,2.62L87.5,41.86c3.66-1.25,7.32-2.16,10.98-2.74c3.66-0.58,7.07-0.87,10.23-0.87
		c8.65,0,15.41,2.08,20.28,6.24c4.87,4.16,7.3,10.81,7.3,19.97v37.43c-2.91,0.92-6.45,1.79-10.61,2.62
		c-4.16,0.83-8.86,1.25-14.1,1.25c-4.24,0-8.13-0.37-11.67-1.12c-3.54-0.75-6.57-2-9.11-3.74c-2.54-1.75-4.49-3.99-5.86-6.74
		c-1.37-2.74-2.06-6.11-2.06-10.11c0-3.99,0.85-7.34,2.56-10.05c1.7-2.7,3.91-4.87,6.61-6.49c2.7-1.62,5.72-2.79,9.05-3.5
		c3.33-0.71,6.65-1.06,9.98-1.06c2.41,0,5.07,0.12,7.99,0.37V61.83z"/>
	<path class="st1" d="M146.3,39.74h17.72v34.19c0,3.41,0.27,6.22,0.81,8.42c0.54,2.2,1.37,3.95,2.5,5.24
		c1.12,1.29,2.51,2.2,4.18,2.74c1.66,0.54,3.62,0.81,5.87,0.81c3.08,0,5.66-0.29,7.74-0.87V39.74h17.59v62.02
		c-2.66,0.92-6.18,1.81-10.54,2.68c-4.37,0.87-8.92,1.31-13.66,1.31c-4.24,0-8.32-0.33-12.23-1c-3.91-0.67-7.34-2.08-10.29-4.24
		c-2.95-2.16-5.3-5.32-7.05-9.48c-1.75-4.16-2.62-9.69-2.62-16.6V39.74z"/>
	<path class="st1" d="M226.37,76.18c-4.66-1.33-8.3-3.31-10.92-5.93c-2.62-2.62-3.93-6.55-3.93-11.79c0-6.32,2.27-11.27,6.8-14.85
		c4.53-3.58,10.71-5.37,18.53-5.37c3.25,0,6.45,0.29,9.61,0.87c3.16,0.58,6.36,1.46,9.61,2.62l-3.62,12.85
		c-2-0.83-4.2-1.56-6.61-2.18c-2.41-0.62-4.95-0.94-7.61-0.94c-2.83,0-5.03,0.44-6.61,1.31c-1.58,0.87-2.37,2.27-2.37,4.18
		c0,1.83,0.56,3.12,1.69,3.87c1.12,0.75,2.72,1.46,4.8,2.12l7.11,2.12c2.33,0.67,4.43,1.48,6.3,2.43c1.87,0.96,3.47,2.14,4.8,3.56
		c1.33,1.41,2.37,3.16,3.12,5.24c0.75,2.08,1.12,4.62,1.12,7.61c0,3.08-0.65,5.95-1.93,8.61c-1.29,2.66-3.16,4.97-5.61,6.92
		c-2.46,1.96-5.43,3.49-8.92,4.62c-3.49,1.12-7.45,1.68-11.85,1.68c-2,0-3.83-0.06-5.49-0.19c-1.66-0.12-3.26-0.33-4.8-0.62
		c-1.54-0.29-3.06-0.65-4.56-1.06c-1.5-0.41-3.12-0.96-4.87-1.62l3.62-13.48c2.74,1.08,5.34,1.89,7.8,2.43
		c2.45,0.54,5.01,0.81,7.67,0.81c1.17,0,2.43-0.1,3.81-0.31c1.37-0.21,2.64-0.58,3.81-1.12c1.17-0.54,2.14-1.25,2.93-2.12
		c0.79-0.87,1.18-2.01,1.18-3.43c0-2-0.6-3.43-1.81-4.31c-1.21-0.87-2.89-1.64-5.05-2.31L226.37,76.18z"/>
	<path class="st1" d="M306.7,65.08c-0.17-3.99-1.27-7.22-3.31-9.67c-2.04-2.45-4.89-3.68-8.55-3.68c-4.16,0-7.32,1.17-9.48,3.49
		c-2.17,2.33-3.45,5.61-3.87,9.86H306.7z M281.37,77.43c0.33,4.99,2.08,8.61,5.24,10.86c3.16,2.25,7.32,3.37,12.48,3.37
		c2.83,0,5.72-0.27,8.67-0.81c2.95-0.54,5.76-1.31,8.42-2.31l3.49,13.47c-6.49,2.5-13.81,3.74-21.96,3.74
		c-5.99,0-11.13-0.83-15.41-2.5c-4.28-1.66-7.78-3.97-10.48-6.93c-2.71-2.95-4.7-6.47-5.99-10.54c-1.29-4.07-1.93-8.53-1.93-13.35
		c0-4.74,0.67-9.19,2-13.35c1.33-4.16,3.31-7.78,5.93-10.86c2.62-3.08,5.87-5.51,9.73-7.3c3.87-1.79,8.38-2.68,13.54-2.68
		c4.49,0,8.49,0.79,11.98,2.37c3.5,1.58,6.47,3.74,8.92,6.49c2.45,2.74,4.3,6.01,5.55,9.79c1.25,3.79,1.87,7.84,1.87,12.17
		c0,1.58-0.06,3.14-0.19,4.68c-0.13,1.54-0.27,2.77-0.44,3.68H281.37z"/>
	<path class="st1" d="M73.89,89.03l3.49,13.6c-3.33,1.33-6.45,2.18-9.36,2.56c-2.91,0.37-5.95,0.56-9.11,0.56
		c-5.41,0-10.11-0.85-14.1-2.56c-3.99-1.7-7.3-4.06-9.92-7.05c-2.62-2.99-4.6-6.55-5.93-10.67c-1.33-4.12-2-8.59-2-13.42
		c0-4.74,0.64-9.15,1.93-13.23c1.29-4.08,3.25-7.65,5.87-10.73c2.62-3.08,5.89-5.49,9.8-7.24c3.91-1.75,8.44-2.62,13.6-2.62
		c1.83,0,3.51,0.04,5.06,0.13c1.54,0.08,3.01,0.25,4.43,0.5c1.41,0.25,2.83,0.58,4.24,1c1.41,0.42,3,0.96,4.74,1.62l-3.12,13.23
		c-2.5-0.83-4.68-1.39-6.55-1.69c-1.87-0.29-4.02-0.44-6.43-0.44c-5.16,0-9.05,1.69-11.67,5.05c-2.62,3.37-3.93,8.17-3.93,14.41
		c0,6.74,1.41,11.65,4.24,14.72c2.83,3.08,6.65,4.62,11.48,4.62c1.25,0,2.39-0.02,3.43-0.06c1.04-0.04,2.06-0.15,3.06-0.31
		c1-0.17,2.02-0.42,3.06-0.75C71.25,89.95,72.47,89.53,73.89,89.03"/>
	<path class="st1" d="M332.48,39.74h14.47l-0.01,9.37c0.67-1.25,4.52-4.52,4.52-4.52s2.48-1.99,3.98-2.98c1.5-1,3.18-1.81,5.05-2.43
		c1.87-0.62,3.97-0.94,6.3-0.94c10.07,0,16.51,3.83,19.34,11.48c1.66-3.08,4.01-5.76,7.05-8.05c3.03-2.29,6.88-3.43,11.54-3.43
		c7.32,0,12.71,2.02,16.16,6.05c3.45,4.04,5.18,10.34,5.18,18.9v41.05h-17.72V67.82c0-4.49-0.56-7.94-1.69-10.36
		c-1.12-2.41-3.39-3.62-6.8-3.62c-1.42,0-2.81,0.21-4.18,0.62c-1.37,0.42-2.62,1.18-3.74,2.31c-1.12,1.12-2.04,2.7-2.75,4.74
		c-0.71,2.04-1.06,4.68-1.06,7.92v34.81h-17.72V67.82c0-4.49-0.56-7.94-1.69-10.36c-1.12-2.41-3.39-3.62-6.8-3.62
		c-1.42,0-2.83,0.21-4.24,0.62c-1.42,0.42-2.68,1.23-3.81,2.43c-1.12,1.21-2.02,2.89-2.68,5.05c-0.67,2.17-1,4.99-1,8.49v33.82
		h-17.72V39.74z"/>
	<path class="st1" d="M465.57,92.28c4.66,0,8.01-1.73,10.05-5.18c2.04-3.45,3.06-8.42,3.06-14.91c0-6.49-1.02-11.46-3.06-14.91
		c-2.04-3.45-5.39-5.18-10.05-5.18c-4.57,0-7.88,1.73-9.92,5.18c-2.04,3.45-3.06,8.42-3.06,14.91c0,6.49,1.02,11.46,3.06,14.91
		C457.69,90.55,460.99,92.28,465.57,92.28 M465.57,105.75c-5.24,0-9.79-0.86-13.66-2.56c-3.87-1.7-7.07-4.08-9.61-7.11
		c-2.54-3.04-4.45-6.59-5.74-10.67c-1.29-4.08-1.93-8.49-1.93-13.23c0-4.74,0.64-9.19,1.93-13.35c1.29-4.16,3.2-7.76,5.74-10.79
		c2.54-3.03,5.74-5.43,9.61-7.18c3.87-1.75,8.42-2.62,13.66-2.62c5.24,0,9.82,0.87,13.73,2.62c3.91,1.75,7.15,4.14,9.73,7.18
		c2.58,3.04,4.49,6.63,5.74,10.79c1.25,4.16,1.87,8.61,1.87,13.35c0,4.74-0.62,9.15-1.87,13.23c-1.25,4.08-3.16,7.63-5.74,10.67
		c-2.58,3.04-5.82,5.41-9.73,7.11C475.38,104.9,470.81,105.75,465.57,105.75"/>
	<path class="st1" d="M517.21,76.18c-4.66-1.33-8.3-3.31-10.92-5.93c-2.62-2.62-3.93-6.55-3.93-11.79c0-6.32,2.27-11.27,6.8-14.85
		c4.53-3.58,10.71-5.37,18.53-5.37c3.24,0,6.44,0.29,9.61,0.87c3.16,0.58,6.36,1.46,9.61,2.62l-3.62,12.85
		c-2-0.83-4.2-1.56-6.61-2.19c-2.41-0.62-4.95-0.94-7.61-0.94c-2.83,0-5.03,0.44-6.61,1.31c-1.58,0.87-2.37,2.27-2.37,4.18
		c0,1.83,0.56,3.12,1.69,3.87c1.12,0.75,2.72,1.46,4.8,2.12l7.11,2.12c2.33,0.67,4.43,1.48,6.3,2.43c1.87,0.96,3.47,2.14,4.8,3.55
		c1.33,1.42,2.37,3.16,3.12,5.24c0.75,2.08,1.12,4.62,1.12,7.61c0,3.08-0.65,5.95-1.94,8.61c-1.29,2.66-3.16,4.97-5.61,6.92
		c-2.45,1.96-5.43,3.5-8.92,4.62c-3.49,1.12-7.45,1.68-11.85,1.68c-1.99,0-3.83-0.06-5.49-0.19c-1.66-0.12-3.27-0.33-4.8-0.62
		c-1.54-0.29-3.06-0.65-4.55-1.06c-1.5-0.42-3.12-0.96-4.87-1.62l3.62-13.48c2.75,1.08,5.35,1.89,7.8,2.43
		c2.45,0.54,5.01,0.81,7.67,0.81c1.17,0,2.43-0.1,3.81-0.31c1.38-0.21,2.64-0.58,3.81-1.12c1.16-0.54,2.14-1.25,2.93-2.12
		c0.79-0.87,1.18-2.02,1.18-3.43c0-2-0.6-3.43-1.81-4.31c-1.21-0.87-2.89-1.64-5.06-2.31L517.21,76.18z"/>
</g>
</svg>
