<svg id="Layer_1" data-name="Layer 1" xmlns="http://www.w3.org/2000/svg" viewBox="0 0 127.35 119.53"><defs><style>.cls-1,.cls-2{fill:#fff;}.cls-2{opacity:0.7;isolation:isolate;}</style></defs><path class="cls-1" d="M116.17,56.57,94.52,21.05a34.82,34.82,0,0,0-29-16.84h-.38A33.78,33.78,0,0,0,36,20.58L5.54,70.73a34.54,34.54,0,0,0-.8,35.1A33.66,33.66,0,0,0,34.31,123H70.9A2.07,2.07,0,0,0,73,120.91a2.12,2.12,0,0,0-.14-.75l-2.7-6.79a2.08,2.08,0,0,0-1.93-1.3H34.3a22.92,22.92,0,0,1-20-11.52,23.54,23.54,0,0,1,.49-24L45.34,26.27a23.13,23.13,0,0,1,39.53,0l19.7,32.26a2.07,2.07,0,0,0,1.73,1l8,.16a2.05,2.05,0,0,0,2.11-2,2.07,2.07,0,0,0-.3-1.14Z" transform="translate(-0.34 -4.21)"/><path class="cls-2" d="M97.62,113a6.74,6.74,0,0,0-2.71-2.34l-.28-.15a6.87,6.87,0,0,0-6,12.34h0l.28.14a6.87,6.87,0,0,0,8.73-10Z" transform="translate(-0.34 -4.21)"/><path class="cls-2" d="M126.52,73.51a6.82,6.82,0,0,0-2.7-2.35l-.28-.14a6.88,6.88,0,0,0-9.19,3.17h0a6.86,6.86,0,0,0,3.14,9.18h0l.28.14a6.87,6.87,0,0,0,8.72-10Z" transform="translate(-0.34 -4.21)"/><path class="cls-1" d="M82.06,43.54a19.8,19.8,0,0,0-33.82,0L32.66,69.12A19.81,19.81,0,0,0,49.57,99.23H80.73A19.81,19.81,0,0,0,97.65,69.12Zm6.62,40.35a9,9,0,0,1-8,4.65H49.57a9.11,9.11,0,0,1-7.78-13.85L57.37,49.11a9.1,9.1,0,0,1,15.56,0L88.52,74.69A9,9,0,0,1,88.68,83.89Z" transform="translate(-0.34 -4.21)"/><circle class="cls-2" cx="64.84" cy="64.95" r="6.91"/></svg>