<svg width="16" height="16" viewBox="0 0 16 16" fill="none" xmlns="http://www.w3.org/2000/svg">
<path d="M1.14891 4.96308L7.70034 7.93505C7.89159 8.02195 8.10787 8.02195 8.29912 7.93505L14.8506 4.96308C15.316 4.75186 15.316 4.04845 14.8506 3.83723L8.2994 0.864983C8.20544 0.822034 8.10333 0.799805 8.00001 0.799805C7.8967 0.799805 7.79459 0.822034 7.70062 0.864983L1.14891 3.83695C0.683438 4.04817 0.683438 4.75186 1.14891 4.96308ZM14.8508 7.44595L13.2171 6.70542L8.67094 8.76614C8.45831 8.86261 8.23247 8.91155 7.99987 8.91155C7.76728 8.91155 7.54172 8.86261 7.32881 8.76614L2.78297 6.70542L1.14891 7.44595C0.683438 7.65689 0.683438 8.36001 1.14891 8.57095L7.70034 11.5407C7.89159 11.6273 8.10787 11.6273 8.29912 11.5407L14.8508 8.57095C15.3163 8.36001 15.3163 7.65689 14.8508 7.44595V7.44595ZM14.8508 11.0403L13.2232 10.3026L8.67094 12.3661C8.45831 12.4626 8.23247 12.5115 7.99987 12.5115C7.76728 12.5115 7.54172 12.4626 7.32881 12.3661L2.77678 10.3026L1.14891 11.0403C0.683438 11.2513 0.683438 11.9544 1.14891 12.1653L7.70034 15.135C7.89159 15.2217 8.10787 15.2217 8.29912 15.135L14.8508 12.1653C15.3163 11.9544 15.3163 11.2513 14.8508 11.0403V11.0403Z" fill="#020203"/>
</svg>
