<svg width="90" height="80" viewBox="0 0 90 80" fill="none" xmlns="http://www.w3.org/2000/svg">
<rect x="63" y="1" width="1" height="23" fill="#9C9D9E"/>
<rect x="63" y="1" width="4" height="1" fill="#9C9D9E"/>
<rect x="63" y="23" width="4" height="1" fill="#9C9D9E"/>
<path d="M3.82422 4.65625V10H2.74023V3.66016H3.79492L3.82422 4.65625ZM5.80469 3.625L5.79883 4.63281C5.70898 4.61328 5.62305 4.60156 5.54102 4.59766C5.46289 4.58984 5.37305 4.58594 5.27148 4.58594C5.02148 4.58594 4.80078 4.625 4.60938 4.70312C4.41797 4.78125 4.25586 4.89062 4.12305 5.03125C3.99023 5.17188 3.88477 5.33984 3.80664 5.53516C3.73242 5.72656 3.68359 5.9375 3.66016 6.16797L3.35547 6.34375C3.35547 5.96094 3.39258 5.60156 3.4668 5.26562C3.54492 4.92969 3.66406 4.63281 3.82422 4.375C3.98438 4.11328 4.1875 3.91016 4.43359 3.76562C4.68359 3.61719 4.98047 3.54297 5.32422 3.54297C5.40234 3.54297 5.49219 3.55273 5.59375 3.57227C5.69531 3.58789 5.76562 3.60547 5.80469 3.625ZM10.3105 8.91602V5.65234C10.3105 5.40234 10.2598 5.18555 10.1582 5.00195C10.0605 4.81445 9.91211 4.66992 9.71289 4.56836C9.51367 4.4668 9.26758 4.41602 8.97461 4.41602C8.70117 4.41602 8.46094 4.46289 8.25391 4.55664C8.05078 4.65039 7.89062 4.77344 7.77344 4.92578C7.66016 5.07812 7.60352 5.24219 7.60352 5.41797H6.51953C6.51953 5.19141 6.57812 4.9668 6.69531 4.74414C6.8125 4.52148 6.98047 4.32031 7.19922 4.14062C7.42188 3.95703 7.6875 3.8125 7.99609 3.70703C8.30859 3.59766 8.65625 3.54297 9.03906 3.54297C9.5 3.54297 9.90625 3.62109 10.2578 3.77734C10.6133 3.93359 10.8906 4.16992 11.0898 4.48633C11.293 4.79883 11.3945 5.19141 11.3945 5.66406V8.61719C11.3945 8.82812 11.4121 9.05273 11.4473 9.29102C11.4863 9.5293 11.543 9.73438 11.6172 9.90625V10H10.4863C10.4316 9.875 10.3887 9.70898 10.3574 9.50195C10.3262 9.29102 10.3105 9.0957 10.3105 8.91602ZM10.498 6.15625L10.5098 6.91797H9.41406C9.10547 6.91797 8.83008 6.94336 8.58789 6.99414C8.3457 7.04102 8.14258 7.11328 7.97852 7.21094C7.81445 7.30859 7.68945 7.43164 7.60352 7.58008C7.51758 7.72461 7.47461 7.89453 7.47461 8.08984C7.47461 8.28906 7.51953 8.4707 7.60938 8.63477C7.69922 8.79883 7.83398 8.92969 8.01367 9.02734C8.19727 9.12109 8.42188 9.16797 8.6875 9.16797C9.01953 9.16797 9.3125 9.09766 9.56641 8.95703C9.82031 8.81641 10.0215 8.64453 10.1699 8.44141C10.3223 8.23828 10.4043 8.04102 10.416 7.84961L10.8789 8.37109C10.8516 8.53516 10.7773 8.7168 10.6562 8.91602C10.5352 9.11523 10.373 9.30664 10.1699 9.49023C9.9707 9.66992 9.73242 9.82031 9.45508 9.94141C9.18164 10.0586 8.87305 10.1172 8.5293 10.1172C8.09961 10.1172 7.72266 10.0332 7.39844 9.86523C7.07812 9.69727 6.82812 9.47266 6.64844 9.19141C6.47266 8.90625 6.38477 8.58789 6.38477 8.23633C6.38477 7.89648 6.45117 7.59766 6.58398 7.33984C6.7168 7.07812 6.9082 6.86133 7.1582 6.68945C7.4082 6.51367 7.70898 6.38086 8.06055 6.29102C8.41211 6.20117 8.80469 6.15625 9.23828 6.15625H10.498ZM14.1836 5.01367V10H13.0996V3.66016H14.125L14.1836 5.01367ZM13.9258 6.58984L13.4746 6.57227C13.4785 6.13867 13.543 5.73828 13.668 5.37109C13.793 5 13.9688 4.67773 14.1953 4.4043C14.4219 4.13086 14.6914 3.91992 15.0039 3.77148C15.3203 3.61914 15.6699 3.54297 16.0527 3.54297C16.3652 3.54297 16.6465 3.58594 16.8965 3.67188C17.1465 3.75391 17.3594 3.88672 17.5352 4.07031C17.7148 4.25391 17.8516 4.49219 17.9453 4.78516C18.0391 5.07422 18.0859 5.42773 18.0859 5.8457V10H16.9961V5.83398C16.9961 5.50195 16.9473 5.23633 16.8496 5.03711C16.752 4.83398 16.6094 4.6875 16.4219 4.59766C16.2344 4.50391 16.0039 4.45703 15.7305 4.45703C15.4609 4.45703 15.2148 4.51367 14.9922 4.62695C14.7734 4.74023 14.584 4.89648 14.4238 5.0957C14.2676 5.29492 14.1445 5.52344 14.0547 5.78125C13.9688 6.03516 13.9258 6.30469 13.9258 6.58984ZM23.8398 3.66016H24.8242V9.86523C24.8242 10.4238 24.7109 10.9004 24.4844 11.2949C24.2578 11.6895 23.9414 11.9883 23.5352 12.1914C23.1328 12.3984 22.668 12.502 22.1406 12.502C21.9219 12.502 21.6641 12.4668 21.3672 12.3965C21.0742 12.3301 20.7852 12.2148 20.5 12.0508C20.2188 11.8906 19.9824 11.6738 19.791 11.4004L20.3594 10.7559C20.625 11.0762 20.9023 11.2988 21.1914 11.4238C21.4844 11.5488 21.7734 11.6113 22.0586 11.6113C22.4023 11.6113 22.6992 11.5469 22.9492 11.418C23.1992 11.2891 23.3926 11.0977 23.5293 10.8438C23.6699 10.5938 23.7402 10.2852 23.7402 9.91797V5.05469L23.8398 3.66016ZM19.4746 6.90039V6.77734C19.4746 6.29297 19.5312 5.85352 19.6445 5.45898C19.7617 5.06055 19.9277 4.71875 20.1426 4.43359C20.3613 4.14844 20.625 3.92969 20.9336 3.77734C21.2422 3.62109 21.5898 3.54297 21.9766 3.54297C22.375 3.54297 22.7227 3.61328 23.0195 3.75391C23.3203 3.89062 23.5742 4.0918 23.7812 4.35742C23.9922 4.61914 24.1582 4.93555 24.2793 5.30664C24.4004 5.67773 24.4844 6.09766 24.5312 6.56641V7.10547C24.4883 7.57031 24.4043 7.98828 24.2793 8.35938C24.1582 8.73047 23.9922 9.04688 23.7812 9.30859C23.5742 9.57031 23.3203 9.77148 23.0195 9.91211C22.7188 10.0488 22.3672 10.1172 21.9648 10.1172C21.5859 10.1172 21.2422 10.0371 20.9336 9.87695C20.6289 9.7168 20.3672 9.49219 20.1484 9.20312C19.9297 8.91406 19.7617 8.57422 19.6445 8.18359C19.5312 7.78906 19.4746 7.36133 19.4746 6.90039ZM20.5586 6.77734V6.90039C20.5586 7.2168 20.5898 7.51367 20.6523 7.79102C20.7188 8.06836 20.8184 8.3125 20.9512 8.52344C21.0879 8.73438 21.2617 8.90039 21.4727 9.02148C21.6836 9.13867 21.9355 9.19727 22.2285 9.19727C22.5879 9.19727 22.8848 9.12109 23.1191 8.96875C23.3535 8.81641 23.5391 8.61523 23.6758 8.36523C23.8164 8.11523 23.9258 7.84375 24.0039 7.55078V6.13867C23.9609 5.92383 23.8945 5.7168 23.8047 5.51758C23.7188 5.31445 23.6055 5.13477 23.4648 4.97852C23.3281 4.81836 23.1582 4.69141 22.9551 4.59766C22.752 4.50391 22.5137 4.45703 22.2402 4.45703C21.9434 4.45703 21.6875 4.51953 21.4727 4.64453C21.2617 4.76562 21.0879 4.93359 20.9512 5.14844C20.8184 5.35938 20.7188 5.60547 20.6523 5.88672C20.5898 6.16406 20.5586 6.46094 20.5586 6.77734ZM29.1016 10.1172C28.6602 10.1172 28.2598 10.043 27.9004 9.89453C27.5449 9.74219 27.2383 9.5293 26.9805 9.25586C26.7266 8.98242 26.5312 8.6582 26.3945 8.2832C26.2578 7.9082 26.1895 7.49805 26.1895 7.05273V6.80664C26.1895 6.29102 26.2656 5.83203 26.418 5.42969C26.5703 5.02344 26.7773 4.67969 27.0391 4.39844C27.3008 4.11719 27.5977 3.9043 27.9297 3.75977C28.2617 3.61523 28.6055 3.54297 28.9609 3.54297C29.4141 3.54297 29.8047 3.62109 30.1328 3.77734C30.4648 3.93359 30.7363 4.15234 30.9473 4.43359C31.1582 4.71094 31.3145 5.03906 31.416 5.41797C31.5176 5.79297 31.5684 6.20312 31.5684 6.64844V7.13477H26.834V6.25H30.4844V6.16797C30.4688 5.88672 30.4102 5.61328 30.3086 5.34766C30.2109 5.08203 30.0547 4.86328 29.8398 4.69141C29.625 4.51953 29.332 4.43359 28.9609 4.43359C28.7148 4.43359 28.4883 4.48633 28.2812 4.5918C28.0742 4.69336 27.8965 4.8457 27.748 5.04883C27.5996 5.25195 27.4844 5.5 27.4023 5.79297C27.3203 6.08594 27.2793 6.42383 27.2793 6.80664V7.05273C27.2793 7.35352 27.3203 7.63672 27.4023 7.90234C27.4883 8.16406 27.6113 8.39453 27.7715 8.59375C27.9355 8.79297 28.1328 8.94922 28.3633 9.0625C28.5977 9.17578 28.8633 9.23242 29.1602 9.23242C29.543 9.23242 29.8672 9.1543 30.1328 8.99805C30.3984 8.8418 30.6309 8.63281 30.8301 8.37109L31.4863 8.89258C31.3496 9.09961 31.1758 9.29688 30.9648 9.48438C30.7539 9.67188 30.4941 9.82422 30.1855 9.94141C29.8809 10.0586 29.5195 10.1172 29.1016 10.1172ZM35.5234 6.90039V6.76562C35.5234 6.30859 35.5898 5.88477 35.7227 5.49414C35.8555 5.09961 36.0469 4.75781 36.2969 4.46875C36.5469 4.17578 36.8496 3.94922 37.2051 3.78906C37.5605 3.625 37.959 3.54297 38.4004 3.54297C38.8457 3.54297 39.2461 3.625 39.6016 3.78906C39.9609 3.94922 40.2656 4.17578 40.5156 4.46875C40.7695 4.75781 40.9629 5.09961 41.0957 5.49414C41.2285 5.88477 41.2949 6.30859 41.2949 6.76562V6.90039C41.2949 7.35742 41.2285 7.78125 41.0957 8.17188C40.9629 8.5625 40.7695 8.9043 40.5156 9.19727C40.2656 9.48633 39.9629 9.71289 39.6074 9.87695C39.2559 10.0371 38.8574 10.1172 38.4121 10.1172C37.9668 10.1172 37.5664 10.0371 37.2109 9.87695C36.8555 9.71289 36.5508 9.48633 36.2969 9.19727C36.0469 8.9043 35.8555 8.5625 35.7227 8.17188C35.5898 7.78125 35.5234 7.35742 35.5234 6.90039ZM36.6074 6.76562V6.90039C36.6074 7.2168 36.6445 7.51562 36.7188 7.79688C36.793 8.07422 36.9043 8.32031 37.0527 8.53516C37.2051 8.75 37.3945 8.91992 37.6211 9.04492C37.8477 9.16602 38.1113 9.22656 38.4121 9.22656C38.709 9.22656 38.9688 9.16602 39.1914 9.04492C39.418 8.91992 39.6055 8.75 39.7539 8.53516C39.9023 8.32031 40.0137 8.07422 40.0879 7.79688C40.166 7.51562 40.2051 7.2168 40.2051 6.90039V6.76562C40.2051 6.45312 40.166 6.1582 40.0879 5.88086C40.0137 5.59961 39.9004 5.35156 39.748 5.13672C39.5996 4.91797 39.4121 4.74609 39.1855 4.62109C38.9629 4.49609 38.7012 4.43359 38.4004 4.43359C38.1035 4.43359 37.8418 4.49609 37.6152 4.62109C37.3926 4.74609 37.2051 4.91797 37.0527 5.13672C36.9043 5.35156 36.793 5.59961 36.7188 5.88086C36.6445 6.1582 36.6074 6.45312 36.6074 6.76562ZM44.2715 10H43.1875V2.99219C43.1875 2.53516 43.2695 2.15039 43.4336 1.83789C43.6016 1.52148 43.8418 1.2832 44.1543 1.12305C44.4668 0.958984 44.8379 0.876953 45.2676 0.876953C45.3926 0.876953 45.5176 0.884766 45.6426 0.900391C45.7715 0.916016 45.8965 0.939453 46.0176 0.970703L45.959 1.85547C45.877 1.83594 45.7832 1.82227 45.6777 1.81445C45.5762 1.80664 45.4746 1.80273 45.373 1.80273C45.1426 1.80273 44.9434 1.84961 44.7754 1.94336C44.6113 2.0332 44.4863 2.16602 44.4004 2.3418C44.3145 2.51758 44.2715 2.73438 44.2715 2.99219V10ZM45.6191 3.66016V4.49219H42.1855V3.66016H45.6191ZM15.666 19.2012H16.4395C16.8184 19.2012 17.1309 19.1387 17.377 19.0137C17.627 18.8848 17.8125 18.7109 17.9336 18.4922C18.0586 18.2695 18.1211 18.0195 18.1211 17.7422C18.1211 17.4141 18.0664 17.1387 17.957 16.916C17.8477 16.6934 17.6836 16.5254 17.4648 16.4121C17.2461 16.2988 16.9688 16.2422 16.6328 16.2422C16.3281 16.2422 16.0586 16.3027 15.8242 16.4238C15.5938 16.541 15.4121 16.709 15.2793 16.9277C15.1504 17.1465 15.0859 17.4043 15.0859 17.7012H14.002C14.002 17.2676 14.1113 16.873 14.3301 16.5176C14.5488 16.1621 14.8555 15.8789 15.25 15.668C15.6484 15.457 16.1094 15.3516 16.6328 15.3516C17.1484 15.3516 17.5996 15.4434 17.9863 15.627C18.373 15.8066 18.6738 16.0762 18.8887 16.4355C19.1035 16.791 19.2109 17.2344 19.2109 17.7656C19.2109 17.9805 19.1602 18.2109 19.0586 18.457C18.9609 18.6992 18.8066 18.9258 18.5957 19.1367C18.3887 19.3477 18.1191 19.5215 17.7871 19.6582C17.4551 19.791 17.0566 19.8574 16.5918 19.8574H15.666V19.2012ZM15.666 20.0918V19.4414H16.5918C17.1348 19.4414 17.584 19.5059 17.9395 19.6348C18.2949 19.7637 18.5742 19.9355 18.7773 20.1504C18.9844 20.3652 19.1289 20.6016 19.2109 20.8594C19.2969 21.1133 19.3398 21.3672 19.3398 21.6211C19.3398 22.0195 19.2715 22.373 19.1348 22.6816C19.002 22.9902 18.8125 23.252 18.5664 23.4668C18.3242 23.6816 18.0391 23.8438 17.7109 23.9531C17.3828 24.0625 17.0254 24.1172 16.6387 24.1172C16.2676 24.1172 15.918 24.0645 15.5898 23.959C15.2656 23.8535 14.9785 23.7012 14.7285 23.502C14.4785 23.2988 14.2832 23.0508 14.1426 22.7578C14.002 22.4609 13.9316 22.123 13.9316 21.7441H15.0156C15.0156 22.041 15.0801 22.3008 15.209 22.5234C15.3418 22.7461 15.5293 22.9199 15.7715 23.0449C16.0176 23.166 16.3066 23.2266 16.6387 23.2266C16.9707 23.2266 17.2559 23.1699 17.4941 23.0566C17.7363 22.9395 17.9219 22.7637 18.0508 22.5293C18.1836 22.2949 18.25 22 18.25 21.6445C18.25 21.2891 18.1758 20.998 18.0273 20.7715C17.8789 20.541 17.668 20.3711 17.3945 20.2617C17.125 20.1484 16.8066 20.0918 16.4395 20.0918H15.666ZM23.207 19.9277V20.8184H20.3477V19.9277H23.207ZM26.0488 23.3438L27.8125 17.6602H28.9727L26.4297 24.9785C26.3711 25.1348 26.293 25.3027 26.1953 25.4824C26.1016 25.666 25.9805 25.8398 25.832 26.0039C25.6836 26.168 25.5039 26.3008 25.293 26.4023C25.0859 26.5078 24.8379 26.5605 24.5488 26.5605C24.4629 26.5605 24.3535 26.5488 24.2207 26.5254C24.0879 26.502 23.9941 26.4824 23.9395 26.4668L23.9336 25.5879C23.9648 25.5918 24.0137 25.5957 24.0801 25.5996C24.1504 25.6074 24.1992 25.6113 24.2266 25.6113C24.4727 25.6113 24.6816 25.5781 24.8535 25.5117C25.0254 25.4492 25.1699 25.3418 25.2871 25.1895C25.4082 25.041 25.5117 24.8359 25.5977 24.5742L26.0488 23.3438ZM24.7539 17.6602L26.4004 22.582L26.6816 23.7246L25.9023 24.123L23.5703 17.6602H24.7539ZM32.5 24.1172C32.0586 24.1172 31.6582 24.043 31.2988 23.8945C30.9434 23.7422 30.6367 23.5293 30.3789 23.2559C30.125 22.9824 29.9297 22.6582 29.793 22.2832C29.6562 21.9082 29.5879 21.498 29.5879 21.0527V20.8066C29.5879 20.291 29.6641 19.832 29.8164 19.4297C29.9688 19.0234 30.1758 18.6797 30.4375 18.3984C30.6992 18.1172 30.9961 17.9043 31.3281 17.7598C31.6602 17.6152 32.0039 17.543 32.3594 17.543C32.8125 17.543 33.2031 17.6211 33.5312 17.7773C33.8633 17.9336 34.1348 18.1523 34.3457 18.4336C34.5566 18.7109 34.7129 19.0391 34.8145 19.418C34.916 19.793 34.9668 20.2031 34.9668 20.6484V21.1348H30.2324V20.25H33.8828V20.168C33.8672 19.8867 33.8086 19.6133 33.707 19.3477C33.6094 19.082 33.4531 18.8633 33.2383 18.6914C33.0234 18.5195 32.7305 18.4336 32.3594 18.4336C32.1133 18.4336 31.8867 18.4863 31.6797 18.5918C31.4727 18.6934 31.2949 18.8457 31.1465 19.0488C30.998 19.252 30.8828 19.5 30.8008 19.793C30.7188 20.0859 30.6777 20.4238 30.6777 20.8066V21.0527C30.6777 21.3535 30.7188 21.6367 30.8008 21.9023C30.8867 22.1641 31.0098 22.3945 31.1699 22.5938C31.334 22.793 31.5312 22.9492 31.7617 23.0625C31.9961 23.1758 32.2617 23.2324 32.5586 23.2324C32.9414 23.2324 33.2656 23.1543 33.5312 22.998C33.7969 22.8418 34.0293 22.6328 34.2285 22.3711L34.8848 22.8926C34.748 23.0996 34.5742 23.2969 34.3633 23.4844C34.1523 23.6719 33.8926 23.8242 33.584 23.9414C33.2793 24.0586 32.918 24.1172 32.5 24.1172ZM39.9707 22.916V19.6523C39.9707 19.4023 39.9199 19.1855 39.8184 19.002C39.7207 18.8145 39.5723 18.6699 39.373 18.5684C39.1738 18.4668 38.9277 18.416 38.6348 18.416C38.3613 18.416 38.1211 18.4629 37.9141 18.5566C37.7109 18.6504 37.5508 18.7734 37.4336 18.9258C37.3203 19.0781 37.2637 19.2422 37.2637 19.418H36.1797C36.1797 19.1914 36.2383 18.9668 36.3555 18.7441C36.4727 18.5215 36.6406 18.3203 36.8594 18.1406C37.082 17.957 37.3477 17.8125 37.6562 17.707C37.9688 17.5977 38.3164 17.543 38.6992 17.543C39.1602 17.543 39.5664 17.6211 39.918 17.7773C40.2734 17.9336 40.5508 18.1699 40.75 18.4863C40.9531 18.7988 41.0547 19.1914 41.0547 19.6641V22.6172C41.0547 22.8281 41.0723 23.0527 41.1074 23.291C41.1465 23.5293 41.2031 23.7344 41.2773 23.9062V24H40.1465C40.0918 23.875 40.0488 23.709 40.0176 23.502C39.9863 23.291 39.9707 23.0957 39.9707 22.916ZM40.1582 20.1562L40.1699 20.918H39.0742C38.7656 20.918 38.4902 20.9434 38.248 20.9941C38.0059 21.041 37.8027 21.1133 37.6387 21.2109C37.4746 21.3086 37.3496 21.4316 37.2637 21.5801C37.1777 21.7246 37.1348 21.8945 37.1348 22.0898C37.1348 22.2891 37.1797 22.4707 37.2695 22.6348C37.3594 22.7988 37.4941 22.9297 37.6738 23.0273C37.8574 23.1211 38.082 23.168 38.3477 23.168C38.6797 23.168 38.9727 23.0977 39.2266 22.957C39.4805 22.8164 39.6816 22.6445 39.8301 22.4414C39.9824 22.2383 40.0645 22.041 40.0762 21.8496L40.5391 22.3711C40.5117 22.5352 40.4375 22.7168 40.3164 22.916C40.1953 23.1152 40.0332 23.3066 39.8301 23.4902C39.6309 23.6699 39.3926 23.8203 39.1152 23.9414C38.8418 24.0586 38.5332 24.1172 38.1895 24.1172C37.7598 24.1172 37.3828 24.0332 37.0586 23.8652C36.7383 23.6973 36.4883 23.4727 36.3086 23.1914C36.1328 22.9062 36.0449 22.5879 36.0449 22.2363C36.0449 21.8965 36.1113 21.5977 36.2441 21.3398C36.377 21.0781 36.5684 20.8613 36.8184 20.6895C37.0684 20.5137 37.3691 20.3809 37.7207 20.291C38.0723 20.2012 38.4648 20.1562 38.8984 20.1562H40.1582ZM43.8438 18.6562V24H42.7598V17.6602H43.8145L43.8438 18.6562ZM45.8242 17.625L45.8184 18.6328C45.7285 18.6133 45.6426 18.6016 45.5605 18.5977C45.4824 18.5898 45.3926 18.5859 45.291 18.5859C45.041 18.5859 44.8203 18.625 44.6289 18.7031C44.4375 18.7812 44.2754 18.8906 44.1426 19.0312C44.0098 19.1719 43.9043 19.3398 43.8262 19.5352C43.752 19.7266 43.7031 19.9375 43.6797 20.168L43.375 20.3438C43.375 19.9609 43.4121 19.6016 43.4863 19.2656C43.5645 18.9297 43.6836 18.6328 43.8438 18.375C44.0039 18.1133 44.207 17.9102 44.4531 17.7656C44.7031 17.6172 45 17.543 45.3438 17.543C45.4219 17.543 45.5117 17.5527 45.6133 17.5723C45.7148 17.5879 45.7852 17.6055 45.8242 17.625ZM4.01172 37.2266C4.26953 37.2266 4.50781 37.1738 4.72656 37.0684C4.94531 36.9629 5.125 36.8184 5.26562 36.6348C5.40625 36.4473 5.48633 36.2344 5.50586 35.9961H6.53711C6.51758 36.3711 6.39062 36.7207 6.15625 37.0449C5.92578 37.3652 5.62305 37.625 5.24805 37.8242C4.87305 38.0195 4.46094 38.1172 4.01172 38.1172C3.53516 38.1172 3.11914 38.0332 2.76367 37.8652C2.41211 37.6973 2.11914 37.4668 1.88477 37.1738C1.6543 36.8809 1.48047 36.5449 1.36328 36.166C1.25 35.7832 1.19336 35.3789 1.19336 34.9531V34.707C1.19336 34.2812 1.25 33.8789 1.36328 33.5C1.48047 33.1172 1.6543 32.7793 1.88477 32.4863C2.11914 32.1934 2.41211 31.9629 2.76367 31.7949C3.11914 31.627 3.53516 31.543 4.01172 31.543C4.50781 31.543 4.94141 31.6445 5.3125 31.8477C5.68359 32.0469 5.97461 32.3203 6.18555 32.668C6.40039 33.0117 6.51758 33.4023 6.53711 33.8398H5.50586C5.48633 33.5781 5.41211 33.3418 5.2832 33.1309C5.1582 32.9199 4.98633 32.752 4.76758 32.627C4.55273 32.498 4.30078 32.4336 4.01172 32.4336C3.67969 32.4336 3.40039 32.5 3.17383 32.6328C2.95117 32.7617 2.77344 32.9375 2.64062 33.1602C2.51172 33.3789 2.41797 33.623 2.35938 33.8926C2.30469 34.1582 2.27734 34.4297 2.27734 34.707V34.9531C2.27734 35.2305 2.30469 35.5039 2.35938 35.7734C2.41406 36.043 2.50586 36.2871 2.63477 36.5059C2.76758 36.7246 2.94531 36.9004 3.16797 37.0332C3.39453 37.1621 3.67578 37.2266 4.01172 37.2266ZM8.83984 29V38H7.75586V29H8.83984ZM8.58203 34.5898L8.13086 34.5723C8.13477 34.1387 8.19922 33.7383 8.32422 33.3711C8.44922 33 8.625 32.6777 8.85156 32.4043C9.07812 32.1309 9.34766 31.9199 9.66016 31.7715C9.97656 31.6191 10.3262 31.543 10.709 31.543C11.0215 31.543 11.3027 31.5859 11.5527 31.6719C11.8027 31.7539 12.0156 31.8867 12.1914 32.0703C12.3711 32.2539 12.5078 32.4922 12.6016 32.7852C12.6953 33.0742 12.7422 33.4277 12.7422 33.8457V38H11.6523V33.834C11.6523 33.502 11.6035 33.2363 11.5059 33.0371C11.4082 32.834 11.2656 32.6875 11.0781 32.5977C10.8906 32.5039 10.6602 32.457 10.3867 32.457C10.1172 32.457 9.87109 32.5137 9.64844 32.627C9.42969 32.7402 9.24023 32.8965 9.08008 33.0957C8.92383 33.2949 8.80078 33.5234 8.71094 33.7812C8.625 34.0352 8.58203 34.3047 8.58203 34.5898ZM18.1035 36.916V33.6523C18.1035 33.4023 18.0527 33.1855 17.9512 33.002C17.8535 32.8145 17.7051 32.6699 17.5059 32.5684C17.3066 32.4668 17.0605 32.416 16.7676 32.416C16.4941 32.416 16.2539 32.4629 16.0469 32.5566C15.8438 32.6504 15.6836 32.7734 15.5664 32.9258C15.4531 33.0781 15.3965 33.2422 15.3965 33.418H14.3125C14.3125 33.1914 14.3711 32.9668 14.4883 32.7441C14.6055 32.5215 14.7734 32.3203 14.9922 32.1406C15.2148 31.957 15.4805 31.8125 15.7891 31.707C16.1016 31.5977 16.4492 31.543 16.832 31.543C17.293 31.543 17.6992 31.6211 18.0508 31.7773C18.4062 31.9336 18.6836 32.1699 18.8828 32.4863C19.0859 32.7988 19.1875 33.1914 19.1875 33.6641V36.6172C19.1875 36.8281 19.2051 37.0527 19.2402 37.291C19.2793 37.5293 19.3359 37.7344 19.4102 37.9062V38H18.2793C18.2246 37.875 18.1816 37.709 18.1504 37.502C18.1191 37.291 18.1035 37.0957 18.1035 36.916ZM18.291 34.1562L18.3027 34.918H17.207C16.8984 34.918 16.623 34.9434 16.3809 34.9941C16.1387 35.041 15.9355 35.1133 15.7715 35.2109C15.6074 35.3086 15.4824 35.4316 15.3965 35.5801C15.3105 35.7246 15.2676 35.8945 15.2676 36.0898C15.2676 36.2891 15.3125 36.4707 15.4023 36.6348C15.4922 36.7988 15.627 36.9297 15.8066 37.0273C15.9902 37.1211 16.2148 37.168 16.4805 37.168C16.8125 37.168 17.1055 37.0977 17.3594 36.957C17.6133 36.8164 17.8145 36.6445 17.9629 36.4414C18.1152 36.2383 18.1973 36.041 18.209 35.8496L18.6719 36.3711C18.6445 36.5352 18.5703 36.7168 18.4492 36.916C18.3281 37.1152 18.166 37.3066 17.9629 37.4902C17.7637 37.6699 17.5254 37.8203 17.248 37.9414C16.9746 38.0586 16.666 38.1172 16.3223 38.1172C15.8926 38.1172 15.5156 38.0332 15.1914 37.8652C14.8711 37.6973 14.6211 37.4727 14.4414 37.1914C14.2656 36.9062 14.1777 36.5879 14.1777 36.2363C14.1777 35.8965 14.2441 35.5977 14.377 35.3398C14.5098 35.0781 14.7012 34.8613 14.9512 34.6895C15.2012 34.5137 15.502 34.3809 15.8535 34.291C16.2051 34.2012 16.5977 34.1562 17.0312 34.1562H18.291ZM21.9766 33.0137V38H20.8926V31.6602H21.918L21.9766 33.0137ZM21.7188 34.5898L21.2676 34.5723C21.2715 34.1387 21.3359 33.7383 21.4609 33.3711C21.5859 33 21.7617 32.6777 21.9883 32.4043C22.2148 32.1309 22.4844 31.9199 22.7969 31.7715C23.1133 31.6191 23.4629 31.543 23.8457 31.543C24.1582 31.543 24.4395 31.5859 24.6895 31.6719C24.9395 31.7539 25.1523 31.8867 25.3281 32.0703C25.5078 32.2539 25.6445 32.4922 25.7383 32.7852C25.832 33.0742 25.8789 33.4277 25.8789 33.8457V38H24.7891V33.834C24.7891 33.502 24.7402 33.2363 24.6426 33.0371C24.5449 32.834 24.4023 32.6875 24.2148 32.5977C24.0273 32.5039 23.7969 32.457 23.5234 32.457C23.2539 32.457 23.0078 32.5137 22.7852 32.627C22.5664 32.7402 22.377 32.8965 22.2168 33.0957C22.0605 33.2949 21.9375 33.5234 21.8477 33.7812C21.7617 34.0352 21.7188 34.3047 21.7188 34.5898ZM31.6328 31.6602H32.6172V37.8652C32.6172 38.4238 32.5039 38.9004 32.2773 39.2949C32.0508 39.6895 31.7344 39.9883 31.3281 40.1914C30.9258 40.3984 30.4609 40.502 29.9336 40.502C29.7148 40.502 29.457 40.4668 29.1602 40.3965C28.8672 40.3301 28.5781 40.2148 28.293 40.0508C28.0117 39.8906 27.7754 39.6738 27.584 39.4004L28.1523 38.7559C28.418 39.0762 28.6953 39.2988 28.9844 39.4238C29.2773 39.5488 29.5664 39.6113 29.8516 39.6113C30.1953 39.6113 30.4922 39.5469 30.7422 39.418C30.9922 39.2891 31.1855 39.0977 31.3223 38.8438C31.4629 38.5938 31.5332 38.2852 31.5332 37.918V33.0547L31.6328 31.6602ZM27.2676 34.9004V34.7773C27.2676 34.293 27.3242 33.8535 27.4375 33.459C27.5547 33.0605 27.7207 32.7188 27.9355 32.4336C28.1543 32.1484 28.418 31.9297 28.7266 31.7773C29.0352 31.6211 29.3828 31.543 29.7695 31.543C30.168 31.543 30.5156 31.6133 30.8125 31.7539C31.1133 31.8906 31.3672 32.0918 31.5742 32.3574C31.7852 32.6191 31.9512 32.9355 32.0723 33.3066C32.1934 33.6777 32.2773 34.0977 32.3242 34.5664V35.1055C32.2812 35.5703 32.1973 35.9883 32.0723 36.3594C31.9512 36.7305 31.7852 37.0469 31.5742 37.3086C31.3672 37.5703 31.1133 37.7715 30.8125 37.9121C30.5117 38.0488 30.1602 38.1172 29.7578 38.1172C29.3789 38.1172 29.0352 38.0371 28.7266 37.877C28.4219 37.7168 28.1602 37.4922 27.9414 37.2031C27.7227 36.9141 27.5547 36.5742 27.4375 36.1836C27.3242 35.7891 27.2676 35.3613 27.2676 34.9004ZM28.3516 34.7773V34.9004C28.3516 35.2168 28.3828 35.5137 28.4453 35.791C28.5117 36.0684 28.6113 36.3125 28.7441 36.5234C28.8809 36.7344 29.0547 36.9004 29.2656 37.0215C29.4766 37.1387 29.7285 37.1973 30.0215 37.1973C30.3809 37.1973 30.6777 37.1211 30.9121 36.9688C31.1465 36.8164 31.332 36.6152 31.4688 36.3652C31.6094 36.1152 31.7188 35.8438 31.7969 35.5508V34.1387C31.7539 33.9238 31.6875 33.7168 31.5977 33.5176C31.5117 33.3145 31.3984 33.1348 31.2578 32.9785C31.1211 32.8184 30.9512 32.6914 30.748 32.5977C30.5449 32.5039 30.3066 32.457 30.0332 32.457C29.7363 32.457 29.4805 32.5195 29.2656 32.6445C29.0547 32.7656 28.8809 32.9336 28.7441 33.1484C28.6113 33.3594 28.5117 33.6055 28.4453 33.8867C28.3828 34.1641 28.3516 34.4609 28.3516 34.7773ZM36.8945 38.1172C36.4531 38.1172 36.0527 38.043 35.6934 37.8945C35.3379 37.7422 35.0312 37.5293 34.7734 37.2559C34.5195 36.9824 34.3242 36.6582 34.1875 36.2832C34.0508 35.9082 33.9824 35.498 33.9824 35.0527V34.8066C33.9824 34.291 34.0586 33.832 34.2109 33.4297C34.3633 33.0234 34.5703 32.6797 34.832 32.3984C35.0938 32.1172 35.3906 31.9043 35.7227 31.7598C36.0547 31.6152 36.3984 31.543 36.7539 31.543C37.207 31.543 37.5977 31.6211 37.9258 31.7773C38.2578 31.9336 38.5293 32.1523 38.7402 32.4336C38.9512 32.7109 39.1074 33.0391 39.209 33.418C39.3105 33.793 39.3613 34.2031 39.3613 34.6484V35.1348H34.627V34.25H38.2773V34.168C38.2617 33.8867 38.2031 33.6133 38.1016 33.3477C38.0039 33.082 37.8477 32.8633 37.6328 32.6914C37.418 32.5195 37.125 32.4336 36.7539 32.4336C36.5078 32.4336 36.2812 32.4863 36.0742 32.5918C35.8672 32.6934 35.6895 32.8457 35.541 33.0488C35.3926 33.252 35.2773 33.5 35.1953 33.793C35.1133 34.0859 35.0723 34.4238 35.0723 34.8066V35.0527C35.0723 35.3535 35.1133 35.6367 35.1953 35.9023C35.2812 36.1641 35.4043 36.3945 35.5645 36.5938C35.7285 36.793 35.9258 36.9492 36.1562 37.0625C36.3906 37.1758 36.6562 37.2324 36.9531 37.2324C37.3359 37.2324 37.6602 37.1543 37.9258 36.998C38.1914 36.8418 38.4238 36.6328 38.623 36.3711L39.2793 36.8926C39.1426 37.0996 38.9688 37.2969 38.7578 37.4844C38.5469 37.6719 38.2871 37.8242 37.9785 37.9414C37.6738 38.0586 37.3125 38.1172 36.8945 38.1172ZM44.3184 36.3184C44.3184 36.1621 44.2832 36.0176 44.2129 35.8848C44.1465 35.748 44.0078 35.625 43.7969 35.5156C43.5898 35.4023 43.2773 35.3047 42.8594 35.2227C42.5078 35.1484 42.1895 35.0605 41.9043 34.959C41.623 34.8574 41.3828 34.7344 41.1836 34.5898C40.9883 34.4453 40.8379 34.2754 40.7324 34.0801C40.627 33.8848 40.5742 33.6562 40.5742 33.3945C40.5742 33.1445 40.6289 32.9082 40.7383 32.6855C40.8516 32.4629 41.0098 32.2656 41.2129 32.0938C41.4199 31.9219 41.668 31.7871 41.957 31.6895C42.2461 31.5918 42.5684 31.543 42.9238 31.543C43.4316 31.543 43.8652 31.6328 44.2246 31.8125C44.584 31.9922 44.8594 32.2324 45.0508 32.5332C45.2422 32.8301 45.3379 33.1602 45.3379 33.5234H44.2539C44.2539 33.3477 44.2012 33.1777 44.0957 33.0137C43.9941 32.8457 43.8438 32.707 43.6445 32.5977C43.4492 32.4883 43.209 32.4336 42.9238 32.4336C42.623 32.4336 42.3789 32.4805 42.1914 32.5742C42.0078 32.6641 41.873 32.7793 41.7871 32.9199C41.7051 33.0605 41.6641 33.209 41.6641 33.3652C41.6641 33.4824 41.6836 33.5879 41.7227 33.6816C41.7656 33.7715 41.8398 33.8555 41.9453 33.9336C42.0508 34.0078 42.1992 34.0781 42.3906 34.1445C42.582 34.2109 42.8262 34.2773 43.123 34.3438C43.6426 34.4609 44.0703 34.6016 44.4062 34.7656C44.7422 34.9297 44.9922 35.1309 45.1562 35.3691C45.3203 35.6074 45.4023 35.8965 45.4023 36.2363C45.4023 36.5137 45.3438 36.7676 45.2266 36.998C45.1133 37.2285 44.9473 37.4277 44.7285 37.5957C44.5137 37.7598 44.2559 37.8887 43.9551 37.9824C43.6582 38.0723 43.3242 38.1172 42.9531 38.1172C42.3945 38.1172 41.9219 38.0176 41.5352 37.8184C41.1484 37.6191 40.8555 37.3613 40.6562 37.0449C40.457 36.7285 40.3574 36.3945 40.3574 36.043H41.4473C41.4629 36.3398 41.5488 36.5762 41.7051 36.752C41.8613 36.9238 42.0527 37.0469 42.2793 37.1211C42.5059 37.1914 42.7305 37.2266 42.9531 37.2266C43.25 37.2266 43.498 37.1875 43.6973 37.1094C43.9004 37.0312 44.0547 36.9238 44.1602 36.7871C44.2656 36.6504 44.3184 36.4941 44.3184 36.3184Z" fill="#9C9D9E"/>
<path d="M31.666 54.2012H32.4395C32.8184 54.2012 33.1309 54.1387 33.377 54.0137C33.627 53.8848 33.8125 53.7109 33.9336 53.4922C34.0586 53.2695 34.1211 53.0195 34.1211 52.7422C34.1211 52.4141 34.0664 52.1387 33.957 51.916C33.8477 51.6934 33.6836 51.5254 33.4648 51.4121C33.2461 51.2988 32.9688 51.2422 32.6328 51.2422C32.3281 51.2422 32.0586 51.3027 31.8242 51.4238C31.5938 51.541 31.4121 51.709 31.2793 51.9277C31.1504 52.1465 31.0859 52.4043 31.0859 52.7012H30.002C30.002 52.2676 30.1113 51.873 30.3301 51.5176C30.5488 51.1621 30.8555 50.8789 31.25 50.668C31.6484 50.457 32.1094 50.3516 32.6328 50.3516C33.1484 50.3516 33.5996 50.4434 33.9863 50.627C34.373 50.8066 34.6738 51.0762 34.8887 51.4355C35.1035 51.791 35.2109 52.2344 35.2109 52.7656C35.2109 52.9805 35.1602 53.2109 35.0586 53.457C34.9609 53.6992 34.8066 53.9258 34.5957 54.1367C34.3887 54.3477 34.1191 54.5215 33.7871 54.6582C33.4551 54.791 33.0566 54.8574 32.5918 54.8574H31.666V54.2012ZM31.666 55.0918V54.4414H32.5918C33.1348 54.4414 33.584 54.5059 33.9395 54.6348C34.2949 54.7637 34.5742 54.9355 34.7773 55.1504C34.9844 55.3652 35.1289 55.6016 35.2109 55.8594C35.2969 56.1133 35.3398 56.3672 35.3398 56.6211C35.3398 57.0195 35.2715 57.373 35.1348 57.6816C35.002 57.9902 34.8125 58.252 34.5664 58.4668C34.3242 58.6816 34.0391 58.8438 33.7109 58.9531C33.3828 59.0625 33.0254 59.1172 32.6387 59.1172C32.2676 59.1172 31.918 59.0645 31.5898 58.959C31.2656 58.8535 30.9785 58.7012 30.7285 58.502C30.4785 58.2988 30.2832 58.0508 30.1426 57.7578C30.002 57.4609 29.9316 57.123 29.9316 56.7441H31.0156C31.0156 57.041 31.0801 57.3008 31.209 57.5234C31.3418 57.7461 31.5293 57.9199 31.7715 58.0449C32.0176 58.166 32.3066 58.2266 32.6387 58.2266C32.9707 58.2266 33.2559 58.1699 33.4941 58.0566C33.7363 57.9395 33.9219 57.7637 34.0508 57.5293C34.1836 57.2949 34.25 57 34.25 56.6445C34.25 56.2891 34.1758 55.998 34.0273 55.7715C33.8789 55.541 33.668 55.3711 33.3945 55.2617C33.125 55.1484 32.8066 55.0918 32.4395 55.0918H31.666ZM39.207 54.9277V55.8184H36.3477V54.9277H39.207ZM42.0488 58.3438L43.8125 52.6602H44.9727L42.4297 59.9785C42.3711 60.1348 42.293 60.3027 42.1953 60.4824C42.1016 60.666 41.9805 60.8398 41.832 61.0039C41.6836 61.168 41.5039 61.3008 41.293 61.4023C41.0859 61.5078 40.8379 61.5605 40.5488 61.5605C40.4629 61.5605 40.3535 61.5488 40.2207 61.5254C40.0879 61.502 39.9941 61.4824 39.9395 61.4668L39.9336 60.5879C39.9648 60.5918 40.0137 60.5957 40.0801 60.5996C40.1504 60.6074 40.1992 60.6113 40.2266 60.6113C40.4727 60.6113 40.6816 60.5781 40.8535 60.5117C41.0254 60.4492 41.1699 60.3418 41.2871 60.1895C41.4082 60.041 41.5117 59.8359 41.5977 59.5742L42.0488 58.3438ZM40.7539 52.6602L42.4004 57.582L42.6816 58.7246L41.9023 59.123L39.5703 52.6602H40.7539ZM48.5 59.1172C48.0586 59.1172 47.6582 59.043 47.2988 58.8945C46.9434 58.7422 46.6367 58.5293 46.3789 58.2559C46.125 57.9824 45.9297 57.6582 45.793 57.2832C45.6562 56.9082 45.5879 56.498 45.5879 56.0527V55.8066C45.5879 55.291 45.6641 54.832 45.8164 54.4297C45.9688 54.0234 46.1758 53.6797 46.4375 53.3984C46.6992 53.1172 46.9961 52.9043 47.3281 52.7598C47.6602 52.6152 48.0039 52.543 48.3594 52.543C48.8125 52.543 49.2031 52.6211 49.5312 52.7773C49.8633 52.9336 50.1348 53.1523 50.3457 53.4336C50.5566 53.7109 50.7129 54.0391 50.8145 54.418C50.916 54.793 50.9668 55.2031 50.9668 55.6484V56.1348H46.2324V55.25H49.8828V55.168C49.8672 54.8867 49.8086 54.6133 49.707 54.3477C49.6094 54.082 49.4531 53.8633 49.2383 53.6914C49.0234 53.5195 48.7305 53.4336 48.3594 53.4336C48.1133 53.4336 47.8867 53.4863 47.6797 53.5918C47.4727 53.6934 47.2949 53.8457 47.1465 54.0488C46.998 54.252 46.8828 54.5 46.8008 54.793C46.7188 55.0859 46.6777 55.4238 46.6777 55.8066V56.0527C46.6777 56.3535 46.7188 56.6367 46.8008 56.9023C46.8867 57.1641 47.0098 57.3945 47.1699 57.5938C47.334 57.793 47.5312 57.9492 47.7617 58.0625C47.9961 58.1758 48.2617 58.2324 48.5586 58.2324C48.9414 58.2324 49.2656 58.1543 49.5312 57.998C49.7969 57.8418 50.0293 57.6328 50.2285 57.3711L50.8848 57.8926C50.748 58.0996 50.5742 58.2969 50.3633 58.4844C50.1523 58.6719 49.8926 58.8242 49.584 58.9414C49.2793 59.0586 48.918 59.1172 48.5 59.1172ZM55.9707 57.916V54.6523C55.9707 54.4023 55.9199 54.1855 55.8184 54.002C55.7207 53.8145 55.5723 53.6699 55.373 53.5684C55.1738 53.4668 54.9277 53.416 54.6348 53.416C54.3613 53.416 54.1211 53.4629 53.9141 53.5566C53.7109 53.6504 53.5508 53.7734 53.4336 53.9258C53.3203 54.0781 53.2637 54.2422 53.2637 54.418H52.1797C52.1797 54.1914 52.2383 53.9668 52.3555 53.7441C52.4727 53.5215 52.6406 53.3203 52.8594 53.1406C53.082 52.957 53.3477 52.8125 53.6562 52.707C53.9688 52.5977 54.3164 52.543 54.6992 52.543C55.1602 52.543 55.5664 52.6211 55.918 52.7773C56.2734 52.9336 56.5508 53.1699 56.75 53.4863C56.9531 53.7988 57.0547 54.1914 57.0547 54.6641V57.6172C57.0547 57.8281 57.0723 58.0527 57.1074 58.291C57.1465 58.5293 57.2031 58.7344 57.2773 58.9062V59H56.1465C56.0918 58.875 56.0488 58.709 56.0176 58.502C55.9863 58.291 55.9707 58.0957 55.9707 57.916ZM56.1582 55.1562L56.1699 55.918H55.0742C54.7656 55.918 54.4902 55.9434 54.248 55.9941C54.0059 56.041 53.8027 56.1133 53.6387 56.2109C53.4746 56.3086 53.3496 56.4316 53.2637 56.5801C53.1777 56.7246 53.1348 56.8945 53.1348 57.0898C53.1348 57.2891 53.1797 57.4707 53.2695 57.6348C53.3594 57.7988 53.4941 57.9297 53.6738 58.0273C53.8574 58.1211 54.082 58.168 54.3477 58.168C54.6797 58.168 54.9727 58.0977 55.2266 57.957C55.4805 57.8164 55.6816 57.6445 55.8301 57.4414C55.9824 57.2383 56.0645 57.041 56.0762 56.8496L56.5391 57.3711C56.5117 57.5352 56.4375 57.7168 56.3164 57.916C56.1953 58.1152 56.0332 58.3066 55.8301 58.4902C55.6309 58.6699 55.3926 58.8203 55.1152 58.9414C54.8418 59.0586 54.5332 59.1172 54.1895 59.1172C53.7598 59.1172 53.3828 59.0332 53.0586 58.8652C52.7383 58.6973 52.4883 58.4727 52.3086 58.1914C52.1328 57.9062 52.0449 57.5879 52.0449 57.2363C52.0449 56.8965 52.1113 56.5977 52.2441 56.3398C52.377 56.0781 52.5684 55.8613 52.8184 55.6895C53.0684 55.5137 53.3691 55.3809 53.7207 55.291C54.0723 55.2012 54.4648 55.1562 54.8984 55.1562H56.1582ZM59.8438 53.6562V59H58.7598V52.6602H59.8145L59.8438 53.6562ZM61.8242 52.625L61.8184 53.6328C61.7285 53.6133 61.6426 53.6016 61.5605 53.5977C61.4824 53.5898 61.3926 53.5859 61.291 53.5859C61.041 53.5859 60.8203 53.625 60.6289 53.7031C60.4375 53.7812 60.2754 53.8906 60.1426 54.0312C60.0098 54.1719 59.9043 54.3398 59.8262 54.5352C59.752 54.7266 59.7031 54.9375 59.6797 55.168L59.375 55.3438C59.375 54.9609 59.4121 54.6016 59.4863 54.2656C59.5645 53.9297 59.6836 53.6328 59.8438 53.375C60.0039 53.1133 60.207 52.9102 60.4531 52.7656C60.7031 52.6172 61 52.543 61.3438 52.543C61.4219 52.543 61.5117 52.5527 61.6133 52.5723C61.7148 52.5879 61.7852 52.6055 61.8242 52.625ZM4.34375 67.8789V75.4375H3.25391V66.6602H4.25L4.34375 67.8789ZM8.61523 69.7773V69.9004C8.61523 70.3613 8.56055 70.7891 8.45117 71.1836C8.3418 71.5742 8.18164 71.9141 7.9707 72.2031C7.76367 72.4922 7.50781 72.7168 7.20312 72.877C6.89844 73.0371 6.54883 73.1172 6.1543 73.1172C5.75195 73.1172 5.39648 73.0508 5.08789 72.918C4.7793 72.7852 4.51758 72.5918 4.30273 72.3379C4.08789 72.084 3.91602 71.7793 3.78711 71.4238C3.66211 71.0684 3.57617 70.668 3.5293 70.2227V69.5664C3.57617 69.0977 3.66406 68.6777 3.79297 68.3066C3.92188 67.9355 4.0918 67.6191 4.30273 67.3574C4.51758 67.0918 4.77734 66.8906 5.08203 66.7539C5.38672 66.6133 5.73828 66.543 6.13672 66.543C6.53516 66.543 6.88867 66.6211 7.19727 66.7773C7.50586 66.9297 7.76562 67.1484 7.97656 67.4336C8.1875 67.7188 8.3457 68.0605 8.45117 68.459C8.56055 68.8535 8.61523 69.293 8.61523 69.7773ZM7.52539 69.9004V69.7773C7.52539 69.4609 7.49219 69.1641 7.42578 68.8867C7.35938 68.6055 7.25586 68.3594 7.11523 68.1484C6.97852 67.9336 6.80273 67.7656 6.58789 67.6445C6.37305 67.5195 6.11719 67.457 5.82031 67.457C5.54688 67.457 5.30859 67.5039 5.10547 67.5977C4.90625 67.6914 4.73633 67.8184 4.5957 67.9785C4.45508 68.1348 4.33984 68.3145 4.25 68.5176C4.16406 68.7168 4.09961 68.9238 4.05664 69.1387V70.6562C4.13477 70.9297 4.24414 71.1875 4.38477 71.4297C4.52539 71.668 4.71289 71.8613 4.94727 72.0098C5.18164 72.1543 5.47656 72.2266 5.83203 72.2266C6.125 72.2266 6.37695 72.166 6.58789 72.0449C6.80273 71.9199 6.97852 71.75 7.11523 71.5352C7.25586 71.3203 7.35938 71.0742 7.42578 70.7969C7.49219 70.5156 7.52539 70.2168 7.52539 69.9004ZM11.082 67.6562V73H9.99805V66.6602H11.0527L11.082 67.6562ZM13.0625 66.625L13.0566 67.6328C12.9668 67.6133 12.8809 67.6016 12.7988 67.5977C12.7207 67.5898 12.6309 67.5859 12.5293 67.5859C12.2793 67.5859 12.0586 67.625 11.8672 67.7031C11.6758 67.7812 11.5137 67.8906 11.3809 68.0312C11.248 68.1719 11.1426 68.3398 11.0645 68.5352C10.9902 68.7266 10.9414 68.9375 10.918 69.168L10.6133 69.3438C10.6133 68.9609 10.6504 68.6016 10.7246 68.2656C10.8027 67.9297 10.9219 67.6328 11.082 67.375C11.2422 67.1133 11.4453 66.9102 11.6914 66.7656C11.9414 66.6172 12.2383 66.543 12.582 66.543C12.6602 66.543 12.75 66.5527 12.8516 66.5723C12.9531 66.5879 13.0234 66.6055 13.0625 66.625ZM13.6602 69.9004V69.7656C13.6602 69.3086 13.7266 68.8848 13.8594 68.4941C13.9922 68.0996 14.1836 67.7578 14.4336 67.4688C14.6836 67.1758 14.9863 66.9492 15.3418 66.7891C15.6973 66.625 16.0957 66.543 16.5371 66.543C16.9824 66.543 17.3828 66.625 17.7383 66.7891C18.0977 66.9492 18.4023 67.1758 18.6523 67.4688C18.9062 67.7578 19.0996 68.0996 19.2324 68.4941C19.3652 68.8848 19.4316 69.3086 19.4316 69.7656V69.9004C19.4316 70.3574 19.3652 70.7812 19.2324 71.1719C19.0996 71.5625 18.9062 71.9043 18.6523 72.1973C18.4023 72.4863 18.0996 72.7129 17.7441 72.877C17.3926 73.0371 16.9941 73.1172 16.5488 73.1172C16.1035 73.1172 15.7031 73.0371 15.3477 72.877C14.9922 72.7129 14.6875 72.4863 14.4336 72.1973C14.1836 71.9043 13.9922 71.5625 13.8594 71.1719C13.7266 70.7812 13.6602 70.3574 13.6602 69.9004ZM14.7441 69.7656V69.9004C14.7441 70.2168 14.7812 70.5156 14.8555 70.7969C14.9297 71.0742 15.041 71.3203 15.1895 71.5352C15.3418 71.75 15.5312 71.9199 15.7578 72.0449C15.9844 72.166 16.248 72.2266 16.5488 72.2266C16.8457 72.2266 17.1055 72.166 17.3281 72.0449C17.5547 71.9199 17.7422 71.75 17.8906 71.5352C18.0391 71.3203 18.1504 71.0742 18.2246 70.7969C18.3027 70.5156 18.3418 70.2168 18.3418 69.9004V69.7656C18.3418 69.4531 18.3027 69.1582 18.2246 68.8809C18.1504 68.5996 18.0371 68.3516 17.8848 68.1367C17.7363 67.918 17.5488 67.7461 17.3223 67.6211C17.0996 67.4961 16.8379 67.4336 16.5371 67.4336C16.2402 67.4336 15.9785 67.4961 15.752 67.6211C15.5293 67.7461 15.3418 67.918 15.1895 68.1367C15.041 68.3516 14.9297 68.5996 14.8555 68.8809C14.7812 69.1582 14.7441 69.4531 14.7441 69.7656ZM20.8203 66.6602H21.9102V73.7559C21.9102 74.1426 21.8477 74.4707 21.7227 74.7402C21.6016 75.0098 21.418 75.2129 21.1719 75.3496C20.9297 75.4902 20.623 75.5605 20.252 75.5605C20.1543 75.5605 20.041 75.5508 19.9121 75.5312C19.7793 75.5117 19.668 75.4883 19.5781 75.4609L19.584 74.5879C19.6582 74.6035 19.7422 74.6152 19.8359 74.623C19.9297 74.6348 20.0117 74.6406 20.082 74.6406C20.2422 74.6406 20.377 74.6113 20.4863 74.5527C20.5957 74.4941 20.6777 74.4004 20.7324 74.2715C20.791 74.1426 20.8203 73.9707 20.8203 73.7559V66.6602ZM20.709 64.9785C20.709 64.8027 20.7637 64.6543 20.873 64.5332C20.9824 64.4121 21.1406 64.3516 21.3477 64.3516C21.5586 64.3516 21.7188 64.4121 21.8281 64.5332C21.9375 64.6543 21.9922 64.8027 21.9922 64.9785C21.9922 65.1465 21.9375 65.291 21.8281 65.4121C21.7188 65.5293 21.5586 65.5879 21.3477 65.5879C21.1406 65.5879 20.9824 65.5293 20.873 65.4121C20.7637 65.291 20.709 65.1465 20.709 64.9785ZM26.293 73.1172C25.8516 73.1172 25.4512 73.043 25.0918 72.8945C24.7363 72.7422 24.4297 72.5293 24.1719 72.2559C23.918 71.9824 23.7227 71.6582 23.5859 71.2832C23.4492 70.9082 23.3809 70.498 23.3809 70.0527V69.8066C23.3809 69.291 23.457 68.832 23.6094 68.4297C23.7617 68.0234 23.9688 67.6797 24.2305 67.3984C24.4922 67.1172 24.7891 66.9043 25.1211 66.7598C25.4531 66.6152 25.7969 66.543 26.1523 66.543C26.6055 66.543 26.9961 66.6211 27.3242 66.7773C27.6562 66.9336 27.9277 67.1523 28.1387 67.4336C28.3496 67.7109 28.5059 68.0391 28.6074 68.418C28.709 68.793 28.7598 69.2031 28.7598 69.6484V70.1348H24.0254V69.25H27.6758V69.168C27.6602 68.8867 27.6016 68.6133 27.5 68.3477C27.4023 68.082 27.2461 67.8633 27.0312 67.6914C26.8164 67.5195 26.5234 67.4336 26.1523 67.4336C25.9062 67.4336 25.6797 67.4863 25.4727 67.5918C25.2656 67.6934 25.0879 67.8457 24.9395 68.0488C24.791 68.252 24.6758 68.5 24.5938 68.793C24.5117 69.0859 24.4707 69.4238 24.4707 69.8066V70.0527C24.4707 70.3535 24.5117 70.6367 24.5938 70.9023C24.6797 71.1641 24.8027 71.3945 24.9629 71.5938C25.127 71.793 25.3242 71.9492 25.5547 72.0625C25.7891 72.1758 26.0547 72.2324 26.3516 72.2324C26.7344 72.2324 27.0586 72.1543 27.3242 71.998C27.5898 71.8418 27.8223 71.6328 28.0215 71.3711L28.6777 71.8926C28.541 72.0996 28.3672 72.2969 28.1562 72.4844C27.9453 72.6719 27.6855 72.8242 27.377 72.9414C27.0723 73.0586 26.7109 73.1172 26.293 73.1172ZM32.5625 72.2266C32.8203 72.2266 33.0586 72.1738 33.2773 72.0684C33.4961 71.9629 33.6758 71.8184 33.8164 71.6348C33.957 71.4473 34.0371 71.2344 34.0566 70.9961H35.0879C35.0684 71.3711 34.9414 71.7207 34.707 72.0449C34.4766 72.3652 34.1738 72.625 33.7988 72.8242C33.4238 73.0195 33.0117 73.1172 32.5625 73.1172C32.0859 73.1172 31.6699 73.0332 31.3145 72.8652C30.9629 72.6973 30.6699 72.4668 30.4355 72.1738C30.2051 71.8809 30.0312 71.5449 29.9141 71.166C29.8008 70.7832 29.7441 70.3789 29.7441 69.9531V69.707C29.7441 69.2812 29.8008 68.8789 29.9141 68.5C30.0312 68.1172 30.2051 67.7793 30.4355 67.4863C30.6699 67.1934 30.9629 66.9629 31.3145 66.7949C31.6699 66.627 32.0859 66.543 32.5625 66.543C33.0586 66.543 33.4922 66.6445 33.8633 66.8477C34.2344 67.0469 34.5254 67.3203 34.7363 67.668C34.9512 68.0117 35.0684 68.4023 35.0879 68.8398H34.0566C34.0371 68.5781 33.9629 68.3418 33.834 68.1309C33.709 67.9199 33.5371 67.752 33.3184 67.627C33.1035 67.498 32.8516 67.4336 32.5625 67.4336C32.2305 67.4336 31.9512 67.5 31.7246 67.6328C31.502 67.7617 31.3242 67.9375 31.1914 68.1602C31.0625 68.3789 30.9688 68.623 30.9102 68.8926C30.8555 69.1582 30.8281 69.4297 30.8281 69.707V69.9531C30.8281 70.2305 30.8555 70.5039 30.9102 70.7734C30.9648 71.043 31.0566 71.2871 31.1855 71.5059C31.3184 71.7246 31.4961 71.9004 31.7188 72.0332C31.9453 72.1621 32.2266 72.2266 32.5625 72.2266ZM38.9609 66.6602V67.4922H35.5332V66.6602H38.9609ZM36.6934 65.1191H37.7773V71.4297C37.7773 71.6445 37.8105 71.8066 37.877 71.916C37.9434 72.0254 38.0293 72.0977 38.1348 72.1328C38.2402 72.168 38.3535 72.1855 38.4746 72.1855C38.5645 72.1855 38.6582 72.1777 38.7559 72.1621C38.8574 72.1426 38.9336 72.127 38.9844 72.1152L38.9902 73C38.9043 73.0273 38.791 73.0527 38.6504 73.0762C38.5137 73.1035 38.3477 73.1172 38.1523 73.1172C37.8867 73.1172 37.6426 73.0645 37.4199 72.959C37.1973 72.8535 37.0195 72.6777 36.8867 72.4316C36.7578 72.1816 36.6934 71.8457 36.6934 71.4238V65.1191ZM41.4102 66.6602V73H40.3203V66.6602H41.4102ZM40.2383 64.9785C40.2383 64.8027 40.291 64.6543 40.3965 64.5332C40.5059 64.4121 40.666 64.3516 40.877 64.3516C41.084 64.3516 41.2422 64.4121 41.3516 64.5332C41.4648 64.6543 41.5215 64.8027 41.5215 64.9785C41.5215 65.1465 41.4648 65.291 41.3516 65.4121C41.2422 65.5293 41.084 65.5879 40.877 65.5879C40.666 65.5879 40.5059 65.5293 40.3965 65.4121C40.291 65.291 40.2383 65.1465 40.2383 64.9785ZM42.8633 69.9004V69.7656C42.8633 69.3086 42.9297 68.8848 43.0625 68.4941C43.1953 68.0996 43.3867 67.7578 43.6367 67.4688C43.8867 67.1758 44.1895 66.9492 44.5449 66.7891C44.9004 66.625 45.2988 66.543 45.7402 66.543C46.1855 66.543 46.5859 66.625 46.9414 66.7891C47.3008 66.9492 47.6055 67.1758 47.8555 67.4688C48.1094 67.7578 48.3027 68.0996 48.4355 68.4941C48.5684 68.8848 48.6348 69.3086 48.6348 69.7656V69.9004C48.6348 70.3574 48.5684 70.7812 48.4355 71.1719C48.3027 71.5625 48.1094 71.9043 47.8555 72.1973C47.6055 72.4863 47.3027 72.7129 46.9473 72.877C46.5957 73.0371 46.1973 73.1172 45.752 73.1172C45.3066 73.1172 44.9062 73.0371 44.5508 72.877C44.1953 72.7129 43.8906 72.4863 43.6367 72.1973C43.3867 71.9043 43.1953 71.5625 43.0625 71.1719C42.9297 70.7812 42.8633 70.3574 42.8633 69.9004ZM43.9473 69.7656V69.9004C43.9473 70.2168 43.9844 70.5156 44.0586 70.7969C44.1328 71.0742 44.2441 71.3203 44.3926 71.5352C44.5449 71.75 44.7344 71.9199 44.9609 72.0449C45.1875 72.166 45.4512 72.2266 45.752 72.2266C46.0488 72.2266 46.3086 72.166 46.5312 72.0449C46.7578 71.9199 46.9453 71.75 47.0938 71.5352C47.2422 71.3203 47.3535 71.0742 47.4277 70.7969C47.5059 70.5156 47.5449 70.2168 47.5449 69.9004V69.7656C47.5449 69.4531 47.5059 69.1582 47.4277 68.8809C47.3535 68.5996 47.2402 68.3516 47.0879 68.1367C46.9395 67.918 46.752 67.7461 46.5254 67.6211C46.3027 67.4961 46.041 67.4336 45.7402 67.4336C45.4434 67.4336 45.1816 67.4961 44.9551 67.6211C44.7324 67.7461 44.5449 67.918 44.3926 68.1367C44.2441 68.3516 44.1328 68.5996 44.0586 68.8809C43.9844 69.1582 43.9473 69.4531 43.9473 69.7656ZM51.0781 68.0137V73H49.9941V66.6602H51.0195L51.0781 68.0137ZM50.8203 69.5898L50.3691 69.5723C50.373 69.1387 50.4375 68.7383 50.5625 68.3711C50.6875 68 50.8633 67.6777 51.0898 67.4043C51.3164 67.1309 51.5859 66.9199 51.8984 66.7715C52.2148 66.6191 52.5645 66.543 52.9473 66.543C53.2598 66.543 53.541 66.5859 53.791 66.6719C54.041 66.7539 54.2539 66.8867 54.4297 67.0703C54.6094 67.2539 54.7461 67.4922 54.8398 67.7852C54.9336 68.0742 54.9805 68.4277 54.9805 68.8457V73H53.8906V68.834C53.8906 68.502 53.8418 68.2363 53.7441 68.0371C53.6465 67.834 53.5039 67.6875 53.3164 67.5977C53.1289 67.5039 52.8984 67.457 52.625 67.457C52.3555 67.457 52.1094 67.5137 51.8867 67.627C51.668 67.7402 51.4785 67.8965 51.3184 68.0957C51.1621 68.2949 51.0391 68.5234 50.9492 68.7812C50.8633 69.0352 50.8203 69.3047 50.8203 69.5898ZM60.3184 71.3184C60.3184 71.1621 60.2832 71.0176 60.2129 70.8848C60.1465 70.748 60.0078 70.625 59.7969 70.5156C59.5898 70.4023 59.2773 70.3047 58.8594 70.2227C58.5078 70.1484 58.1895 70.0605 57.9043 69.959C57.623 69.8574 57.3828 69.7344 57.1836 69.5898C56.9883 69.4453 56.8379 69.2754 56.7324 69.0801C56.627 68.8848 56.5742 68.6562 56.5742 68.3945C56.5742 68.1445 56.6289 67.9082 56.7383 67.6855C56.8516 67.4629 57.0098 67.2656 57.2129 67.0938C57.4199 66.9219 57.668 66.7871 57.957 66.6895C58.2461 66.5918 58.5684 66.543 58.9238 66.543C59.4316 66.543 59.8652 66.6328 60.2246 66.8125C60.584 66.9922 60.8594 67.2324 61.0508 67.5332C61.2422 67.8301 61.3379 68.1602 61.3379 68.5234H60.2539C60.2539 68.3477 60.2012 68.1777 60.0957 68.0137C59.9941 67.8457 59.8438 67.707 59.6445 67.5977C59.4492 67.4883 59.209 67.4336 58.9238 67.4336C58.623 67.4336 58.3789 67.4805 58.1914 67.5742C58.0078 67.6641 57.873 67.7793 57.7871 67.9199C57.7051 68.0605 57.6641 68.209 57.6641 68.3652C57.6641 68.4824 57.6836 68.5879 57.7227 68.6816C57.7656 68.7715 57.8398 68.8555 57.9453 68.9336C58.0508 69.0078 58.1992 69.0781 58.3906 69.1445C58.582 69.2109 58.8262 69.2773 59.123 69.3438C59.6426 69.4609 60.0703 69.6016 60.4062 69.7656C60.7422 69.9297 60.9922 70.1309 61.1562 70.3691C61.3203 70.6074 61.4023 70.8965 61.4023 71.2363C61.4023 71.5137 61.3438 71.7676 61.2266 71.998C61.1133 72.2285 60.9473 72.4277 60.7285 72.5957C60.5137 72.7598 60.2559 72.8887 59.9551 72.9824C59.6582 73.0723 59.3242 73.1172 58.9531 73.1172C58.3945 73.1172 57.9219 73.0176 57.5352 72.8184C57.1484 72.6191 56.8555 72.3613 56.6562 72.0449C56.457 71.7285 56.3574 71.3945 56.3574 71.043H57.4473C57.4629 71.3398 57.5488 71.5762 57.7051 71.752C57.8613 71.9238 58.0527 72.0469 58.2793 72.1211C58.5059 72.1914 58.7305 72.2266 58.9531 72.2266C59.25 72.2266 59.498 72.1875 59.6973 72.1094C59.9004 72.0312 60.0547 71.9238 60.1602 71.7871C60.2656 71.6504 60.3184 71.4941 60.3184 71.3184Z" fill="black"/>
<path d="M61 10L56 7.11325V12.8868L61 10ZM49 10.5L56.5 10.5V9.5L49 9.5V10.5Z" fill="#9C9D9E"/>
<path d="M74 30L69.7873 33.9479L75.3127 35.6223L74 30ZM64.4785 63.145L73.1735 34.4516L72.2165 34.1616L63.5215 62.855L64.4785 63.145Z" fill="black"/>
<path d="M81.1006 20.851C82.7436 22.8227 79.2226 25.9419 78 27.5557V2C78.884 3.76797 83.7241 5.62008 83.7241 7.75982C83.7241 10.571 82.7797 11.3157 81.7101 13.7224C81.0539 15.1988 79.8765 19.3821 81.1006 20.851Z" fill="#020203"/>
<line x1="78.2241" y1="1.99778" x2="78.5" y2="63.9978" stroke="#9C9D9E"/>
<path d="M72.59 71.372V72.394H73.738C75.11 72.394 75.838 73.052 75.838 74.2V74.312C75.838 75.46 75.11 76.118 73.738 76.118C72.548 76.118 71.974 75.6 71.47 74.83L70.588 75.502C71.19 76.342 72.058 77.168 73.752 77.168C75.74 77.168 77.07 76.006 77.07 74.326C77.07 72.856 76.062 72.072 75.012 71.862V71.806C76.048 71.54 76.888 70.784 76.888 69.524C76.888 67.942 75.572 67.06 73.92 67.06C72.352 67.06 71.498 67.872 71.008 68.656L71.876 69.328C72.282 68.586 72.884 68.11 73.892 68.11C74.928 68.11 75.642 68.628 75.642 69.65V69.748C75.642 70.686 74.97 71.372 73.654 71.372H72.59ZM82.4465 74.69L82.0545 75.866H81.9845L81.6485 74.69L79.9125 69.776H78.7925L81.4945 77.28L80.9485 78.82H79.8145V79.8H80.3885C81.4525 79.8 81.7465 79.548 82.0685 78.68L85.3025 69.776H84.1965L82.4465 74.69Z" fill="#9C9D9E"/>
</svg>
