<svg width="109" height="80" viewBox="0 0 109 80" fill="none" xmlns="http://www.w3.org/2000/svg">
<path d="M24.9077 1.17969H27.4966C28.0838 1.17969 28.5798 1.26921 28.9844 1.44824C29.3926 1.62728 29.7023 1.89225 29.9136 2.24316C30.1284 2.59049 30.2358 3.01839 30.2358 3.52686C30.2358 3.88493 30.1624 4.21257 30.0156 4.50977C29.8724 4.80339 29.6647 5.05404 29.3926 5.26172C29.124 5.46582 28.8018 5.618 28.4258 5.71826L28.1357 5.83105H25.7026L25.6919 4.98779H27.5288C27.9012 4.98779 28.2109 4.92334 28.458 4.79443C28.7051 4.66195 28.8913 4.4847 29.0166 4.2627C29.1419 4.04069 29.2046 3.79541 29.2046 3.52686C29.2046 3.22607 29.1455 2.96289 29.0273 2.7373C28.9092 2.51172 28.723 2.33805 28.4688 2.21631C28.2181 2.09098 27.894 2.02832 27.4966 2.02832H25.9443V9H24.9077V1.17969ZM29.4785 9L27.5771 5.45508L28.6567 5.44971L30.585 8.93555V9H29.4785ZM34.9624 8.00635V5.01465C34.9624 4.78548 34.9159 4.58675 34.8228 4.41846C34.7332 4.24658 34.5972 4.1141 34.4146 4.021C34.2319 3.9279 34.0063 3.88135 33.7378 3.88135C33.4871 3.88135 33.2669 3.92432 33.0771 4.01025C32.891 4.09619 32.7441 4.20898 32.6367 4.34863C32.5329 4.48828 32.481 4.63867 32.481 4.7998H31.4873C31.4873 4.59212 31.541 4.38623 31.6484 4.18213C31.7559 3.97803 31.9098 3.79362 32.1104 3.62891C32.3145 3.46061 32.5579 3.32812 32.8408 3.23145C33.1273 3.13118 33.446 3.08105 33.7969 3.08105C34.2194 3.08105 34.5918 3.15267 34.9141 3.2959C35.2399 3.43913 35.4941 3.65576 35.6768 3.9458C35.863 4.23226 35.9561 4.59212 35.9561 5.02539V7.73242C35.9561 7.92578 35.9722 8.13167 36.0044 8.3501C36.0402 8.56852 36.0921 8.75651 36.1602 8.91406V9H35.1235C35.0734 8.88542 35.034 8.73324 35.0054 8.54346C34.9767 8.3501 34.9624 8.17106 34.9624 8.00635ZM35.1343 5.47656L35.145 6.1748H34.1406C33.8577 6.1748 33.6053 6.19808 33.3833 6.24463C33.1613 6.2876 32.9751 6.35384 32.8247 6.44336C32.6743 6.53288 32.5597 6.64567 32.481 6.78174C32.4022 6.91423 32.3628 7.06999 32.3628 7.24902C32.3628 7.43164 32.404 7.59814 32.4863 7.74854C32.5687 7.89893 32.6922 8.01888 32.8569 8.1084C33.0252 8.19434 33.2311 8.2373 33.4746 8.2373C33.779 8.2373 34.0475 8.17285 34.2803 8.04395C34.513 7.91504 34.6974 7.75749 34.8335 7.57129C34.9731 7.38509 35.0483 7.20426 35.0591 7.02881L35.4834 7.50684C35.4583 7.65723 35.3903 7.82373 35.2793 8.00635C35.1683 8.18896 35.0197 8.36442 34.8335 8.53271C34.6509 8.69743 34.4325 8.83529 34.1782 8.94629C33.9276 9.05371 33.6447 9.10742 33.3296 9.10742C32.9357 9.10742 32.5902 9.03044 32.293 8.87646C31.9993 8.72249 31.7702 8.5166 31.6055 8.25879C31.4443 7.9974 31.3638 7.70557 31.3638 7.3833C31.3638 7.07178 31.4246 6.79785 31.5464 6.56152C31.6681 6.32161 31.8436 6.12288 32.0728 5.96533C32.3019 5.8042 32.5776 5.68245 32.8999 5.6001C33.2222 5.51774 33.582 5.47656 33.9795 5.47656H35.1343ZM38.5127 4.4292V9H37.519V3.18848H38.459L38.5127 4.4292ZM38.2764 5.87402L37.8628 5.85791C37.8664 5.46045 37.9255 5.09342 38.04 4.75684C38.1546 4.41667 38.3158 4.12126 38.5234 3.87061C38.7311 3.61995 38.9782 3.4266 39.2646 3.29053C39.5547 3.15088 39.8752 3.08105 40.2261 3.08105C40.5125 3.08105 40.7703 3.12044 40.9995 3.19922C41.2287 3.27441 41.4238 3.39616 41.585 3.56445C41.7497 3.73275 41.875 3.95117 41.9609 4.21973C42.0469 4.4847 42.0898 4.80876 42.0898 5.19189V9H41.0908V5.18115C41.0908 4.87679 41.0461 4.6333 40.9565 4.45068C40.867 4.26449 40.7363 4.13021 40.5645 4.04785C40.3926 3.96191 40.1813 3.91895 39.9307 3.91895C39.6836 3.91895 39.458 3.97087 39.2539 4.07471C39.0534 4.17855 38.8797 4.32178 38.7329 4.50439C38.5897 4.68701 38.4769 4.89648 38.3945 5.13281C38.3158 5.36556 38.2764 5.61263 38.2764 5.87402ZM47.3643 3.18848H48.2666V8.87646C48.2666 9.38851 48.1628 9.82536 47.9551 10.187C47.7474 10.5487 47.4574 10.8226 47.085 11.0088C46.7161 11.1986 46.29 11.2935 45.8066 11.2935C45.6061 11.2935 45.3698 11.2612 45.0977 11.1968C44.8291 11.1359 44.5641 11.0303 44.3027 10.8799C44.0449 10.7331 43.8283 10.5343 43.6528 10.2837L44.1738 9.69287C44.4173 9.98649 44.6715 10.1906 44.9365 10.3052C45.2051 10.4198 45.4701 10.4771 45.7314 10.4771C46.0465 10.4771 46.3187 10.418 46.5479 10.2998C46.777 10.1816 46.9543 10.0062 47.0796 9.77344C47.2085 9.54427 47.2729 9.26139 47.2729 8.9248V4.4668L47.3643 3.18848ZM43.3628 6.15869V6.0459C43.3628 5.60189 43.4147 5.19906 43.5186 4.8374C43.626 4.47217 43.7782 4.15885 43.9751 3.89746C44.1756 3.63607 44.4173 3.43555 44.7002 3.2959C44.9831 3.15267 45.3018 3.08105 45.6562 3.08105C46.0215 3.08105 46.3402 3.14551 46.6123 3.27441C46.888 3.39974 47.1208 3.58415 47.3105 3.82764C47.5039 4.06755 47.6561 4.35758 47.7671 4.69775C47.8781 5.03792 47.9551 5.42285 47.998 5.85254V6.34668C47.9587 6.77279 47.8817 7.15592 47.7671 7.49609C47.6561 7.83626 47.5039 8.1263 47.3105 8.36621C47.1208 8.60612 46.888 8.79053 46.6123 8.91943C46.3366 9.04476 46.0143 9.10742 45.6455 9.10742C45.2982 9.10742 44.9831 9.03402 44.7002 8.88721C44.4209 8.7404 44.181 8.53451 43.9805 8.26953C43.7799 8.00456 43.626 7.69303 43.5186 7.33496C43.4147 6.97331 43.3628 6.58122 43.3628 6.15869ZM44.3564 6.0459V6.15869C44.3564 6.44873 44.3851 6.72087 44.4424 6.9751C44.5033 7.22933 44.5946 7.45312 44.7163 7.64648C44.8416 7.83984 45.001 7.99202 45.1943 8.10303C45.3877 8.21045 45.6187 8.26416 45.8872 8.26416C46.2166 8.26416 46.4888 8.19434 46.7036 8.05469C46.9185 7.91504 47.0885 7.73063 47.2139 7.50146C47.3428 7.2723 47.443 7.02344 47.5146 6.75488V5.46045C47.4753 5.26351 47.4144 5.07373 47.332 4.89111C47.2533 4.70492 47.1494 4.5402 47.0205 4.39697C46.8952 4.25016 46.7394 4.13379 46.5532 4.04785C46.367 3.96191 46.1486 3.91895 45.8979 3.91895C45.6258 3.91895 45.3913 3.97624 45.1943 4.09082C45.001 4.20182 44.8416 4.35579 44.7163 4.55273C44.5946 4.74609 44.5033 4.97168 44.4424 5.22949C44.3851 5.48372 44.3564 5.75586 44.3564 6.0459ZM52.1875 9.10742C51.7829 9.10742 51.4159 9.03939 51.0864 8.90332C50.7606 8.76367 50.4795 8.56852 50.2432 8.31787C50.0104 8.06722 49.8314 7.77002 49.7061 7.42627C49.5807 7.08252 49.5181 6.70654 49.5181 6.29834V6.07275C49.5181 5.6001 49.5879 5.17936 49.7275 4.81055C49.8672 4.43815 50.057 4.12305 50.2969 3.86523C50.5368 3.60742 50.8089 3.41227 51.1133 3.27979C51.4176 3.1473 51.7327 3.08105 52.0586 3.08105C52.474 3.08105 52.832 3.15267 53.1328 3.2959C53.4372 3.43913 53.686 3.63965 53.8794 3.89746C54.0728 4.15169 54.216 4.45247 54.3091 4.7998C54.4022 5.14355 54.4487 5.51953 54.4487 5.92773V6.37354H50.1089V5.5625H53.4551V5.4873C53.4408 5.22949 53.387 4.97884 53.2939 4.73535C53.2044 4.49186 53.0612 4.29134 52.8643 4.13379C52.6673 3.97624 52.3988 3.89746 52.0586 3.89746C51.833 3.89746 51.6253 3.9458 51.4355 4.04248C51.2458 4.13558 51.0828 4.27523 50.9468 4.46143C50.8107 4.64762 50.7051 4.875 50.6299 5.14355C50.5547 5.41211 50.5171 5.72184 50.5171 6.07275V6.29834C50.5171 6.57406 50.5547 6.83366 50.6299 7.07715C50.7087 7.31706 50.8215 7.52832 50.9683 7.71094C51.1187 7.89355 51.2995 8.03678 51.5107 8.14062C51.7256 8.24447 51.9691 8.29639 52.2412 8.29639C52.5921 8.29639 52.8893 8.22477 53.1328 8.08154C53.3763 7.93831 53.5894 7.74674 53.772 7.50684L54.3735 7.98486C54.2482 8.17464 54.0889 8.35547 53.8955 8.52734C53.7021 8.69922 53.464 8.83887 53.1812 8.94629C52.9019 9.05371 52.5706 9.10742 52.1875 9.10742ZM58.0742 6.15869V6.03516C58.0742 5.61621 58.1351 5.2277 58.2568 4.86963C58.3786 4.50798 58.554 4.19466 58.7832 3.92969C59.0124 3.66113 59.2899 3.45345 59.6157 3.30664C59.9416 3.15625 60.3068 3.08105 60.7114 3.08105C61.1196 3.08105 61.4867 3.15625 61.8125 3.30664C62.1419 3.45345 62.4212 3.66113 62.6504 3.92969C62.8831 4.19466 63.0604 4.50798 63.1821 4.86963C63.3039 5.2277 63.3647 5.61621 63.3647 6.03516V6.15869C63.3647 6.57764 63.3039 6.96615 63.1821 7.32422C63.0604 7.68229 62.8831 7.99561 62.6504 8.26416C62.4212 8.52913 62.1437 8.73682 61.8179 8.88721C61.4956 9.03402 61.1304 9.10742 60.7222 9.10742C60.314 9.10742 59.9469 9.03402 59.6211 8.88721C59.2952 8.73682 59.016 8.52913 58.7832 8.26416C58.554 7.99561 58.3786 7.68229 58.2568 7.32422C58.1351 6.96615 58.0742 6.57764 58.0742 6.15869ZM59.0679 6.03516V6.15869C59.0679 6.44873 59.1019 6.72266 59.1699 6.98047C59.238 7.2347 59.34 7.46029 59.4761 7.65723C59.6157 7.85417 59.7894 8.00993 59.9971 8.12451C60.2048 8.23551 60.4465 8.29102 60.7222 8.29102C60.9943 8.29102 61.2324 8.23551 61.4365 8.12451C61.6442 8.00993 61.8161 7.85417 61.9521 7.65723C62.0882 7.46029 62.1903 7.2347 62.2583 6.98047C62.3299 6.72266 62.3657 6.44873 62.3657 6.15869V6.03516C62.3657 5.7487 62.3299 5.47835 62.2583 5.22412C62.1903 4.96631 62.0864 4.73893 61.9468 4.54199C61.8107 4.34147 61.6388 4.18392 61.4312 4.06934C61.2271 3.95475 60.9871 3.89746 60.7114 3.89746C60.4393 3.89746 60.1994 3.95475 59.9917 4.06934C59.7876 4.18392 59.6157 4.34147 59.4761 4.54199C59.34 4.73893 59.238 4.96631 59.1699 5.22412C59.1019 5.47835 59.0679 5.7487 59.0679 6.03516ZM66.0933 9H65.0996V2.57617C65.0996 2.15723 65.1748 1.80452 65.3252 1.51807C65.4792 1.22803 65.6994 1.0096 65.9858 0.862793C66.2723 0.712402 66.6125 0.637207 67.0063 0.637207C67.1209 0.637207 67.2355 0.644368 67.3501 0.658691C67.4683 0.673014 67.5828 0.694499 67.6938 0.723145L67.6401 1.53418C67.5649 1.51628 67.479 1.50374 67.3823 1.49658C67.2892 1.48942 67.1961 1.48584 67.103 1.48584C66.8918 1.48584 66.7091 1.52881 66.5552 1.61475C66.4048 1.6971 66.2902 1.81885 66.2114 1.97998C66.1326 2.14111 66.0933 2.33984 66.0933 2.57617V9ZM67.3286 3.18848V3.95117H64.1812V3.18848H67.3286ZM72.1572 4.30566V11.2344H71.1582V3.18848H72.0713L72.1572 4.30566ZM76.0728 6.0459V6.15869C76.0728 6.58122 76.0226 6.97331 75.9224 7.33496C75.8221 7.69303 75.6753 8.00456 75.4819 8.26953C75.2922 8.53451 75.0576 8.7404 74.7783 8.88721C74.499 9.03402 74.1785 9.10742 73.8169 9.10742C73.4481 9.10742 73.1222 9.04655 72.8394 8.9248C72.5565 8.80306 72.3166 8.62581 72.1196 8.39307C71.9227 8.16032 71.7651 7.88102 71.647 7.55518C71.5324 7.22933 71.4536 6.8623 71.4106 6.4541V5.85254C71.4536 5.42285 71.5342 5.03792 71.6523 4.69775C71.7705 4.35758 71.9263 4.06755 72.1196 3.82764C72.3166 3.58415 72.5547 3.39974 72.834 3.27441C73.1133 3.14551 73.4355 3.08105 73.8008 3.08105C74.166 3.08105 74.4901 3.15267 74.7729 3.2959C75.0558 3.43555 75.2939 3.63607 75.4873 3.89746C75.6807 4.15885 75.8257 4.47217 75.9224 4.8374C76.0226 5.19906 76.0728 5.60189 76.0728 6.0459ZM75.0737 6.15869V6.0459C75.0737 5.75586 75.0433 5.48372 74.9824 5.22949C74.9215 4.97168 74.8267 4.74609 74.6978 4.55273C74.5724 4.35579 74.4113 4.20182 74.2144 4.09082C74.0174 3.97624 73.7829 3.91895 73.5107 3.91895C73.2601 3.91895 73.0417 3.96191 72.8555 4.04785C72.6729 4.13379 72.5171 4.25016 72.3882 4.39697C72.2593 4.5402 72.1536 4.70492 72.0713 4.89111C71.9925 5.07373 71.9334 5.26351 71.894 5.46045V6.85156C71.9657 7.10221 72.0659 7.33854 72.1948 7.56055C72.3237 7.77897 72.4956 7.95622 72.7104 8.09229C72.9253 8.22477 73.1956 8.29102 73.5215 8.29102C73.79 8.29102 74.021 8.23551 74.2144 8.12451C74.4113 8.00993 74.5724 7.85417 74.6978 7.65723C74.8267 7.46029 74.9215 7.2347 74.9824 6.98047C75.0433 6.72266 75.0737 6.44873 75.0737 6.15869ZM80.7671 8.00635V5.01465C80.7671 4.78548 80.7205 4.58675 80.6274 4.41846C80.5379 4.24658 80.4019 4.1141 80.2192 4.021C80.0366 3.9279 79.811 3.88135 79.5425 3.88135C79.2918 3.88135 79.0716 3.92432 78.8818 4.01025C78.6956 4.09619 78.5488 4.20898 78.4414 4.34863C78.3376 4.48828 78.2856 4.63867 78.2856 4.7998H77.292C77.292 4.59212 77.3457 4.38623 77.4531 4.18213C77.5605 3.97803 77.7145 3.79362 77.915 3.62891C78.1191 3.46061 78.3626 3.32812 78.6455 3.23145C78.932 3.13118 79.2507 3.08105 79.6016 3.08105C80.0241 3.08105 80.3965 3.15267 80.7188 3.2959C81.0446 3.43913 81.2988 3.65576 81.4814 3.9458C81.6676 4.23226 81.7607 4.59212 81.7607 5.02539V7.73242C81.7607 7.92578 81.7769 8.13167 81.8091 8.3501C81.8449 8.56852 81.8968 8.75651 81.9648 8.91406V9H80.9282C80.8781 8.88542 80.8387 8.73324 80.8101 8.54346C80.7814 8.3501 80.7671 8.17106 80.7671 8.00635ZM80.939 5.47656L80.9497 6.1748H79.9453C79.6624 6.1748 79.41 6.19808 79.188 6.24463C78.966 6.2876 78.7798 6.35384 78.6294 6.44336C78.479 6.53288 78.3644 6.64567 78.2856 6.78174C78.2069 6.91423 78.1675 7.06999 78.1675 7.24902C78.1675 7.43164 78.2087 7.59814 78.291 7.74854C78.3734 7.89893 78.4969 8.01888 78.6616 8.1084C78.8299 8.19434 79.0358 8.2373 79.2793 8.2373C79.5837 8.2373 79.8522 8.17285 80.085 8.04395C80.3177 7.91504 80.5021 7.75749 80.6382 7.57129C80.7778 7.38509 80.853 7.20426 80.8638 7.02881L81.2881 7.50684C81.263 7.65723 81.195 7.82373 81.084 8.00635C80.973 8.18896 80.8244 8.36442 80.6382 8.53271C80.4556 8.69743 80.2371 8.83529 79.9829 8.94629C79.7323 9.05371 79.4494 9.10742 79.1343 9.10742C78.7404 9.10742 78.3949 9.03044 78.0977 8.87646C77.804 8.72249 77.5749 8.5166 77.4102 8.25879C77.249 7.9974 77.1685 7.70557 77.1685 7.3833C77.1685 7.07178 77.2293 6.79785 77.3511 6.56152C77.4728 6.32161 77.6483 6.12288 77.8774 5.96533C78.1066 5.8042 78.3823 5.68245 78.7046 5.6001C79.0269 5.51774 79.3867 5.47656 79.7842 5.47656H80.939ZM86.7075 7.4585C86.7075 7.31527 86.6753 7.18278 86.6108 7.06104C86.55 6.93571 86.4229 6.82292 86.2295 6.72266C86.0397 6.61882 85.7533 6.5293 85.3701 6.4541C85.0479 6.38607 84.756 6.3055 84.4946 6.2124C84.2368 6.1193 84.0166 6.00651 83.834 5.87402C83.6549 5.74154 83.5171 5.58577 83.4204 5.40674C83.3237 5.2277 83.2754 5.01823 83.2754 4.77832C83.2754 4.54915 83.3255 4.33252 83.4258 4.12842C83.5296 3.92432 83.6746 3.74349 83.8608 3.58594C84.0506 3.42839 84.278 3.30485 84.543 3.21533C84.8079 3.12581 85.1034 3.08105 85.4292 3.08105C85.8947 3.08105 86.2922 3.16341 86.6216 3.32812C86.951 3.49284 87.2035 3.71305 87.3789 3.98877C87.5544 4.2609 87.6421 4.56348 87.6421 4.89648H86.6484C86.6484 4.73535 86.6001 4.57959 86.5034 4.4292C86.4103 4.27523 86.2725 4.14811 86.0898 4.04785C85.9108 3.94759 85.6906 3.89746 85.4292 3.89746C85.1535 3.89746 84.9297 3.94043 84.7578 4.02637C84.5895 4.10872 84.466 4.21436 84.3872 4.34326C84.312 4.47217 84.2744 4.60824 84.2744 4.75146C84.2744 4.85889 84.2923 4.95557 84.3281 5.0415C84.3675 5.12386 84.4355 5.20085 84.5322 5.27246C84.6289 5.34049 84.765 5.40495 84.9404 5.46582C85.1159 5.52669 85.3397 5.58757 85.6118 5.64844C86.0881 5.75586 86.4801 5.88477 86.7881 6.03516C87.096 6.18555 87.3252 6.36995 87.4756 6.58838C87.626 6.8068 87.7012 7.07178 87.7012 7.3833C87.7012 7.63753 87.6475 7.87028 87.54 8.08154C87.4362 8.29281 87.284 8.47542 87.0835 8.62939C86.8866 8.77979 86.6502 8.89795 86.3745 8.98389C86.1024 9.06624 85.7962 9.10742 85.4561 9.10742C84.944 9.10742 84.5107 9.01611 84.1562 8.8335C83.8018 8.65088 83.5332 8.41455 83.3506 8.12451C83.168 7.83447 83.0767 7.52832 83.0767 7.20605H84.0757C84.09 7.47819 84.1688 7.69482 84.312 7.85596C84.4552 8.01351 84.6307 8.1263 84.8384 8.19434C85.0461 8.25879 85.252 8.29102 85.4561 8.29102C85.7282 8.29102 85.9556 8.25521 86.1382 8.18359C86.3244 8.11198 86.4658 8.01351 86.5625 7.88818C86.6592 7.76286 86.7075 7.61963 86.7075 7.4585ZM91.4395 3.18848V3.95117H88.2974V3.18848H91.4395ZM89.3608 1.77588H90.3545V7.56055C90.3545 7.75749 90.3849 7.90609 90.4458 8.00635C90.5067 8.10661 90.5854 8.17285 90.6821 8.20508C90.7788 8.2373 90.8826 8.25342 90.9937 8.25342C91.076 8.25342 91.1619 8.24626 91.2515 8.23193C91.3446 8.21403 91.4144 8.19971 91.4609 8.18896L91.4663 9C91.3875 9.02507 91.2837 9.04834 91.1548 9.06982C91.0295 9.09489 90.8773 9.10742 90.6982 9.10742C90.4548 9.10742 90.231 9.05908 90.0269 8.9624C89.8228 8.86572 89.6598 8.70459 89.5381 8.479C89.4199 8.24984 89.3608 7.94189 89.3608 7.55518V1.77588ZM26.1001 17.6011H26.8091C27.1564 17.6011 27.4429 17.5438 27.6685 17.4292C27.8976 17.311 28.0677 17.1517 28.1787 16.9512C28.2933 16.7471 28.3506 16.5179 28.3506 16.2637C28.3506 15.9629 28.3005 15.7104 28.2002 15.5063C28.0999 15.3022 27.9495 15.1483 27.749 15.0444C27.5485 14.9406 27.2943 14.8887 26.9863 14.8887C26.707 14.8887 26.46 14.9442 26.2451 15.0552C26.0339 15.1626 25.8674 15.3166 25.7456 15.5171C25.6274 15.7176 25.5684 15.9539 25.5684 16.2261H24.5747C24.5747 15.8286 24.675 15.467 24.8755 15.1411C25.076 14.8153 25.3571 14.5557 25.7188 14.3623C26.084 14.1689 26.5065 14.0723 26.9863 14.0723C27.459 14.0723 27.8726 14.1564 28.2271 14.3247C28.5815 14.4894 28.8573 14.7365 29.0542 15.0659C29.2511 15.3918 29.3496 15.7982 29.3496 16.2852C29.3496 16.4821 29.3031 16.6934 29.21 16.9189C29.1204 17.141 28.979 17.3486 28.7856 17.542C28.5959 17.7354 28.3488 17.8947 28.0444 18.02C27.7401 18.1418 27.3748 18.2026 26.9487 18.2026H26.1001V17.6011ZM26.1001 18.4175V17.8213H26.9487C27.4465 17.8213 27.8582 17.8804 28.1841 17.9985C28.5099 18.1167 28.766 18.2743 28.9521 18.4712C29.1419 18.6681 29.2744 18.8848 29.3496 19.1211C29.4284 19.3538 29.4678 19.5866 29.4678 19.8193C29.4678 20.1846 29.4051 20.5086 29.2798 20.7915C29.158 21.0744 28.9844 21.3143 28.7588 21.5112C28.5368 21.7082 28.2754 21.8568 27.9746 21.957C27.6738 22.0573 27.3462 22.1074 26.9917 22.1074C26.6515 22.1074 26.3311 22.0591 26.0303 21.9624C25.7331 21.8657 25.4699 21.7261 25.2407 21.5435C25.0116 21.3573 24.8325 21.1299 24.7036 20.8613C24.5747 20.5892 24.5103 20.2795 24.5103 19.9321H25.5039C25.5039 20.2043 25.563 20.4424 25.6812 20.6465C25.8029 20.8506 25.9748 21.0099 26.1968 21.1245C26.4224 21.2355 26.6873 21.291 26.9917 21.291C27.2961 21.291 27.5575 21.2391 27.7759 21.1353C27.9979 21.0278 28.168 20.8667 28.2861 20.6519C28.4079 20.437 28.4688 20.1667 28.4688 19.8408C28.4688 19.515 28.4007 19.2482 28.2646 19.0405C28.1286 18.8293 27.9352 18.6735 27.6846 18.5732C27.4375 18.4694 27.1457 18.4175 26.8091 18.4175H26.1001ZM33.0127 18.2671V19.0835H30.3916V18.2671H33.0127ZM34.9731 17.3433V22H33.9741V16.1885H34.9194L34.9731 17.3433ZM34.769 18.874L34.3071 18.8579C34.3107 18.4604 34.3626 18.0934 34.4629 17.7568C34.5632 17.4167 34.7118 17.1213 34.9087 16.8706C35.1056 16.62 35.3509 16.4266 35.6445 16.2905C35.9382 16.1509 36.2783 16.0811 36.665 16.0811C36.9372 16.0811 37.1878 16.1204 37.417 16.1992C37.6462 16.2744 37.8449 16.3944 38.0132 16.5591C38.1815 16.7238 38.3122 16.9351 38.4053 17.1929C38.4984 17.4507 38.5449 17.7622 38.5449 18.1274V22H37.5513V18.1758C37.5513 17.8714 37.4993 17.6279 37.3955 17.4453C37.2952 17.2627 37.152 17.1302 36.9658 17.0479C36.7796 16.9619 36.5612 16.9189 36.3105 16.9189C36.0169 16.9189 35.7716 16.9709 35.5747 17.0747C35.3778 17.1785 35.2202 17.3218 35.1021 17.5044C34.9839 17.687 34.8979 17.8965 34.8442 18.1328C34.7941 18.3656 34.769 18.6126 34.769 18.874ZM38.5342 18.3262L37.8682 18.5303C37.8717 18.2116 37.9237 17.9054 38.0239 17.6118C38.1278 17.3182 38.2764 17.0568 38.4697 16.8276C38.6667 16.5985 38.9084 16.4176 39.1948 16.2852C39.4813 16.1491 39.8089 16.0811 40.1777 16.0811C40.4893 16.0811 40.765 16.1222 41.0049 16.2046C41.2484 16.2869 41.4525 16.4141 41.6172 16.5859C41.7855 16.7542 41.9126 16.9709 41.9985 17.2358C42.0845 17.5008 42.1274 17.8159 42.1274 18.1812V22H41.1284V18.1704C41.1284 17.8446 41.0765 17.5921 40.9727 17.4131C40.8724 17.2305 40.7292 17.1034 40.543 17.0317C40.3604 16.9565 40.1419 16.9189 39.8877 16.9189C39.6693 16.9189 39.4759 16.9565 39.3076 17.0317C39.1393 17.1069 38.9979 17.2108 38.8833 17.3433C38.7687 17.4722 38.681 17.6208 38.6201 17.7891C38.5628 17.9574 38.5342 18.1364 38.5342 18.3262ZM43.3682 19.1587V19.0352C43.3682 18.6162 43.429 18.2277 43.5508 17.8696C43.6725 17.508 43.848 17.1947 44.0771 16.9297C44.3063 16.6611 44.5838 16.4535 44.9097 16.3066C45.2355 16.1562 45.6007 16.0811 46.0054 16.0811C46.4136 16.0811 46.7806 16.1562 47.1064 16.3066C47.4359 16.4535 47.7152 16.6611 47.9443 16.9297C48.1771 17.1947 48.3543 17.508 48.4761 17.8696C48.5978 18.2277 48.6587 18.6162 48.6587 19.0352V19.1587C48.6587 19.5776 48.5978 19.9661 48.4761 20.3242C48.3543 20.6823 48.1771 20.9956 47.9443 21.2642C47.7152 21.5291 47.4377 21.7368 47.1118 21.8872C46.7896 22.034 46.4243 22.1074 46.0161 22.1074C45.6079 22.1074 45.2409 22.034 44.915 21.8872C44.5892 21.7368 44.3099 21.5291 44.0771 21.2642C43.848 20.9956 43.6725 20.6823 43.5508 20.3242C43.429 19.9661 43.3682 19.5776 43.3682 19.1587ZM44.3618 19.0352V19.1587C44.3618 19.4487 44.3958 19.7227 44.4639 19.9805C44.5319 20.2347 44.634 20.4603 44.77 20.6572C44.9097 20.8542 45.0833 21.0099 45.291 21.1245C45.4987 21.2355 45.7404 21.291 46.0161 21.291C46.2882 21.291 46.5264 21.2355 46.7305 21.1245C46.9382 21.0099 47.11 20.8542 47.2461 20.6572C47.3822 20.4603 47.4842 20.2347 47.5522 19.9805C47.6239 19.7227 47.6597 19.4487 47.6597 19.1587V19.0352C47.6597 18.7487 47.6239 18.4784 47.5522 18.2241C47.4842 17.9663 47.3804 17.7389 47.2407 17.542C47.1047 17.3415 46.9328 17.1839 46.7251 17.0693C46.521 16.9548 46.2811 16.8975 46.0054 16.8975C45.7332 16.8975 45.4933 16.9548 45.2856 17.0693C45.0815 17.1839 44.9097 17.3415 44.77 17.542C44.634 17.7389 44.5319 17.9663 44.4639 18.2241C44.3958 18.4784 44.3618 18.7487 44.3618 19.0352ZM50.8984 17.4292V22H49.9048V16.1885H50.8447L50.8984 17.4292ZM50.6621 18.874L50.2485 18.8579C50.2521 18.4604 50.3112 18.0934 50.4258 17.7568C50.5404 17.4167 50.7015 17.1213 50.9092 16.8706C51.1169 16.62 51.3639 16.4266 51.6504 16.2905C51.9404 16.1509 52.2609 16.0811 52.6118 16.0811C52.8983 16.0811 53.1561 16.1204 53.3853 16.1992C53.6144 16.2744 53.8096 16.3962 53.9707 16.5645C54.1354 16.7327 54.2607 16.9512 54.3467 17.2197C54.4326 17.4847 54.4756 17.8088 54.4756 18.1919V22H53.4766V18.1812C53.4766 17.8768 53.4318 17.6333 53.3423 17.4507C53.2528 17.2645 53.1221 17.1302 52.9502 17.0479C52.7783 16.9619 52.5671 16.9189 52.3164 16.9189C52.0693 16.9189 51.8438 16.9709 51.6396 17.0747C51.4391 17.1785 51.2655 17.3218 51.1187 17.5044C50.9754 17.687 50.8626 17.8965 50.7803 18.1328C50.7015 18.3656 50.6621 18.6126 50.6621 18.874ZM58.418 16.1885V16.9512H55.2759V16.1885H58.418ZM56.3394 14.7759H57.333V20.5605C57.333 20.7575 57.3634 20.9061 57.4243 21.0063C57.4852 21.1066 57.564 21.1729 57.6606 21.2051C57.7573 21.2373 57.8612 21.2534 57.9722 21.2534C58.0545 21.2534 58.1405 21.2463 58.23 21.2319C58.3231 21.214 58.3929 21.1997 58.4395 21.189L58.4448 22C58.366 22.0251 58.2622 22.0483 58.1333 22.0698C58.008 22.0949 57.8558 22.1074 57.6768 22.1074C57.4333 22.1074 57.2095 22.0591 57.0054 21.9624C56.8013 21.8657 56.6383 21.7046 56.5166 21.479C56.3984 21.2498 56.3394 20.9419 56.3394 20.5552V14.7759ZM60.5771 13.75V22H59.5835V13.75H60.5771ZM60.3408 18.874L59.9272 18.8579C59.9308 18.4604 59.9899 18.0934 60.1045 17.7568C60.2191 17.4167 60.3802 17.1213 60.5879 16.8706C60.7956 16.62 61.0426 16.4266 61.3291 16.2905C61.6191 16.1509 61.9396 16.0811 62.2905 16.0811C62.577 16.0811 62.8348 16.1204 63.064 16.1992C63.2931 16.2744 63.4883 16.3962 63.6494 16.5645C63.8141 16.7327 63.9395 16.9512 64.0254 17.2197C64.1113 17.4847 64.1543 17.8088 64.1543 18.1919V22H63.1553V18.1812C63.1553 17.8768 63.1105 17.6333 63.021 17.4507C62.9315 17.2645 62.8008 17.1302 62.6289 17.0479C62.457 16.9619 62.2458 16.9189 61.9951 16.9189C61.748 16.9189 61.5225 16.9709 61.3184 17.0747C61.1178 17.1785 60.9442 17.3218 60.7974 17.5044C60.6541 17.687 60.5413 17.8965 60.459 18.1328C60.3802 18.3656 60.3408 18.6126 60.3408 18.874ZM70.6963 21.291C70.9326 21.291 71.151 21.2427 71.3516 21.146C71.5521 21.0493 71.7168 20.9168 71.8457 20.7485C71.9746 20.5767 72.048 20.3815 72.0659 20.1631H73.0112C72.9933 20.5068 72.877 20.8273 72.6621 21.1245C72.4508 21.4181 72.1733 21.6562 71.8296 21.8389C71.4858 22.0179 71.1081 22.1074 70.6963 22.1074C70.2594 22.1074 69.8781 22.0304 69.5522 21.8765C69.23 21.7225 68.9614 21.5112 68.7466 21.2427C68.5353 20.9741 68.376 20.6662 68.2686 20.3188C68.1647 19.9679 68.1128 19.5973 68.1128 19.207V18.9814C68.1128 18.5911 68.1647 18.2223 68.2686 17.875C68.376 17.5241 68.5353 17.2144 68.7466 16.9458C68.9614 16.6772 69.23 16.466 69.5522 16.312C69.8781 16.158 70.2594 16.0811 70.6963 16.0811C71.151 16.0811 71.5485 16.1742 71.8887 16.3604C72.2288 16.543 72.4956 16.7936 72.689 17.1123C72.8859 17.4274 72.9933 17.7855 73.0112 18.1865H72.0659C72.048 17.9466 71.98 17.73 71.8618 17.5366C71.7472 17.3433 71.5897 17.1893 71.3892 17.0747C71.1922 16.9565 70.9613 16.8975 70.6963 16.8975C70.3919 16.8975 70.1359 16.9583 69.9282 17.0801C69.7241 17.1982 69.5612 17.3594 69.4395 17.5635C69.3213 17.764 69.2354 17.9878 69.1816 18.2349C69.1315 18.4784 69.1064 18.7272 69.1064 18.9814V19.207C69.1064 19.4613 69.1315 19.7119 69.1816 19.959C69.2318 20.2061 69.3159 20.4299 69.4341 20.6304C69.5558 20.8309 69.7188 20.992 69.9229 21.1138C70.1305 21.2319 70.3883 21.291 70.6963 21.291ZM75.1221 13.75V22H74.1284V13.75H75.1221ZM74.8857 18.874L74.4722 18.8579C74.4757 18.4604 74.5348 18.0934 74.6494 17.7568C74.764 17.4167 74.9251 17.1213 75.1328 16.8706C75.3405 16.62 75.5876 16.4266 75.874 16.2905C76.1641 16.1509 76.4845 16.0811 76.8354 16.0811C77.1219 16.0811 77.3797 16.1204 77.6089 16.1992C77.8381 16.2744 78.0332 16.3962 78.1943 16.5645C78.359 16.7327 78.4844 16.9512 78.5703 17.2197C78.6562 17.4847 78.6992 17.8088 78.6992 18.1919V22H77.7002V18.1812C77.7002 17.8768 77.6554 17.6333 77.5659 17.4507C77.4764 17.2645 77.3457 17.1302 77.1738 17.0479C77.002 16.9619 76.7907 16.9189 76.54 16.9189C76.293 16.9189 76.0674 16.9709 75.8633 17.0747C75.6628 17.1785 75.4891 17.3218 75.3423 17.5044C75.1991 17.687 75.0863 17.8965 75.0039 18.1328C74.9251 18.3656 74.8857 18.6126 74.8857 18.874ZM83.6138 21.0063V18.0146C83.6138 17.7855 83.5672 17.5868 83.4741 17.4185C83.3846 17.2466 83.2485 17.1141 83.0659 17.021C82.8833 16.9279 82.6577 16.8813 82.3892 16.8813C82.1385 16.8813 81.9183 16.9243 81.7285 17.0103C81.5423 17.0962 81.3955 17.209 81.2881 17.3486C81.1842 17.4883 81.1323 17.6387 81.1323 17.7998H80.1387C80.1387 17.5921 80.1924 17.3862 80.2998 17.1821C80.4072 16.978 80.5612 16.7936 80.7617 16.6289C80.9658 16.4606 81.2093 16.3281 81.4922 16.2314C81.7786 16.1312 82.0973 16.0811 82.4482 16.0811C82.8708 16.0811 83.2432 16.1527 83.5654 16.2959C83.8913 16.4391 84.1455 16.6558 84.3281 16.9458C84.5143 17.2323 84.6074 17.5921 84.6074 18.0254V20.7324C84.6074 20.9258 84.6235 21.1317 84.6558 21.3501C84.6916 21.5685 84.7435 21.7565 84.8115 21.9141V22H83.7749C83.7248 21.8854 83.6854 21.7332 83.6567 21.5435C83.6281 21.3501 83.6138 21.1711 83.6138 21.0063ZM83.7856 18.4766L83.7964 19.1748H82.792C82.5091 19.1748 82.2567 19.1981 82.0347 19.2446C81.8127 19.2876 81.6265 19.3538 81.4761 19.4434C81.3257 19.5329 81.2111 19.6457 81.1323 19.7817C81.0535 19.9142 81.0142 20.07 81.0142 20.249C81.0142 20.4316 81.0553 20.5981 81.1377 20.7485C81.2201 20.8989 81.3436 21.0189 81.5083 21.1084C81.6766 21.1943 81.8825 21.2373 82.126 21.2373C82.4303 21.2373 82.6989 21.1729 82.9316 21.0439C83.1644 20.915 83.3488 20.7575 83.4849 20.5713C83.6245 20.3851 83.6997 20.2043 83.7104 20.0288L84.1348 20.5068C84.1097 20.6572 84.0417 20.8237 83.9307 21.0063C83.8197 21.189 83.6711 21.3644 83.4849 21.5327C83.3022 21.6974 83.0838 21.8353 82.8296 21.9463C82.5789 22.0537 82.2961 22.1074 81.981 22.1074C81.5871 22.1074 81.2415 22.0304 80.9443 21.8765C80.6507 21.7225 80.4215 21.5166 80.2568 21.2588C80.0957 20.9974 80.0151 20.7056 80.0151 20.3833C80.0151 20.0718 80.076 19.7979 80.1978 19.5615C80.3195 19.3216 80.495 19.1229 80.7241 18.9653C80.9533 18.8042 81.229 18.6825 81.5513 18.6001C81.8735 18.5177 82.2334 18.4766 82.6309 18.4766H83.7856ZM87.1641 17.4292V22H86.1704V16.1885H87.1104L87.1641 17.4292ZM86.9277 18.874L86.5142 18.8579C86.5177 18.4604 86.5768 18.0934 86.6914 17.7568C86.806 17.4167 86.9671 17.1213 87.1748 16.8706C87.3825 16.62 87.6296 16.4266 87.916 16.2905C88.2061 16.1509 88.5265 16.0811 88.8774 16.0811C89.1639 16.0811 89.4217 16.1204 89.6509 16.1992C89.88 16.2744 90.0752 16.3962 90.2363 16.5645C90.401 16.7327 90.5264 16.9512 90.6123 17.2197C90.6982 17.4847 90.7412 17.8088 90.7412 18.1919V22H89.7422V18.1812C89.7422 17.8768 89.6974 17.6333 89.6079 17.4507C89.5184 17.2645 89.3877 17.1302 89.2158 17.0479C89.0439 16.9619 88.8327 16.9189 88.582 16.9189C88.335 16.9189 88.1094 16.9709 87.9053 17.0747C87.7048 17.1785 87.5311 17.3218 87.3843 17.5044C87.241 17.687 87.1283 17.8965 87.0459 18.1328C86.9671 18.3656 86.9277 18.6126 86.9277 18.874ZM96.0156 16.1885H96.918V21.8765C96.918 22.3885 96.8141 22.8254 96.6064 23.187C96.3988 23.5487 96.1087 23.8226 95.7363 24.0088C95.3675 24.1986 94.9414 24.2935 94.458 24.2935C94.2575 24.2935 94.0212 24.2612 93.749 24.1968C93.4805 24.1359 93.2155 24.0303 92.9541 23.8799C92.6963 23.7331 92.4797 23.5343 92.3042 23.2837L92.8252 22.6929C93.0687 22.9865 93.3229 23.1906 93.5879 23.3052C93.8564 23.4198 94.1214 23.4771 94.3828 23.4771C94.6979 23.4771 94.9701 23.418 95.1992 23.2998C95.4284 23.1816 95.6056 23.0062 95.731 22.7734C95.8599 22.5443 95.9243 22.2614 95.9243 21.9248V17.4668L96.0156 16.1885ZM92.0142 19.1587V19.0459C92.0142 18.6019 92.0661 18.1991 92.1699 17.8374C92.2773 17.4722 92.4295 17.1589 92.6265 16.8975C92.827 16.6361 93.0687 16.4355 93.3516 16.2959C93.6344 16.1527 93.9531 16.0811 94.3076 16.0811C94.6729 16.0811 94.9915 16.1455 95.2637 16.2744C95.5394 16.3997 95.7721 16.5841 95.9619 16.8276C96.1553 17.0675 96.3075 17.3576 96.4185 17.6978C96.5295 18.0379 96.6064 18.4229 96.6494 18.8525V19.3467C96.61 19.7728 96.533 20.1559 96.4185 20.4961C96.3075 20.8363 96.1553 21.1263 95.9619 21.3662C95.7721 21.6061 95.5394 21.7905 95.2637 21.9194C94.988 22.0448 94.6657 22.1074 94.2969 22.1074C93.9495 22.1074 93.6344 22.034 93.3516 21.8872C93.0723 21.7404 92.8324 21.5345 92.6318 21.2695C92.4313 21.0046 92.2773 20.693 92.1699 20.335C92.0661 19.9733 92.0142 19.5812 92.0142 19.1587ZM93.0078 19.0459V19.1587C93.0078 19.4487 93.0365 19.7209 93.0938 19.9751C93.1546 20.2293 93.2459 20.4531 93.3677 20.6465C93.493 20.8398 93.6523 20.992 93.8457 21.103C94.0391 21.2104 94.27 21.2642 94.5386 21.2642C94.868 21.2642 95.1401 21.1943 95.355 21.0547C95.5698 20.915 95.7399 20.7306 95.8652 20.5015C95.9941 20.2723 96.0944 20.0234 96.166 19.7549V18.4604C96.1266 18.2635 96.0658 18.0737 95.9834 17.8911C95.9046 17.7049 95.8008 17.5402 95.6719 17.397C95.5465 17.2502 95.3908 17.1338 95.2046 17.0479C95.0184 16.9619 94.8 16.9189 94.5493 16.9189C94.2772 16.9189 94.0426 16.9762 93.8457 17.0908C93.6523 17.2018 93.493 17.3558 93.3677 17.5527C93.2459 17.7461 93.1546 17.9717 93.0938 18.2295C93.0365 18.4837 93.0078 18.7559 93.0078 19.0459ZM100.839 22.1074C100.434 22.1074 100.067 22.0394 99.7378 21.9033C99.4119 21.7637 99.1309 21.5685 98.8945 21.3179C98.6618 21.0672 98.4827 20.77 98.3574 20.4263C98.2321 20.0825 98.1694 19.7065 98.1694 19.2983V19.0728C98.1694 18.6001 98.2393 18.1794 98.3789 17.8105C98.5186 17.4382 98.7083 17.123 98.9482 16.8652C99.1882 16.6074 99.4603 16.4123 99.7646 16.2798C100.069 16.1473 100.384 16.0811 100.71 16.0811C101.125 16.0811 101.483 16.1527 101.784 16.2959C102.089 16.4391 102.337 16.6396 102.531 16.8975C102.724 17.1517 102.867 17.4525 102.96 17.7998C103.054 18.1436 103.1 18.5195 103.1 18.9277V19.3735H98.7603V18.5625H102.106V18.4873C102.092 18.2295 102.038 17.9788 101.945 17.7354C101.856 17.4919 101.713 17.2913 101.516 17.1338C101.319 16.9762 101.05 16.8975 100.71 16.8975C100.484 16.8975 100.277 16.9458 100.087 17.0425C99.8971 17.1356 99.7342 17.2752 99.5981 17.4614C99.4621 17.6476 99.3564 17.875 99.2812 18.1436C99.2061 18.4121 99.1685 18.7218 99.1685 19.0728V19.2983C99.1685 19.5741 99.2061 19.8337 99.2812 20.0771C99.36 20.3171 99.4728 20.5283 99.6196 20.7109C99.77 20.8936 99.9508 21.0368 100.162 21.1406C100.377 21.2445 100.62 21.2964 100.893 21.2964C101.243 21.2964 101.541 21.2248 101.784 21.0815C102.028 20.9383 102.241 20.7467 102.423 20.5068L103.025 20.9849C102.9 21.1746 102.74 21.3555 102.547 21.5273C102.354 21.6992 102.115 21.8389 101.833 21.9463C101.553 22.0537 101.222 22.1074 100.839 22.1074ZM107.644 20.4585C107.644 20.3153 107.612 20.1828 107.547 20.061C107.486 19.9357 107.359 19.8229 107.166 19.7227C106.976 19.6188 106.69 19.5293 106.307 19.4541C105.984 19.3861 105.693 19.3055 105.431 19.2124C105.173 19.1193 104.953 19.0065 104.771 18.874C104.591 18.7415 104.454 18.5858 104.357 18.4067C104.26 18.2277 104.212 18.0182 104.212 17.7783C104.212 17.5492 104.262 17.3325 104.362 17.1284C104.466 16.9243 104.611 16.7435 104.797 16.5859C104.987 16.4284 105.215 16.3049 105.479 16.2153C105.744 16.1258 106.04 16.0811 106.366 16.0811C106.831 16.0811 107.229 16.1634 107.558 16.3281C107.888 16.4928 108.14 16.7131 108.315 16.9888C108.491 17.2609 108.579 17.5635 108.579 17.8965H107.585C107.585 17.7354 107.537 17.5796 107.44 17.4292C107.347 17.2752 107.209 17.1481 107.026 17.0479C106.847 16.9476 106.627 16.8975 106.366 16.8975C106.09 16.8975 105.866 16.9404 105.694 17.0264C105.526 17.1087 105.403 17.2144 105.324 17.3433C105.249 17.4722 105.211 17.6082 105.211 17.7515C105.211 17.8589 105.229 17.9556 105.265 18.0415C105.304 18.1239 105.372 18.2008 105.469 18.2725C105.565 18.3405 105.701 18.4049 105.877 18.4658C106.052 18.5267 106.276 18.5876 106.548 18.6484C107.025 18.7559 107.417 18.8848 107.725 19.0352C108.033 19.1855 108.262 19.37 108.412 19.5884C108.562 19.8068 108.638 20.0718 108.638 20.3833C108.638 20.6375 108.584 20.8703 108.477 21.0815C108.373 21.2928 108.221 21.4754 108.02 21.6294C107.823 21.7798 107.587 21.8979 107.311 21.9839C107.039 22.0662 106.733 22.1074 106.393 22.1074C105.881 22.1074 105.447 22.0161 105.093 21.8335C104.738 21.6509 104.47 21.4146 104.287 21.1245C104.104 20.8345 104.013 20.5283 104.013 20.2061H105.012C105.027 20.4782 105.105 20.6948 105.249 20.856C105.392 21.0135 105.567 21.1263 105.775 21.1943C105.983 21.2588 106.188 21.291 106.393 21.291C106.665 21.291 106.892 21.2552 107.075 21.1836C107.261 21.112 107.402 21.0135 107.499 20.8882C107.596 20.7629 107.644 20.6196 107.644 20.4585Z" fill="#9C9D9E"/>
<path d="M29.3818 59.1797H30.4131V64.4702C30.4131 65.0575 30.2824 65.5462 30.021 65.9365C29.7596 66.3268 29.4123 66.6204 28.979 66.8174C28.5493 67.0107 28.082 67.1074 27.5771 67.1074C27.0472 67.1074 26.5674 67.0107 26.1377 66.8174C25.7116 66.6204 25.3732 66.3268 25.1226 65.9365C24.8755 65.5462 24.752 65.0575 24.752 64.4702V59.1797H25.7778V64.4702C25.7778 64.8784 25.853 65.215 26.0034 65.48C26.1538 65.745 26.3633 65.9419 26.6318 66.0708C26.904 66.1997 27.2191 66.2642 27.5771 66.2642C27.9388 66.2642 28.2539 66.1997 28.5225 66.0708C28.7946 65.9419 29.0059 65.745 29.1562 65.48C29.3066 65.215 29.3818 64.8784 29.3818 64.4702V59.1797ZM32.8838 62.4292V67H31.8901V61.1885H32.8301L32.8838 62.4292ZM32.6475 63.874L32.2339 63.8579C32.2375 63.4604 32.2965 63.0934 32.4111 62.7568C32.5257 62.4167 32.6868 62.1213 32.8945 61.8706C33.1022 61.62 33.3493 61.4266 33.6357 61.2905C33.9258 61.1509 34.2463 61.0811 34.5972 61.0811C34.8836 61.0811 35.1414 61.1204 35.3706 61.1992C35.5998 61.2744 35.7949 61.3962 35.9561 61.5645C36.1208 61.7327 36.2461 61.9512 36.332 62.2197C36.418 62.4847 36.4609 62.8088 36.4609 63.1919V67H35.4619V63.1812C35.4619 62.8768 35.4172 62.6333 35.3276 62.4507C35.2381 62.2645 35.1074 62.1302 34.9355 62.0479C34.7637 61.9619 34.5524 61.9189 34.3018 61.9189C34.0547 61.9189 33.8291 61.9709 33.625 62.0747C33.4245 62.1785 33.2508 62.3218 33.104 62.5044C32.9608 62.687 32.848 62.8965 32.7656 63.1328C32.6868 63.3656 32.6475 63.6126 32.6475 63.874ZM38.9639 62.3057V69.2344H37.9648V61.1885H38.8779L38.9639 62.3057ZM42.8794 64.0459V64.1587C42.8794 64.5812 42.8293 64.9733 42.729 65.335C42.6287 65.693 42.4819 66.0046 42.2886 66.2695C42.0988 66.5345 41.8643 66.7404 41.585 66.8872C41.3057 67.034 40.9852 67.1074 40.6235 67.1074C40.2547 67.1074 39.9289 67.0465 39.646 66.9248C39.3631 66.8031 39.1232 66.6258 38.9263 66.3931C38.7293 66.1603 38.5718 65.881 38.4536 65.5552C38.339 65.2293 38.2603 64.8623 38.2173 64.4541V63.8525C38.2603 63.4229 38.3408 63.0379 38.459 62.6978C38.5771 62.3576 38.7329 62.0675 38.9263 61.8276C39.1232 61.5841 39.3613 61.3997 39.6406 61.2744C39.9199 61.1455 40.2422 61.0811 40.6074 61.0811C40.9727 61.0811 41.2967 61.1527 41.5796 61.2959C41.8625 61.4355 42.1006 61.6361 42.2939 61.8975C42.4873 62.1589 42.6323 62.4722 42.729 62.8374C42.8293 63.1991 42.8794 63.6019 42.8794 64.0459ZM41.8804 64.1587V64.0459C41.8804 63.7559 41.8499 63.4837 41.7891 63.2295C41.7282 62.9717 41.6333 62.7461 41.5044 62.5527C41.3791 62.3558 41.2179 62.2018 41.021 62.0908C40.8241 61.9762 40.5895 61.9189 40.3174 61.9189C40.0667 61.9189 39.8483 61.9619 39.6621 62.0479C39.4795 62.1338 39.3237 62.2502 39.1948 62.397C39.0659 62.5402 38.9603 62.7049 38.8779 62.8911C38.7992 63.0737 38.7401 63.2635 38.7007 63.4604V64.8516C38.7723 65.1022 38.8726 65.3385 39.0015 65.5605C39.1304 65.779 39.3022 65.9562 39.5171 66.0923C39.7319 66.2248 40.0023 66.291 40.3281 66.291C40.5967 66.291 40.8276 66.2355 41.021 66.1245C41.2179 66.0099 41.3791 65.8542 41.5044 65.6572C41.6333 65.4603 41.7282 65.2347 41.7891 64.9805C41.8499 64.7227 41.8804 64.4487 41.8804 64.1587ZM45.1406 62.1016V67H44.147V61.1885H45.1138L45.1406 62.1016ZM46.9561 61.1562L46.9507 62.0801C46.8683 62.0622 46.7896 62.0514 46.7144 62.0479C46.6427 62.0407 46.5604 62.0371 46.4673 62.0371C46.2381 62.0371 46.0358 62.0729 45.8604 62.1445C45.6849 62.2161 45.5363 62.3164 45.4146 62.4453C45.2928 62.5742 45.1961 62.7282 45.1245 62.9072C45.0565 63.0827 45.0117 63.276 44.9902 63.4873L44.7109 63.6484C44.7109 63.2975 44.745 62.9681 44.813 62.6602C44.8846 62.3522 44.9938 62.0801 45.1406 61.8438C45.2874 61.6038 45.4736 61.4176 45.6992 61.2852C45.9284 61.1491 46.2005 61.0811 46.5156 61.0811C46.5872 61.0811 46.6696 61.09 46.7627 61.1079C46.8558 61.1222 46.9202 61.1383 46.9561 61.1562ZM50.1787 67.1074C49.7741 67.1074 49.4071 67.0394 49.0776 66.9033C48.7518 66.7637 48.4707 66.5685 48.2344 66.3179C48.0016 66.0672 47.8226 65.77 47.6973 65.4263C47.5719 65.0825 47.5093 64.7065 47.5093 64.2983V64.0728C47.5093 63.6001 47.5791 63.1794 47.7188 62.8105C47.8584 62.4382 48.0482 62.123 48.2881 61.8652C48.528 61.6074 48.8001 61.4123 49.1045 61.2798C49.4089 61.1473 49.724 61.0811 50.0498 61.0811C50.4652 61.0811 50.8232 61.1527 51.124 61.2959C51.4284 61.4391 51.6772 61.6396 51.8706 61.8975C52.064 62.1517 52.2072 62.4525 52.3003 62.7998C52.3934 63.1436 52.4399 63.5195 52.4399 63.9277V64.3735H48.1001V63.5625H51.4463V63.4873C51.432 63.2295 51.3783 62.9788 51.2852 62.7354C51.1956 62.4919 51.0524 62.2913 50.8555 62.1338C50.6585 61.9762 50.39 61.8975 50.0498 61.8975C49.8242 61.8975 49.6165 61.9458 49.4268 62.0425C49.237 62.1356 49.0741 62.2752 48.938 62.4614C48.8019 62.6476 48.6963 62.875 48.6211 63.1436C48.5459 63.4121 48.5083 63.7218 48.5083 64.0728V64.2983C48.5083 64.5741 48.5459 64.8337 48.6211 65.0771C48.6999 65.3171 48.8127 65.5283 48.9595 65.7109C49.1099 65.8936 49.2907 66.0368 49.502 66.1406C49.7168 66.2445 49.9603 66.2964 50.2324 66.2964C50.5833 66.2964 50.8805 66.2248 51.124 66.0815C51.3675 65.9383 51.5806 65.7467 51.7632 65.5068L52.3647 65.9849C52.2394 66.1746 52.0801 66.3555 51.8867 66.5273C51.6934 66.6992 51.4552 66.8389 51.1724 66.9463C50.8931 67.0537 50.5618 67.1074 50.1787 67.1074ZM55.9258 66.291C56.1621 66.291 56.3805 66.2427 56.5811 66.146C56.7816 66.0493 56.9463 65.9168 57.0752 65.7485C57.2041 65.5767 57.2775 65.3815 57.2954 65.1631H58.2407C58.2228 65.5068 58.1064 65.8273 57.8916 66.1245C57.6803 66.4181 57.4028 66.6562 57.0591 66.8389C56.7153 67.0179 56.3376 67.1074 55.9258 67.1074C55.4889 67.1074 55.1076 67.0304 54.7817 66.8765C54.4595 66.7225 54.1909 66.5112 53.9761 66.2427C53.7648 65.9741 53.6055 65.6662 53.498 65.3188C53.3942 64.9679 53.3423 64.5973 53.3423 64.207V63.9814C53.3423 63.5911 53.3942 63.2223 53.498 62.875C53.6055 62.5241 53.7648 62.2144 53.9761 61.9458C54.1909 61.6772 54.4595 61.466 54.7817 61.312C55.1076 61.158 55.4889 61.0811 55.9258 61.0811C56.3805 61.0811 56.778 61.1742 57.1182 61.3604C57.4583 61.543 57.7251 61.7936 57.9185 62.1123C58.1154 62.4274 58.2228 62.7855 58.2407 63.1865H57.2954C57.2775 62.9466 57.2095 62.73 57.0913 62.5366C56.9767 62.3433 56.8192 62.1893 56.6187 62.0747C56.4217 61.9565 56.1908 61.8975 55.9258 61.8975C55.6214 61.8975 55.3654 61.9583 55.1577 62.0801C54.9536 62.1982 54.7907 62.3594 54.6689 62.5635C54.5508 62.764 54.4648 62.9878 54.4111 63.2349C54.361 63.4784 54.3359 63.7272 54.3359 63.9814V64.207C54.3359 64.4613 54.361 64.7119 54.4111 64.959C54.4613 65.2061 54.5454 65.4299 54.6636 65.6304C54.7853 65.8309 54.9482 65.992 55.1523 66.1138C55.36 66.2319 55.6178 66.291 55.9258 66.291ZM61.7695 67.1074C61.3649 67.1074 60.9979 67.0394 60.6685 66.9033C60.3426 66.7637 60.0615 66.5685 59.8252 66.3179C59.5924 66.0672 59.4134 65.77 59.2881 65.4263C59.1628 65.0825 59.1001 64.7065 59.1001 64.2983V64.0728C59.1001 63.6001 59.1699 63.1794 59.3096 62.8105C59.4492 62.4382 59.639 62.123 59.8789 61.8652C60.1188 61.6074 60.391 61.4123 60.6953 61.2798C60.9997 61.1473 61.3148 61.0811 61.6406 61.0811C62.056 61.0811 62.4141 61.1527 62.7148 61.2959C63.0192 61.4391 63.2681 61.6396 63.4614 61.8975C63.6548 62.1517 63.798 62.4525 63.8911 62.7998C63.9842 63.1436 64.0308 63.5195 64.0308 63.9277V64.3735H59.6909V63.5625H63.0371V63.4873C63.0228 63.2295 62.9691 62.9788 62.876 62.7354C62.7865 62.4919 62.6432 62.2913 62.4463 62.1338C62.2493 61.9762 61.9808 61.8975 61.6406 61.8975C61.415 61.8975 61.2074 61.9458 61.0176 62.0425C60.8278 62.1356 60.6649 62.2752 60.5288 62.4614C60.3927 62.6476 60.2871 62.875 60.2119 63.1436C60.1367 63.4121 60.0991 63.7218 60.0991 64.0728V64.2983C60.0991 64.5741 60.1367 64.8337 60.2119 65.0771C60.2907 65.3171 60.4035 65.5283 60.5503 65.7109C60.7007 65.8936 60.8815 66.0368 61.0928 66.1406C61.3076 66.2445 61.5511 66.2964 61.8232 66.2964C62.1742 66.2964 62.4714 66.2248 62.7148 66.0815C62.9583 65.9383 63.1714 65.7467 63.354 65.5068L63.9556 65.9849C63.8302 66.1746 63.6709 66.3555 63.4775 66.5273C63.2842 66.6992 63.0461 66.8389 62.7632 66.9463C62.4839 67.0537 62.1527 67.1074 61.7695 67.1074ZM68.854 65.8721V58.75H69.853V67H68.9399L68.854 65.8721ZM64.9438 64.1587V64.0459C64.9438 63.6019 64.9976 63.1991 65.105 62.8374C65.216 62.4722 65.3717 62.1589 65.5723 61.8975C65.7764 61.6361 66.0181 61.4355 66.2974 61.2959C66.5802 61.1527 66.8953 61.0811 67.2427 61.0811C67.6079 61.0811 67.9266 61.1455 68.1987 61.2744C68.4744 61.3997 68.7072 61.5841 68.897 61.8276C69.0903 62.0675 69.2425 62.3576 69.3535 62.6978C69.4645 63.0379 69.5415 63.4229 69.5845 63.8525V64.3467C69.5451 64.7728 69.4681 65.1559 69.3535 65.4961C69.2425 65.8363 69.0903 66.1263 68.897 66.3662C68.7072 66.6061 68.4744 66.7905 68.1987 66.9194C67.923 67.0448 67.6007 67.1074 67.2319 67.1074C66.8918 67.1074 66.5802 67.034 66.2974 66.8872C66.0181 66.7404 65.7764 66.5345 65.5723 66.2695C65.3717 66.0046 65.216 65.693 65.105 65.335C64.9976 64.9733 64.9438 64.5812 64.9438 64.1587ZM65.9429 64.0459V64.1587C65.9429 64.4487 65.9715 64.7209 66.0288 64.9751C66.0897 65.2293 66.1828 65.4531 66.3081 65.6465C66.4334 65.8398 66.5928 65.992 66.7861 66.103C66.9795 66.2104 67.2104 66.2642 67.479 66.2642C67.8084 66.2642 68.0788 66.1943 68.29 66.0547C68.5049 65.915 68.6768 65.7306 68.8057 65.5015C68.9346 65.2723 69.0348 65.0234 69.1064 64.7549V63.4604C69.0635 63.2635 69.0008 63.0737 68.9185 62.8911C68.8397 62.7049 68.7358 62.5402 68.6069 62.397C68.4816 62.2502 68.3258 62.1338 68.1396 62.0479C67.957 61.9619 67.7404 61.9189 67.4897 61.9189C67.2176 61.9189 66.9831 61.9762 66.7861 62.0908C66.5928 62.2018 66.4334 62.3558 66.3081 62.5527C66.1828 62.7461 66.0897 62.9717 66.0288 63.2295C65.9715 63.4837 65.9429 63.7559 65.9429 64.0459ZM73.8115 67.1074C73.4069 67.1074 73.0399 67.0394 72.7104 66.9033C72.3846 66.7637 72.1035 66.5685 71.8672 66.3179C71.6344 66.0672 71.4554 65.77 71.3301 65.4263C71.2048 65.0825 71.1421 64.7065 71.1421 64.2983V64.0728C71.1421 63.6001 71.2119 63.1794 71.3516 62.8105C71.4912 62.4382 71.681 62.123 71.9209 61.8652C72.1608 61.6074 72.4329 61.4123 72.7373 61.2798C73.0417 61.1473 73.3568 61.0811 73.6826 61.0811C74.098 61.0811 74.4561 61.1527 74.7568 61.2959C75.0612 61.4391 75.3101 61.6396 75.5034 61.8975C75.6968 62.1517 75.84 62.4525 75.9331 62.7998C76.0262 63.1436 76.0728 63.5195 76.0728 63.9277V64.3735H71.7329V63.5625H75.0791V63.4873C75.0648 63.2295 75.0111 62.9788 74.918 62.7354C74.8285 62.4919 74.6852 62.2913 74.4883 62.1338C74.2913 61.9762 74.0228 61.8975 73.6826 61.8975C73.457 61.8975 73.2493 61.9458 73.0596 62.0425C72.8698 62.1356 72.7069 62.2752 72.5708 62.4614C72.4347 62.6476 72.3291 62.875 72.2539 63.1436C72.1787 63.4121 72.1411 63.7218 72.1411 64.0728V64.2983C72.1411 64.5741 72.1787 64.8337 72.2539 65.0771C72.3327 65.3171 72.4455 65.5283 72.5923 65.7109C72.7427 65.8936 72.9235 66.0368 73.1348 66.1406C73.3496 66.2445 73.5931 66.2964 73.8652 66.2964C74.2161 66.2964 74.5133 66.2248 74.7568 66.0815C75.0003 65.9383 75.2134 65.7467 75.396 65.5068L75.9976 65.9849C75.8722 66.1746 75.7129 66.3555 75.5195 66.5273C75.3262 66.6992 75.0881 66.8389 74.8052 66.9463C74.5259 67.0537 74.1947 67.1074 73.8115 67.1074ZM78.2266 62.4292V67H77.2329V61.1885H78.1729L78.2266 62.4292ZM77.9902 63.874L77.5767 63.8579C77.5802 63.4604 77.6393 63.0934 77.7539 62.7568C77.8685 62.4167 78.0296 62.1213 78.2373 61.8706C78.445 61.62 78.6921 61.4266 78.9785 61.2905C79.2686 61.1509 79.589 61.0811 79.9399 61.0811C80.2264 61.0811 80.4842 61.1204 80.7134 61.1992C80.9425 61.2744 81.1377 61.3962 81.2988 61.5645C81.4635 61.7327 81.5889 61.9512 81.6748 62.2197C81.7607 62.4847 81.8037 62.8088 81.8037 63.1919V67H80.8047V63.1812C80.8047 62.8768 80.7599 62.6333 80.6704 62.4507C80.5809 62.2645 80.4502 62.1302 80.2783 62.0479C80.1064 61.9619 79.8952 61.9189 79.6445 61.9189C79.3975 61.9189 79.1719 61.9709 78.9678 62.0747C78.7673 62.1785 78.5936 62.3218 78.4468 62.5044C78.3035 62.687 78.1908 62.8965 78.1084 63.1328C78.0296 63.3656 77.9902 63.6126 77.9902 63.874ZM85.7461 61.1885V61.9512H82.604V61.1885H85.7461ZM83.6675 59.7759H84.6611V65.5605C84.6611 65.7575 84.6916 65.9061 84.7524 66.0063C84.8133 66.1066 84.8921 66.1729 84.9888 66.2051C85.0854 66.2373 85.1893 66.2534 85.3003 66.2534C85.3826 66.2534 85.4686 66.2463 85.5581 66.2319C85.6512 66.214 85.721 66.1997 85.7676 66.189L85.7729 67C85.6942 67.0251 85.5903 67.0483 85.4614 67.0698C85.3361 67.0949 85.1839 67.1074 85.0049 67.1074C84.7614 67.1074 84.5376 67.0591 84.3335 66.9624C84.1294 66.8657 83.9665 66.7046 83.8447 66.479C83.7266 66.2498 83.6675 65.9419 83.6675 65.5552V59.7759ZM89.3232 67.1074C88.9186 67.1074 88.5516 67.0394 88.2222 66.9033C87.8963 66.7637 87.6152 66.5685 87.3789 66.3179C87.1462 66.0672 86.9671 65.77 86.8418 65.4263C86.7165 65.0825 86.6538 64.7065 86.6538 64.2983V64.0728C86.6538 63.6001 86.7236 63.1794 86.8633 62.8105C87.0029 62.4382 87.1927 62.123 87.4326 61.8652C87.6725 61.6074 87.9447 61.4123 88.249 61.2798C88.5534 61.1473 88.8685 61.0811 89.1943 61.0811C89.6097 61.0811 89.9678 61.1527 90.2686 61.2959C90.5729 61.4391 90.8218 61.6396 91.0151 61.8975C91.2085 62.1517 91.3517 62.4525 91.4448 62.7998C91.5379 63.1436 91.5845 63.5195 91.5845 63.9277V64.3735H87.2446V63.5625H90.5908V63.4873C90.5765 63.2295 90.5228 62.9788 90.4297 62.7354C90.3402 62.4919 90.1969 62.2913 90 62.1338C89.8031 61.9762 89.5345 61.8975 89.1943 61.8975C88.9688 61.8975 88.7611 61.9458 88.5713 62.0425C88.3815 62.1356 88.2186 62.2752 88.0825 62.4614C87.9465 62.6476 87.8408 62.875 87.7656 63.1436C87.6904 63.4121 87.6528 63.7218 87.6528 64.0728V64.2983C87.6528 64.5741 87.6904 64.8337 87.7656 65.0771C87.8444 65.3171 87.9572 65.5283 88.104 65.7109C88.2544 65.8936 88.4352 66.0368 88.6465 66.1406C88.8613 66.2445 89.1048 66.2964 89.377 66.2964C89.7279 66.2964 90.0251 66.2248 90.2686 66.0815C90.512 65.9383 90.7251 65.7467 90.9077 65.5068L91.5093 65.9849C91.384 66.1746 91.2246 66.3555 91.0312 66.5273C90.8379 66.6992 90.5998 66.8389 90.3169 66.9463C90.0376 67.0537 89.7064 67.1074 89.3232 67.1074ZM96.4077 65.8721V58.75H97.4067V67H96.4937L96.4077 65.8721ZM92.4976 64.1587V64.0459C92.4976 63.6019 92.5513 63.1991 92.6587 62.8374C92.7697 62.4722 92.9255 62.1589 93.126 61.8975C93.3301 61.6361 93.5718 61.4355 93.8511 61.2959C94.134 61.1527 94.4491 61.0811 94.7964 61.0811C95.1616 61.0811 95.4803 61.1455 95.7524 61.2744C96.0282 61.3997 96.2609 61.5841 96.4507 61.8276C96.644 62.0675 96.7962 62.3576 96.9072 62.6978C97.0182 63.0379 97.0952 63.4229 97.1382 63.8525V64.3467C97.0988 64.7728 97.0218 65.1559 96.9072 65.4961C96.7962 65.8363 96.644 66.1263 96.4507 66.3662C96.2609 66.6061 96.0282 66.7905 95.7524 66.9194C95.4767 67.0448 95.1545 67.1074 94.7856 67.1074C94.4455 67.1074 94.134 67.034 93.8511 66.8872C93.5718 66.7404 93.3301 66.5345 93.126 66.2695C92.9255 66.0046 92.7697 65.693 92.6587 65.335C92.5513 64.9733 92.4976 64.5812 92.4976 64.1587ZM93.4966 64.0459V64.1587C93.4966 64.4487 93.5252 64.7209 93.5825 64.9751C93.6434 65.2293 93.7365 65.4531 93.8618 65.6465C93.9871 65.8398 94.1465 65.992 94.3398 66.103C94.5332 66.2104 94.7642 66.2642 95.0327 66.2642C95.3621 66.2642 95.6325 66.1943 95.8438 66.0547C96.0586 65.915 96.2305 65.7306 96.3594 65.5015C96.4883 65.2723 96.5885 65.0234 96.6602 64.7549V63.4604C96.6172 63.2635 96.5545 63.0737 96.4722 62.8911C96.3934 62.7049 96.2896 62.5402 96.1606 62.397C96.0353 62.2502 95.8796 62.1338 95.6934 62.0479C95.5107 61.9619 95.2941 61.9189 95.0435 61.9189C94.7713 61.9189 94.5368 61.9762 94.3398 62.0908C94.1465 62.2018 93.9871 62.3558 93.8618 62.5527C93.7365 62.7461 93.6434 62.9717 93.5825 63.2295C93.5252 63.4837 93.4966 63.7559 93.4966 64.0459Z" fill="#FFA500"/>
<path d="M26.1001 32.6011H26.8091C27.1564 32.6011 27.4429 32.5438 27.6685 32.4292C27.8976 32.311 28.0677 32.1517 28.1787 31.9512C28.2933 31.7471 28.3506 31.5179 28.3506 31.2637C28.3506 30.9629 28.3005 30.7104 28.2002 30.5063C28.0999 30.3022 27.9495 30.1483 27.749 30.0444C27.5485 29.9406 27.2943 29.8887 26.9863 29.8887C26.707 29.8887 26.46 29.9442 26.2451 30.0552C26.0339 30.1626 25.8674 30.3166 25.7456 30.5171C25.6274 30.7176 25.5684 30.9539 25.5684 31.2261H24.5747C24.5747 30.8286 24.675 30.467 24.8755 30.1411C25.076 29.8153 25.3571 29.5557 25.7188 29.3623C26.084 29.1689 26.5065 29.0723 26.9863 29.0723C27.459 29.0723 27.8726 29.1564 28.2271 29.3247C28.5815 29.4894 28.8573 29.7365 29.0542 30.0659C29.2511 30.3918 29.3496 30.7982 29.3496 31.2852C29.3496 31.4821 29.3031 31.6934 29.21 31.9189C29.1204 32.141 28.979 32.3486 28.7856 32.542C28.5959 32.7354 28.3488 32.8947 28.0444 33.02C27.7401 33.1418 27.3748 33.2026 26.9487 33.2026H26.1001V32.6011ZM26.1001 33.4175V32.8213H26.9487C27.4465 32.8213 27.8582 32.8804 28.1841 32.9985C28.5099 33.1167 28.766 33.2743 28.9521 33.4712C29.1419 33.6681 29.2744 33.8848 29.3496 34.1211C29.4284 34.3538 29.4678 34.5866 29.4678 34.8193C29.4678 35.1846 29.4051 35.5086 29.2798 35.7915C29.158 36.0744 28.9844 36.3143 28.7588 36.5112C28.5368 36.7082 28.2754 36.8568 27.9746 36.957C27.6738 37.0573 27.3462 37.1074 26.9917 37.1074C26.6515 37.1074 26.3311 37.0591 26.0303 36.9624C25.7331 36.8657 25.4699 36.7261 25.2407 36.5435C25.0116 36.3573 24.8325 36.1299 24.7036 35.8613C24.5747 35.5892 24.5103 35.2795 24.5103 34.9321H25.5039C25.5039 35.2043 25.563 35.4424 25.6812 35.6465C25.8029 35.8506 25.9748 36.0099 26.1968 36.1245C26.4224 36.2355 26.6873 36.291 26.9917 36.291C27.2961 36.291 27.5575 36.2391 27.7759 36.1353C27.9979 36.0278 28.168 35.8667 28.2861 35.6519C28.4079 35.437 28.4688 35.1667 28.4688 34.8408C28.4688 34.515 28.4007 34.2482 28.2646 34.0405C28.1286 33.8293 27.9352 33.6735 27.6846 33.5732C27.4375 33.4694 27.1457 33.4175 26.8091 33.4175H26.1001ZM33.0127 33.2671V34.0835H30.3916V33.2671H33.0127ZM34.9731 32.3433V37H33.9741V31.1885H34.9194L34.9731 32.3433ZM34.769 33.874L34.3071 33.8579C34.3107 33.4604 34.3626 33.0934 34.4629 32.7568C34.5632 32.4167 34.7118 32.1213 34.9087 31.8706C35.1056 31.62 35.3509 31.4266 35.6445 31.2905C35.9382 31.1509 36.2783 31.0811 36.665 31.0811C36.9372 31.0811 37.1878 31.1204 37.417 31.1992C37.6462 31.2744 37.8449 31.3944 38.0132 31.5591C38.1815 31.7238 38.3122 31.9351 38.4053 32.1929C38.4984 32.4507 38.5449 32.7622 38.5449 33.1274V37H37.5513V33.1758C37.5513 32.8714 37.4993 32.6279 37.3955 32.4453C37.2952 32.2627 37.152 32.1302 36.9658 32.0479C36.7796 31.9619 36.5612 31.9189 36.3105 31.9189C36.0169 31.9189 35.7716 31.9709 35.5747 32.0747C35.3778 32.1785 35.2202 32.3218 35.1021 32.5044C34.9839 32.687 34.8979 32.8965 34.8442 33.1328C34.7941 33.3656 34.769 33.6126 34.769 33.874ZM38.5342 33.3262L37.8682 33.5303C37.8717 33.2116 37.9237 32.9054 38.0239 32.6118C38.1278 32.3182 38.2764 32.0568 38.4697 31.8276C38.6667 31.5985 38.9084 31.4176 39.1948 31.2852C39.4813 31.1491 39.8089 31.0811 40.1777 31.0811C40.4893 31.0811 40.765 31.1222 41.0049 31.2046C41.2484 31.2869 41.4525 31.4141 41.6172 31.5859C41.7855 31.7542 41.9126 31.9709 41.9985 32.2358C42.0845 32.5008 42.1274 32.8159 42.1274 33.1812V37H41.1284V33.1704C41.1284 32.8446 41.0765 32.5921 40.9727 32.4131C40.8724 32.2305 40.7292 32.1034 40.543 32.0317C40.3604 31.9565 40.1419 31.9189 39.8877 31.9189C39.6693 31.9189 39.4759 31.9565 39.3076 32.0317C39.1393 32.1069 38.9979 32.2108 38.8833 32.3433C38.7687 32.4722 38.681 32.6208 38.6201 32.7891C38.5628 32.9574 38.5342 33.1364 38.5342 33.3262ZM43.3682 34.1587V34.0352C43.3682 33.6162 43.429 33.2277 43.5508 32.8696C43.6725 32.508 43.848 32.1947 44.0771 31.9297C44.3063 31.6611 44.5838 31.4535 44.9097 31.3066C45.2355 31.1562 45.6007 31.0811 46.0054 31.0811C46.4136 31.0811 46.7806 31.1562 47.1064 31.3066C47.4359 31.4535 47.7152 31.6611 47.9443 31.9297C48.1771 32.1947 48.3543 32.508 48.4761 32.8696C48.5978 33.2277 48.6587 33.6162 48.6587 34.0352V34.1587C48.6587 34.5776 48.5978 34.9661 48.4761 35.3242C48.3543 35.6823 48.1771 35.9956 47.9443 36.2642C47.7152 36.5291 47.4377 36.7368 47.1118 36.8872C46.7896 37.034 46.4243 37.1074 46.0161 37.1074C45.6079 37.1074 45.2409 37.034 44.915 36.8872C44.5892 36.7368 44.3099 36.5291 44.0771 36.2642C43.848 35.9956 43.6725 35.6823 43.5508 35.3242C43.429 34.9661 43.3682 34.5776 43.3682 34.1587ZM44.3618 34.0352V34.1587C44.3618 34.4487 44.3958 34.7227 44.4639 34.9805C44.5319 35.2347 44.634 35.4603 44.77 35.6572C44.9097 35.8542 45.0833 36.0099 45.291 36.1245C45.4987 36.2355 45.7404 36.291 46.0161 36.291C46.2882 36.291 46.5264 36.2355 46.7305 36.1245C46.9382 36.0099 47.11 35.8542 47.2461 35.6572C47.3822 35.4603 47.4842 35.2347 47.5522 34.9805C47.6239 34.7227 47.6597 34.4487 47.6597 34.1587V34.0352C47.6597 33.7487 47.6239 33.4784 47.5522 33.2241C47.4842 32.9663 47.3804 32.7389 47.2407 32.542C47.1047 32.3415 46.9328 32.1839 46.7251 32.0693C46.521 31.9548 46.2811 31.8975 46.0054 31.8975C45.7332 31.8975 45.4933 31.9548 45.2856 32.0693C45.0815 32.1839 44.9097 32.3415 44.77 32.542C44.634 32.7389 44.5319 32.9663 44.4639 33.2241C44.3958 33.4784 44.3618 33.7487 44.3618 34.0352ZM50.8984 32.4292V37H49.9048V31.1885H50.8447L50.8984 32.4292ZM50.6621 33.874L50.2485 33.8579C50.2521 33.4604 50.3112 33.0934 50.4258 32.7568C50.5404 32.4167 50.7015 32.1213 50.9092 31.8706C51.1169 31.62 51.3639 31.4266 51.6504 31.2905C51.9404 31.1509 52.2609 31.0811 52.6118 31.0811C52.8983 31.0811 53.1561 31.1204 53.3853 31.1992C53.6144 31.2744 53.8096 31.3962 53.9707 31.5645C54.1354 31.7327 54.2607 31.9512 54.3467 32.2197C54.4326 32.4847 54.4756 32.8088 54.4756 33.1919V37H53.4766V33.1812C53.4766 32.8768 53.4318 32.6333 53.3423 32.4507C53.2528 32.2645 53.1221 32.1302 52.9502 32.0479C52.7783 31.9619 52.5671 31.9189 52.3164 31.9189C52.0693 31.9189 51.8438 31.9709 51.6396 32.0747C51.4391 32.1785 51.2655 32.3218 51.1187 32.5044C50.9754 32.687 50.8626 32.8965 50.7803 33.1328C50.7015 33.3656 50.6621 33.6126 50.6621 33.874ZM58.418 31.1885V31.9512H55.2759V31.1885H58.418ZM56.3394 29.7759H57.333V35.5605C57.333 35.7575 57.3634 35.9061 57.4243 36.0063C57.4852 36.1066 57.564 36.1729 57.6606 36.2051C57.7573 36.2373 57.8612 36.2534 57.9722 36.2534C58.0545 36.2534 58.1405 36.2463 58.23 36.2319C58.3231 36.214 58.3929 36.1997 58.4395 36.189L58.4448 37C58.366 37.0251 58.2622 37.0483 58.1333 37.0698C58.008 37.0949 57.8558 37.1074 57.6768 37.1074C57.4333 37.1074 57.2095 37.0591 57.0054 36.9624C56.8013 36.8657 56.6383 36.7046 56.5166 36.479C56.3984 36.2498 56.3394 35.9419 56.3394 35.5552V29.7759ZM60.5771 28.75V37H59.5835V28.75H60.5771ZM60.3408 33.874L59.9272 33.8579C59.9308 33.4604 59.9899 33.0934 60.1045 32.7568C60.2191 32.4167 60.3802 32.1213 60.5879 31.8706C60.7956 31.62 61.0426 31.4266 61.3291 31.2905C61.6191 31.1509 61.9396 31.0811 62.2905 31.0811C62.577 31.0811 62.8348 31.1204 63.064 31.1992C63.2931 31.2744 63.4883 31.3962 63.6494 31.5645C63.8141 31.7327 63.9395 31.9512 64.0254 32.2197C64.1113 32.4847 64.1543 32.8088 64.1543 33.1919V37H63.1553V33.1812C63.1553 32.8768 63.1105 32.6333 63.021 32.4507C62.9315 32.2645 62.8008 32.1302 62.6289 32.0479C62.457 31.9619 62.2458 31.9189 61.9951 31.9189C61.748 31.9189 61.5225 31.9709 61.3184 32.0747C61.1178 32.1785 60.9442 32.3218 60.7974 32.5044C60.6541 32.687 60.5413 32.8965 60.459 33.1328C60.3802 33.3656 60.3408 33.6126 60.3408 33.874ZM25.751 45.3057V52.2344H24.752V44.1885H25.665L25.751 45.3057ZM29.6665 47.0459V47.1587C29.6665 47.5812 29.6164 47.9733 29.5161 48.335C29.4159 48.693 29.269 49.0046 29.0757 49.2695C28.8859 49.5345 28.6514 49.7404 28.3721 49.8872C28.0928 50.034 27.7723 50.1074 27.4106 50.1074C27.0418 50.1074 26.716 50.0465 26.4331 49.9248C26.1502 49.8031 25.9103 49.6258 25.7134 49.3931C25.5164 49.1603 25.3589 48.881 25.2407 48.5552C25.1261 48.2293 25.0474 47.8623 25.0044 47.4541V46.8525C25.0474 46.4229 25.1279 46.0379 25.2461 45.6978C25.3643 45.3576 25.52 45.0675 25.7134 44.8276C25.9103 44.5841 26.1484 44.3997 26.4277 44.2744C26.707 44.1455 27.0293 44.0811 27.3945 44.0811C27.7598 44.0811 28.0838 44.1527 28.3667 44.2959C28.6496 44.4355 28.8877 44.6361 29.0811 44.8975C29.2744 45.1589 29.4194 45.4722 29.5161 45.8374C29.6164 46.1991 29.6665 46.6019 29.6665 47.0459ZM28.6675 47.1587V47.0459C28.6675 46.7559 28.637 46.4837 28.5762 46.2295C28.5153 45.9717 28.4204 45.7461 28.2915 45.5527C28.1662 45.3558 28.005 45.2018 27.8081 45.0908C27.6112 44.9762 27.3766 44.9189 27.1045 44.9189C26.8538 44.9189 26.6354 44.9619 26.4492 45.0479C26.2666 45.1338 26.1108 45.2502 25.9819 45.397C25.853 45.5402 25.7474 45.7049 25.665 45.8911C25.5863 46.0737 25.5272 46.2635 25.4878 46.4604V47.8516C25.5594 48.1022 25.6597 48.3385 25.7886 48.5605C25.9175 48.779 26.0894 48.9562 26.3042 49.0923C26.519 49.2248 26.7894 49.291 27.1152 49.291C27.3838 49.291 27.6147 49.2355 27.8081 49.1245C28.005 49.0099 28.1662 48.8542 28.2915 48.6572C28.4204 48.4603 28.5153 48.2347 28.5762 47.9805C28.637 47.7227 28.6675 47.4487 28.6675 47.1587ZM31.9277 45.1016V50H30.9341V44.1885H31.9009L31.9277 45.1016ZM33.7432 44.1562L33.7378 45.0801C33.6554 45.0622 33.5767 45.0514 33.5015 45.0479C33.4299 45.0407 33.3475 45.0371 33.2544 45.0371C33.0252 45.0371 32.8229 45.0729 32.6475 45.1445C32.472 45.2161 32.3234 45.3164 32.2017 45.4453C32.0799 45.5742 31.9832 45.7282 31.9116 45.9072C31.8436 46.0827 31.7988 46.276 31.7773 46.4873L31.498 46.6484C31.498 46.2975 31.5321 45.9681 31.6001 45.6602C31.6717 45.3522 31.7809 45.0801 31.9277 44.8438C32.0745 44.6038 32.2607 44.4176 32.4863 44.2852C32.7155 44.1491 32.9876 44.0811 33.3027 44.0811C33.3743 44.0811 33.4567 44.09 33.5498 44.1079C33.6429 44.1222 33.7074 44.1383 33.7432 44.1562ZM34.291 47.1587V47.0352C34.291 46.6162 34.3519 46.2277 34.4736 45.8696C34.5954 45.508 34.7708 45.1947 35 44.9297C35.2292 44.6611 35.5067 44.4535 35.8325 44.3066C36.1584 44.1562 36.5236 44.0811 36.9282 44.0811C37.3364 44.0811 37.7035 44.1562 38.0293 44.3066C38.3587 44.4535 38.638 44.6611 38.8672 44.9297C39.0999 45.1947 39.2772 45.508 39.3989 45.8696C39.5207 46.2277 39.5815 46.6162 39.5815 47.0352V47.1587C39.5815 47.5776 39.5207 47.9661 39.3989 48.3242C39.2772 48.6823 39.0999 48.9956 38.8672 49.2642C38.638 49.5291 38.3605 49.7368 38.0347 49.8872C37.7124 50.034 37.3472 50.1074 36.939 50.1074C36.5308 50.1074 36.1637 50.034 35.8379 49.8872C35.512 49.7368 35.2327 49.5291 35 49.2642C34.7708 48.9956 34.5954 48.6823 34.4736 48.3242C34.3519 47.9661 34.291 47.5776 34.291 47.1587ZM35.2847 47.0352V47.1587C35.2847 47.4487 35.3187 47.7227 35.3867 47.9805C35.4548 48.2347 35.5568 48.4603 35.6929 48.6572C35.8325 48.8542 36.0062 49.0099 36.2139 49.1245C36.4215 49.2355 36.6632 49.291 36.939 49.291C37.2111 49.291 37.4492 49.2355 37.6533 49.1245C37.861 49.0099 38.0329 48.8542 38.1689 48.6572C38.305 48.4603 38.4071 48.2347 38.4751 47.9805C38.5467 47.7227 38.5825 47.4487 38.5825 47.1587V47.0352C38.5825 46.7487 38.5467 46.4784 38.4751 46.2241C38.4071 45.9663 38.3032 45.7389 38.1636 45.542C38.0275 45.3415 37.8556 45.1839 37.6479 45.0693C37.4438 44.9548 37.2039 44.8975 36.9282 44.8975C36.6561 44.8975 36.4162 44.9548 36.2085 45.0693C36.0044 45.1839 35.8325 45.3415 35.6929 45.542C35.5568 45.7389 35.4548 45.9663 35.3867 46.2241C35.3187 46.4784 35.2847 46.7487 35.2847 47.0352ZM40.8545 44.1885H41.8535V50.6929C41.8535 51.0474 41.7962 51.3481 41.6816 51.5952C41.5706 51.8423 41.4023 52.0285 41.1768 52.1538C40.9548 52.2827 40.6737 52.3472 40.3335 52.3472C40.244 52.3472 40.1401 52.3382 40.022 52.3203C39.9002 52.3024 39.7982 52.2809 39.7158 52.2559L39.7212 51.4556C39.7892 51.4699 39.8662 51.4806 39.9521 51.4878C40.0381 51.4985 40.1133 51.5039 40.1777 51.5039C40.3245 51.5039 40.4481 51.4771 40.5483 51.4233C40.6486 51.3696 40.7238 51.2837 40.7739 51.1655C40.8276 51.0474 40.8545 50.8898 40.8545 50.6929V44.1885ZM40.7524 42.647C40.7524 42.4858 40.8026 42.3498 40.9028 42.2388C41.0031 42.1278 41.1481 42.0723 41.3379 42.0723C41.5312 42.0723 41.6781 42.1278 41.7783 42.2388C41.8786 42.3498 41.9287 42.4858 41.9287 42.647C41.9287 42.8009 41.8786 42.9334 41.7783 43.0444C41.6781 43.1519 41.5312 43.2056 41.3379 43.2056C41.1481 43.2056 41.0031 43.1519 40.9028 43.0444C40.8026 42.9334 40.7524 42.8009 40.7524 42.647ZM45.8711 50.1074C45.4665 50.1074 45.0994 50.0394 44.77 49.9033C44.4442 49.7637 44.1631 49.5685 43.9268 49.3179C43.694 49.0672 43.515 48.77 43.3896 48.4263C43.2643 48.0825 43.2017 47.7065 43.2017 47.2983V47.0728C43.2017 46.6001 43.2715 46.1794 43.4111 45.8105C43.5508 45.4382 43.7406 45.123 43.9805 44.8652C44.2204 44.6074 44.4925 44.4123 44.7969 44.2798C45.1012 44.1473 45.4163 44.0811 45.7422 44.0811C46.1576 44.0811 46.5156 44.1527 46.8164 44.2959C47.1208 44.4391 47.3696 44.6396 47.563 44.8975C47.7563 45.1517 47.8996 45.4525 47.9927 45.7998C48.0858 46.1436 48.1323 46.5195 48.1323 46.9277V47.3735H43.7925V46.5625H47.1387V46.4873C47.1243 46.2295 47.0706 45.9788 46.9775 45.7354C46.888 45.4919 46.7448 45.2913 46.5479 45.1338C46.3509 44.9762 46.0824 44.8975 45.7422 44.8975C45.5166 44.8975 45.3089 44.9458 45.1191 45.0425C44.9294 45.1356 44.7664 45.2752 44.6304 45.4614C44.4943 45.6476 44.3887 45.875 44.3135 46.1436C44.2383 46.4121 44.2007 46.7218 44.2007 47.0728V47.2983C44.2007 47.5741 44.2383 47.8337 44.3135 48.0771C44.3923 48.3171 44.505 48.5283 44.6519 48.7109C44.8022 48.8936 44.9831 49.0368 45.1943 49.1406C45.4092 49.2445 45.6527 49.2964 45.9248 49.2964C46.2757 49.2964 46.5729 49.2248 46.8164 49.0815C47.0599 48.9383 47.2729 48.7467 47.4556 48.5068L48.0571 48.9849C47.9318 49.1746 47.7725 49.3555 47.5791 49.5273C47.3857 49.6992 47.1476 49.8389 46.8647 49.9463C46.5854 50.0537 46.2542 50.1074 45.8711 50.1074ZM51.6182 49.291C51.8545 49.291 52.0729 49.2427 52.2734 49.146C52.474 49.0493 52.6387 48.9168 52.7676 48.7485C52.8965 48.5767 52.9699 48.3815 52.9878 48.1631H53.9331C53.9152 48.5068 53.7988 48.8273 53.584 49.1245C53.3727 49.4181 53.0952 49.6562 52.7515 49.8389C52.4077 50.0179 52.0299 50.1074 51.6182 50.1074C51.1813 50.1074 50.8 50.0304 50.4741 49.8765C50.1519 49.7225 49.8833 49.5112 49.6685 49.2427C49.4572 48.9741 49.2979 48.6662 49.1904 48.3188C49.0866 47.9679 49.0347 47.5973 49.0347 47.207V46.9814C49.0347 46.5911 49.0866 46.2223 49.1904 45.875C49.2979 45.5241 49.4572 45.2144 49.6685 44.9458C49.8833 44.6772 50.1519 44.466 50.4741 44.312C50.8 44.158 51.1813 44.0811 51.6182 44.0811C52.0729 44.0811 52.4704 44.1742 52.8105 44.3604C53.1507 44.543 53.4175 44.7936 53.6108 45.1123C53.8078 45.4274 53.9152 45.7855 53.9331 46.1865H52.9878C52.9699 45.9466 52.9019 45.73 52.7837 45.5366C52.6691 45.3433 52.5116 45.1893 52.311 45.0747C52.1141 44.9565 51.8831 44.8975 51.6182 44.8975C51.3138 44.8975 51.0578 44.9583 50.8501 45.0801C50.646 45.1982 50.4831 45.3594 50.3613 45.5635C50.2432 45.764 50.1572 45.9878 50.1035 46.2349C50.0534 46.4784 50.0283 46.7272 50.0283 46.9814V47.207C50.0283 47.4613 50.0534 47.7119 50.1035 47.959C50.1536 48.2061 50.2378 48.4299 50.356 48.6304C50.4777 48.8309 50.6406 48.992 50.8447 49.1138C51.0524 49.2319 51.3102 49.291 51.6182 49.291ZM57.4834 44.1885V44.9512H54.3413V44.1885H57.4834ZM55.4048 42.7759H56.3984V48.5605C56.3984 48.7575 56.4289 48.9061 56.4897 49.0063C56.5506 49.1066 56.6294 49.1729 56.7261 49.2051C56.8228 49.2373 56.9266 49.2534 57.0376 49.2534C57.12 49.2534 57.2059 49.2463 57.2954 49.2319C57.3885 49.214 57.4583 49.1997 57.5049 49.189L57.5103 50C57.4315 50.0251 57.3276 50.0483 57.1987 50.0698C57.0734 50.0949 56.9212 50.1074 56.7422 50.1074C56.4987 50.1074 56.2749 50.0591 56.0708 49.9624C55.8667 49.8657 55.7038 49.7046 55.582 49.479C55.4639 49.2498 55.4048 48.9419 55.4048 48.5552V42.7759ZM59.7285 44.1885V50H58.7295V44.1885H59.7285ZM58.6543 42.647C58.6543 42.4858 58.7026 42.3498 58.7993 42.2388C58.8996 42.1278 59.0464 42.0723 59.2397 42.0723C59.4295 42.0723 59.5745 42.1278 59.6748 42.2388C59.7786 42.3498 59.8306 42.4858 59.8306 42.647C59.8306 42.8009 59.7786 42.9334 59.6748 43.0444C59.5745 43.1519 59.4295 43.2056 59.2397 43.2056C59.0464 43.2056 58.8996 43.1519 58.7993 43.0444C58.7026 42.9334 58.6543 42.8009 58.6543 42.647ZM61.0605 47.1587V47.0352C61.0605 46.6162 61.1214 46.2277 61.2432 45.8696C61.3649 45.508 61.5404 45.1947 61.7695 44.9297C61.9987 44.6611 62.2762 44.4535 62.6021 44.3066C62.9279 44.1562 63.2931 44.0811 63.6978 44.0811C64.106 44.0811 64.473 44.1562 64.7988 44.3066C65.1283 44.4535 65.4076 44.6611 65.6367 44.9297C65.8695 45.1947 66.0467 45.508 66.1685 45.8696C66.2902 46.2277 66.3511 46.6162 66.3511 47.0352V47.1587C66.3511 47.5776 66.2902 47.9661 66.1685 48.3242C66.0467 48.6823 65.8695 48.9956 65.6367 49.2642C65.4076 49.5291 65.13 49.7368 64.8042 49.8872C64.4819 50.034 64.1167 50.1074 63.7085 50.1074C63.3003 50.1074 62.9333 50.034 62.6074 49.8872C62.2816 49.7368 62.0023 49.5291 61.7695 49.2642C61.5404 48.9956 61.3649 48.6823 61.2432 48.3242C61.1214 47.9661 61.0605 47.5776 61.0605 47.1587ZM62.0542 47.0352V47.1587C62.0542 47.4487 62.0882 47.7227 62.1562 47.9805C62.2243 48.2347 62.3263 48.4603 62.4624 48.6572C62.6021 48.8542 62.7757 49.0099 62.9834 49.1245C63.1911 49.2355 63.4328 49.291 63.7085 49.291C63.9806 49.291 64.2188 49.2355 64.4229 49.1245C64.6305 49.0099 64.8024 48.8542 64.9385 48.6572C65.0745 48.4603 65.1766 48.2347 65.2446 47.9805C65.3162 47.7227 65.3521 47.4487 65.3521 47.1587V47.0352C65.3521 46.7487 65.3162 46.4784 65.2446 46.2241C65.1766 45.9663 65.0728 45.7389 64.9331 45.542C64.797 45.3415 64.6252 45.1839 64.4175 45.0693C64.2134 44.9548 63.9735 44.8975 63.6978 44.8975C63.4256 44.8975 63.1857 44.9548 62.978 45.0693C62.7739 45.1839 62.6021 45.3415 62.4624 45.542C62.3263 45.7389 62.2243 45.9663 62.1562 46.2241C62.0882 46.4784 62.0542 46.7487 62.0542 47.0352ZM68.5908 45.4292V50H67.5972V44.1885H68.5371L68.5908 45.4292ZM68.3545 46.874L67.9409 46.8579C67.9445 46.4604 68.0036 46.0934 68.1182 45.7568C68.2327 45.4167 68.3939 45.1213 68.6016 44.8706C68.8092 44.62 69.0563 44.4266 69.3428 44.2905C69.6328 44.1509 69.9533 44.0811 70.3042 44.0811C70.5907 44.0811 70.8485 44.1204 71.0776 44.1992C71.3068 44.2744 71.502 44.3962 71.6631 44.5645C71.8278 44.7327 71.9531 44.9512 72.0391 45.2197C72.125 45.4847 72.168 45.8088 72.168 46.1919V50H71.1689V46.1812C71.1689 45.8768 71.1242 45.6333 71.0347 45.4507C70.9451 45.2645 70.8145 45.1302 70.6426 45.0479C70.4707 44.9619 70.2594 44.9189 70.0088 44.9189C69.7617 44.9189 69.5361 44.9709 69.332 45.0747C69.1315 45.1785 68.9578 45.3218 68.811 45.5044C68.6678 45.687 68.555 45.8965 68.4727 46.1328C68.3939 46.3656 68.3545 46.6126 68.3545 46.874ZM77.061 48.4585C77.061 48.3153 77.0288 48.1828 76.9644 48.061C76.9035 47.9357 76.7764 47.8229 76.583 47.7227C76.3932 47.6188 76.1068 47.5293 75.7236 47.4541C75.4014 47.3861 75.1095 47.3055 74.8481 47.2124C74.5903 47.1193 74.3701 47.0065 74.1875 46.874C74.0085 46.7415 73.8706 46.5858 73.7739 46.4067C73.6772 46.2277 73.6289 46.0182 73.6289 45.7783C73.6289 45.5492 73.679 45.3325 73.7793 45.1284C73.8831 44.9243 74.0282 44.7435 74.2144 44.5859C74.4041 44.4284 74.6315 44.3049 74.8965 44.2153C75.1615 44.1258 75.4569 44.0811 75.7827 44.0811C76.2482 44.0811 76.6457 44.1634 76.9751 44.3281C77.3045 44.4928 77.557 44.7131 77.7324 44.9888C77.9079 45.2609 77.9956 45.5635 77.9956 45.8965H77.002C77.002 45.7354 76.9536 45.5796 76.8569 45.4292C76.7638 45.2752 76.626 45.1481 76.4434 45.0479C76.2643 44.9476 76.0441 44.8975 75.7827 44.8975C75.507 44.8975 75.2832 44.9404 75.1113 45.0264C74.943 45.1087 74.8195 45.2144 74.7407 45.3433C74.6655 45.4722 74.6279 45.6082 74.6279 45.7515C74.6279 45.8589 74.6458 45.9556 74.6816 46.0415C74.721 46.1239 74.7891 46.2008 74.8857 46.2725C74.9824 46.3405 75.1185 46.4049 75.2939 46.4658C75.4694 46.5267 75.6932 46.5876 75.9653 46.6484C76.4416 46.7559 76.8337 46.8848 77.1416 47.0352C77.4495 47.1855 77.6787 47.37 77.8291 47.5884C77.9795 47.8068 78.0547 48.0718 78.0547 48.3833C78.0547 48.6375 78.001 48.8703 77.8936 49.0815C77.7897 49.2928 77.6375 49.4754 77.437 49.6294C77.2401 49.7798 77.0037 49.8979 76.728 49.9839C76.4559 50.0662 76.1497 50.1074 75.8096 50.1074C75.2975 50.1074 74.8643 50.0161 74.5098 49.8335C74.1553 49.6509 73.8867 49.4146 73.7041 49.1245C73.5215 48.8345 73.4302 48.5283 73.4302 48.2061H74.4292C74.4435 48.4782 74.5223 48.6948 74.6655 48.856C74.8088 49.0135 74.9842 49.1263 75.1919 49.1943C75.3996 49.2588 75.6055 49.291 75.8096 49.291C76.0817 49.291 76.3091 49.2552 76.4917 49.1836C76.6779 49.112 76.8193 49.0135 76.916 48.8882C77.0127 48.7629 77.061 48.6196 77.061 48.4585Z" fill="black"/>
<path d="M9 14L14.6278 15.2887L12.9299 9.77047L9 14ZM21.853 9.52211L13.154 12.1987L13.448 13.1545L22.147 10.4779L21.853 9.52211Z" fill="#9C9D9E"/>
<path d="M14 26L17.668 30.4586L19.6953 25.0527L14 26ZM22.1756 28.5318L18.389 27.1119L18.0379 28.0482L21.8244 29.4682L22.1756 28.5318Z" fill="black"/>
<path d="M11 42L11.2926 47.7661L16.1399 44.6296L11 42ZM22.4198 58.7284L13.8644 45.5064L13.0248 46.0497L21.5802 59.2716L22.4198 58.7284Z" fill="#FFA500"/>
<path d="M11.1006 37.851C12.7436 39.8227 9.22255 42.8862 8 44.5V19C8.88399 20.768 13.7241 22.6201 13.7241 24.7598C13.7241 27.571 12.7797 28.3157 11.7101 30.7224C11.0539 32.1988 9.87647 36.3821 11.1006 37.851Z" fill="#020203"/>
<path d="M7 1.99561L6.99999 65" stroke="#F3F3F3" stroke-width="2"/>
<line x1="7" y1="11" x2="7" y2="31" stroke="#999999" stroke-width="2"/>
<path d="M2.59 71.372V72.394H3.738C5.11 72.394 5.838 73.052 5.838 74.2V74.312C5.838 75.46 5.11 76.118 3.738 76.118C2.548 76.118 1.974 75.6 1.47 74.83L0.588 75.502C1.19 76.342 2.058 77.168 3.752 77.168C5.74 77.168 7.07 76.006 7.07 74.326C7.07 72.856 6.062 72.072 5.012 71.862V71.806C6.048 71.54 6.888 70.784 6.888 69.524C6.888 67.942 5.572 67.06 3.92 67.06C2.352 67.06 1.498 67.872 1.008 68.656L1.876 69.328C2.282 68.586 2.884 68.11 3.892 68.11C4.928 68.11 5.642 68.628 5.642 69.65V69.748C5.642 70.686 4.97 71.372 3.654 71.372H2.59ZM10.8645 77V71.988C10.8645 71.064 11.7045 70.616 12.5865 70.616C13.6505 70.616 14.1405 71.274 14.1405 72.562V77H15.2605V71.988C15.2605 71.064 16.0725 70.616 16.9545 70.616C18.0465 70.616 18.5365 71.288 18.5365 72.562V77H19.6565V72.366C19.6565 70.616 18.7745 69.608 17.3045 69.608C16.0725 69.608 15.3725 70.294 15.1065 71.078H15.0785C14.6865 70.042 13.8185 69.608 12.8665 69.608C11.7465 69.608 11.2425 70.21 10.9205 70.952H10.8645V69.776H9.74453V77H10.8645Z" fill="#9C9D9E"/>
<path fill-rule="evenodd" clip-rule="evenodd" d="M8.92468 43.4064C10.4018 41.7303 12.4225 39.4373 11.1006 37.851C9.94618 36.4658 10.9276 32.6665 11.5934 31H8V44.5C8.23898 44.1845 8.56579 43.8137 8.92468 43.4064Z" fill="#FFA500"/>
</svg>
