<svg width="109" height="80" viewBox="0 0 109 80" fill="none" xmlns="http://www.w3.org/2000/svg">
<path d="M24.9077 1.17969H27.4966C28.0838 1.17969 28.5798 1.26921 28.9844 1.44824C29.3926 1.62728 29.7023 1.89225 29.9136 2.24316C30.1284 2.59049 30.2358 3.01839 30.2358 3.52686C30.2358 3.88493 30.1624 4.21257 30.0156 4.50977C29.8724 4.80339 29.6647 5.05404 29.3926 5.26172C29.124 5.46582 28.8018 5.618 28.4258 5.71826L28.1357 5.83105H25.7026L25.6919 4.98779H27.5288C27.9012 4.98779 28.2109 4.92334 28.458 4.79443C28.7051 4.66195 28.8913 4.4847 29.0166 4.2627C29.1419 4.04069 29.2046 3.79541 29.2046 3.52686C29.2046 3.22607 29.1455 2.96289 29.0273 2.7373C28.9092 2.51172 28.723 2.33805 28.4688 2.21631C28.2181 2.09098 27.894 2.02832 27.4966 2.02832H25.9443V9H24.9077V1.17969ZM29.4785 9L27.5771 5.45508L28.6567 5.44971L30.585 8.93555V9H29.4785ZM34.9624 8.00635V5.01465C34.9624 4.78548 34.9159 4.58675 34.8228 4.41846C34.7332 4.24658 34.5972 4.1141 34.4146 4.021C34.2319 3.9279 34.0063 3.88135 33.7378 3.88135C33.4871 3.88135 33.2669 3.92432 33.0771 4.01025C32.891 4.09619 32.7441 4.20898 32.6367 4.34863C32.5329 4.48828 32.481 4.63867 32.481 4.7998H31.4873C31.4873 4.59212 31.541 4.38623 31.6484 4.18213C31.7559 3.97803 31.9098 3.79362 32.1104 3.62891C32.3145 3.46061 32.5579 3.32812 32.8408 3.23145C33.1273 3.13118 33.446 3.08105 33.7969 3.08105C34.2194 3.08105 34.5918 3.15267 34.9141 3.2959C35.2399 3.43913 35.4941 3.65576 35.6768 3.9458C35.863 4.23226 35.9561 4.59212 35.9561 5.02539V7.73242C35.9561 7.92578 35.9722 8.13167 36.0044 8.3501C36.0402 8.56852 36.0921 8.75651 36.1602 8.91406V9H35.1235C35.0734 8.88542 35.034 8.73324 35.0054 8.54346C34.9767 8.3501 34.9624 8.17106 34.9624 8.00635ZM35.1343 5.47656L35.145 6.1748H34.1406C33.8577 6.1748 33.6053 6.19808 33.3833 6.24463C33.1613 6.2876 32.9751 6.35384 32.8247 6.44336C32.6743 6.53288 32.5597 6.64567 32.481 6.78174C32.4022 6.91423 32.3628 7.06999 32.3628 7.24902C32.3628 7.43164 32.404 7.59814 32.4863 7.74854C32.5687 7.89893 32.6922 8.01888 32.8569 8.1084C33.0252 8.19434 33.2311 8.2373 33.4746 8.2373C33.779 8.2373 34.0475 8.17285 34.2803 8.04395C34.513 7.91504 34.6974 7.75749 34.8335 7.57129C34.9731 7.38509 35.0483 7.20426 35.0591 7.02881L35.4834 7.50684C35.4583 7.65723 35.3903 7.82373 35.2793 8.00635C35.1683 8.18896 35.0197 8.36442 34.8335 8.53271C34.6509 8.69743 34.4325 8.83529 34.1782 8.94629C33.9276 9.05371 33.6447 9.10742 33.3296 9.10742C32.9357 9.10742 32.5902 9.03044 32.293 8.87646C31.9993 8.72249 31.7702 8.5166 31.6055 8.25879C31.4443 7.9974 31.3638 7.70557 31.3638 7.3833C31.3638 7.07178 31.4246 6.79785 31.5464 6.56152C31.6681 6.32161 31.8436 6.12288 32.0728 5.96533C32.3019 5.8042 32.5776 5.68245 32.8999 5.6001C33.2222 5.51774 33.582 5.47656 33.9795 5.47656H35.1343ZM38.5127 4.4292V9H37.519V3.18848H38.459L38.5127 4.4292ZM38.2764 5.87402L37.8628 5.85791C37.8664 5.46045 37.9255 5.09342 38.04 4.75684C38.1546 4.41667 38.3158 4.12126 38.5234 3.87061C38.7311 3.61995 38.9782 3.4266 39.2646 3.29053C39.5547 3.15088 39.8752 3.08105 40.2261 3.08105C40.5125 3.08105 40.7703 3.12044 40.9995 3.19922C41.2287 3.27441 41.4238 3.39616 41.585 3.56445C41.7497 3.73275 41.875 3.95117 41.9609 4.21973C42.0469 4.4847 42.0898 4.80876 42.0898 5.19189V9H41.0908V5.18115C41.0908 4.87679 41.0461 4.6333 40.9565 4.45068C40.867 4.26449 40.7363 4.13021 40.5645 4.04785C40.3926 3.96191 40.1813 3.91895 39.9307 3.91895C39.6836 3.91895 39.458 3.97087 39.2539 4.07471C39.0534 4.17855 38.8797 4.32178 38.7329 4.50439C38.5897 4.68701 38.4769 4.89648 38.3945 5.13281C38.3158 5.36556 38.2764 5.61263 38.2764 5.87402ZM47.3643 3.18848H48.2666V8.87646C48.2666 9.38851 48.1628 9.82536 47.9551 10.187C47.7474 10.5487 47.4574 10.8226 47.085 11.0088C46.7161 11.1986 46.29 11.2935 45.8066 11.2935C45.6061 11.2935 45.3698 11.2612 45.0977 11.1968C44.8291 11.1359 44.5641 11.0303 44.3027 10.8799C44.0449 10.7331 43.8283 10.5343 43.6528 10.2837L44.1738 9.69287C44.4173 9.98649 44.6715 10.1906 44.9365 10.3052C45.2051 10.4198 45.4701 10.4771 45.7314 10.4771C46.0465 10.4771 46.3187 10.418 46.5479 10.2998C46.777 10.1816 46.9543 10.0062 47.0796 9.77344C47.2085 9.54427 47.2729 9.26139 47.2729 8.9248V4.4668L47.3643 3.18848ZM43.3628 6.15869V6.0459C43.3628 5.60189 43.4147 5.19906 43.5186 4.8374C43.626 4.47217 43.7782 4.15885 43.9751 3.89746C44.1756 3.63607 44.4173 3.43555 44.7002 3.2959C44.9831 3.15267 45.3018 3.08105 45.6562 3.08105C46.0215 3.08105 46.3402 3.14551 46.6123 3.27441C46.888 3.39974 47.1208 3.58415 47.3105 3.82764C47.5039 4.06755 47.6561 4.35758 47.7671 4.69775C47.8781 5.03792 47.9551 5.42285 47.998 5.85254V6.34668C47.9587 6.77279 47.8817 7.15592 47.7671 7.49609C47.6561 7.83626 47.5039 8.1263 47.3105 8.36621C47.1208 8.60612 46.888 8.79053 46.6123 8.91943C46.3366 9.04476 46.0143 9.10742 45.6455 9.10742C45.2982 9.10742 44.9831 9.03402 44.7002 8.88721C44.4209 8.7404 44.181 8.53451 43.9805 8.26953C43.7799 8.00456 43.626 7.69303 43.5186 7.33496C43.4147 6.97331 43.3628 6.58122 43.3628 6.15869ZM44.3564 6.0459V6.15869C44.3564 6.44873 44.3851 6.72087 44.4424 6.9751C44.5033 7.22933 44.5946 7.45312 44.7163 7.64648C44.8416 7.83984 45.001 7.99202 45.1943 8.10303C45.3877 8.21045 45.6187 8.26416 45.8872 8.26416C46.2166 8.26416 46.4888 8.19434 46.7036 8.05469C46.9185 7.91504 47.0885 7.73063 47.2139 7.50146C47.3428 7.2723 47.443 7.02344 47.5146 6.75488V5.46045C47.4753 5.26351 47.4144 5.07373 47.332 4.89111C47.2533 4.70492 47.1494 4.5402 47.0205 4.39697C46.8952 4.25016 46.7394 4.13379 46.5532 4.04785C46.367 3.96191 46.1486 3.91895 45.8979 3.91895C45.6258 3.91895 45.3913 3.97624 45.1943 4.09082C45.001 4.20182 44.8416 4.35579 44.7163 4.55273C44.5946 4.74609 44.5033 4.97168 44.4424 5.22949C44.3851 5.48372 44.3564 5.75586 44.3564 6.0459ZM52.1875 9.10742C51.7829 9.10742 51.4159 9.03939 51.0864 8.90332C50.7606 8.76367 50.4795 8.56852 50.2432 8.31787C50.0104 8.06722 49.8314 7.77002 49.7061 7.42627C49.5807 7.08252 49.5181 6.70654 49.5181 6.29834V6.07275C49.5181 5.6001 49.5879 5.17936 49.7275 4.81055C49.8672 4.43815 50.057 4.12305 50.2969 3.86523C50.5368 3.60742 50.8089 3.41227 51.1133 3.27979C51.4176 3.1473 51.7327 3.08105 52.0586 3.08105C52.474 3.08105 52.832 3.15267 53.1328 3.2959C53.4372 3.43913 53.686 3.63965 53.8794 3.89746C54.0728 4.15169 54.216 4.45247 54.3091 4.7998C54.4022 5.14355 54.4487 5.51953 54.4487 5.92773V6.37354H50.1089V5.5625H53.4551V5.4873C53.4408 5.22949 53.387 4.97884 53.2939 4.73535C53.2044 4.49186 53.0612 4.29134 52.8643 4.13379C52.6673 3.97624 52.3988 3.89746 52.0586 3.89746C51.833 3.89746 51.6253 3.9458 51.4355 4.04248C51.2458 4.13558 51.0828 4.27523 50.9468 4.46143C50.8107 4.64762 50.7051 4.875 50.6299 5.14355C50.5547 5.41211 50.5171 5.72184 50.5171 6.07275V6.29834C50.5171 6.57406 50.5547 6.83366 50.6299 7.07715C50.7087 7.31706 50.8215 7.52832 50.9683 7.71094C51.1187 7.89355 51.2995 8.03678 51.5107 8.14062C51.7256 8.24447 51.9691 8.29639 52.2412 8.29639C52.5921 8.29639 52.8893 8.22477 53.1328 8.08154C53.3763 7.93831 53.5894 7.74674 53.772 7.50684L54.3735 7.98486C54.2482 8.17464 54.0889 8.35547 53.8955 8.52734C53.7021 8.69922 53.464 8.83887 53.1812 8.94629C52.9019 9.05371 52.5706 9.10742 52.1875 9.10742ZM58.0742 6.15869V6.03516C58.0742 5.61621 58.1351 5.2277 58.2568 4.86963C58.3786 4.50798 58.554 4.19466 58.7832 3.92969C59.0124 3.66113 59.2899 3.45345 59.6157 3.30664C59.9416 3.15625 60.3068 3.08105 60.7114 3.08105C61.1196 3.08105 61.4867 3.15625 61.8125 3.30664C62.1419 3.45345 62.4212 3.66113 62.6504 3.92969C62.8831 4.19466 63.0604 4.50798 63.1821 4.86963C63.3039 5.2277 63.3647 5.61621 63.3647 6.03516V6.15869C63.3647 6.57764 63.3039 6.96615 63.1821 7.32422C63.0604 7.68229 62.8831 7.99561 62.6504 8.26416C62.4212 8.52913 62.1437 8.73682 61.8179 8.88721C61.4956 9.03402 61.1304 9.10742 60.7222 9.10742C60.314 9.10742 59.9469 9.03402 59.6211 8.88721C59.2952 8.73682 59.016 8.52913 58.7832 8.26416C58.554 7.99561 58.3786 7.68229 58.2568 7.32422C58.1351 6.96615 58.0742 6.57764 58.0742 6.15869ZM59.0679 6.03516V6.15869C59.0679 6.44873 59.1019 6.72266 59.1699 6.98047C59.238 7.2347 59.34 7.46029 59.4761 7.65723C59.6157 7.85417 59.7894 8.00993 59.9971 8.12451C60.2048 8.23551 60.4465 8.29102 60.7222 8.29102C60.9943 8.29102 61.2324 8.23551 61.4365 8.12451C61.6442 8.00993 61.8161 7.85417 61.9521 7.65723C62.0882 7.46029 62.1903 7.2347 62.2583 6.98047C62.3299 6.72266 62.3657 6.44873 62.3657 6.15869V6.03516C62.3657 5.7487 62.3299 5.47835 62.2583 5.22412C62.1903 4.96631 62.0864 4.73893 61.9468 4.54199C61.8107 4.34147 61.6388 4.18392 61.4312 4.06934C61.2271 3.95475 60.9871 3.89746 60.7114 3.89746C60.4393 3.89746 60.1994 3.95475 59.9917 4.06934C59.7876 4.18392 59.6157 4.34147 59.4761 4.54199C59.34 4.73893 59.238 4.96631 59.1699 5.22412C59.1019 5.47835 59.0679 5.7487 59.0679 6.03516ZM66.0933 9H65.0996V2.57617C65.0996 2.15723 65.1748 1.80452 65.3252 1.51807C65.4792 1.22803 65.6994 1.0096 65.9858 0.862793C66.2723 0.712402 66.6125 0.637207 67.0063 0.637207C67.1209 0.637207 67.2355 0.644368 67.3501 0.658691C67.4683 0.673014 67.5828 0.694499 67.6938 0.723145L67.6401 1.53418C67.5649 1.51628 67.479 1.50374 67.3823 1.49658C67.2892 1.48942 67.1961 1.48584 67.103 1.48584C66.8918 1.48584 66.7091 1.52881 66.5552 1.61475C66.4048 1.6971 66.2902 1.81885 66.2114 1.97998C66.1326 2.14111 66.0933 2.33984 66.0933 2.57617V9ZM67.3286 3.18848V3.95117H64.1812V3.18848H67.3286ZM72.1572 4.30566V11.2344H71.1582V3.18848H72.0713L72.1572 4.30566ZM76.0728 6.0459V6.15869C76.0728 6.58122 76.0226 6.97331 75.9224 7.33496C75.8221 7.69303 75.6753 8.00456 75.4819 8.26953C75.2922 8.53451 75.0576 8.7404 74.7783 8.88721C74.499 9.03402 74.1785 9.10742 73.8169 9.10742C73.4481 9.10742 73.1222 9.04655 72.8394 8.9248C72.5565 8.80306 72.3166 8.62581 72.1196 8.39307C71.9227 8.16032 71.7651 7.88102 71.647 7.55518C71.5324 7.22933 71.4536 6.8623 71.4106 6.4541V5.85254C71.4536 5.42285 71.5342 5.03792 71.6523 4.69775C71.7705 4.35758 71.9263 4.06755 72.1196 3.82764C72.3166 3.58415 72.5547 3.39974 72.834 3.27441C73.1133 3.14551 73.4355 3.08105 73.8008 3.08105C74.166 3.08105 74.4901 3.15267 74.7729 3.2959C75.0558 3.43555 75.2939 3.63607 75.4873 3.89746C75.6807 4.15885 75.8257 4.47217 75.9224 4.8374C76.0226 5.19906 76.0728 5.60189 76.0728 6.0459ZM75.0737 6.15869V6.0459C75.0737 5.75586 75.0433 5.48372 74.9824 5.22949C74.9215 4.97168 74.8267 4.74609 74.6978 4.55273C74.5724 4.35579 74.4113 4.20182 74.2144 4.09082C74.0174 3.97624 73.7829 3.91895 73.5107 3.91895C73.2601 3.91895 73.0417 3.96191 72.8555 4.04785C72.6729 4.13379 72.5171 4.25016 72.3882 4.39697C72.2593 4.5402 72.1536 4.70492 72.0713 4.89111C71.9925 5.07373 71.9334 5.26351 71.894 5.46045V6.85156C71.9657 7.10221 72.0659 7.33854 72.1948 7.56055C72.3237 7.77897 72.4956 7.95622 72.7104 8.09229C72.9253 8.22477 73.1956 8.29102 73.5215 8.29102C73.79 8.29102 74.021 8.23551 74.2144 8.12451C74.4113 8.00993 74.5724 7.85417 74.6978 7.65723C74.8267 7.46029 74.9215 7.2347 74.9824 6.98047C75.0433 6.72266 75.0737 6.44873 75.0737 6.15869ZM80.7671 8.00635V5.01465C80.7671 4.78548 80.7205 4.58675 80.6274 4.41846C80.5379 4.24658 80.4019 4.1141 80.2192 4.021C80.0366 3.9279 79.811 3.88135 79.5425 3.88135C79.2918 3.88135 79.0716 3.92432 78.8818 4.01025C78.6956 4.09619 78.5488 4.20898 78.4414 4.34863C78.3376 4.48828 78.2856 4.63867 78.2856 4.7998H77.292C77.292 4.59212 77.3457 4.38623 77.4531 4.18213C77.5605 3.97803 77.7145 3.79362 77.915 3.62891C78.1191 3.46061 78.3626 3.32812 78.6455 3.23145C78.932 3.13118 79.2507 3.08105 79.6016 3.08105C80.0241 3.08105 80.3965 3.15267 80.7188 3.2959C81.0446 3.43913 81.2988 3.65576 81.4814 3.9458C81.6676 4.23226 81.7607 4.59212 81.7607 5.02539V7.73242C81.7607 7.92578 81.7769 8.13167 81.8091 8.3501C81.8449 8.56852 81.8968 8.75651 81.9648 8.91406V9H80.9282C80.8781 8.88542 80.8387 8.73324 80.8101 8.54346C80.7814 8.3501 80.7671 8.17106 80.7671 8.00635ZM80.939 5.47656L80.9497 6.1748H79.9453C79.6624 6.1748 79.41 6.19808 79.188 6.24463C78.966 6.2876 78.7798 6.35384 78.6294 6.44336C78.479 6.53288 78.3644 6.64567 78.2856 6.78174C78.2069 6.91423 78.1675 7.06999 78.1675 7.24902C78.1675 7.43164 78.2087 7.59814 78.291 7.74854C78.3734 7.89893 78.4969 8.01888 78.6616 8.1084C78.8299 8.19434 79.0358 8.2373 79.2793 8.2373C79.5837 8.2373 79.8522 8.17285 80.085 8.04395C80.3177 7.91504 80.5021 7.75749 80.6382 7.57129C80.7778 7.38509 80.853 7.20426 80.8638 7.02881L81.2881 7.50684C81.263 7.65723 81.195 7.82373 81.084 8.00635C80.973 8.18896 80.8244 8.36442 80.6382 8.53271C80.4556 8.69743 80.2371 8.83529 79.9829 8.94629C79.7323 9.05371 79.4494 9.10742 79.1343 9.10742C78.7404 9.10742 78.3949 9.03044 78.0977 8.87646C77.804 8.72249 77.5749 8.5166 77.4102 8.25879C77.249 7.9974 77.1685 7.70557 77.1685 7.3833C77.1685 7.07178 77.2293 6.79785 77.3511 6.56152C77.4728 6.32161 77.6483 6.12288 77.8774 5.96533C78.1066 5.8042 78.3823 5.68245 78.7046 5.6001C79.0269 5.51774 79.3867 5.47656 79.7842 5.47656H80.939ZM86.7075 7.4585C86.7075 7.31527 86.6753 7.18278 86.6108 7.06104C86.55 6.93571 86.4229 6.82292 86.2295 6.72266C86.0397 6.61882 85.7533 6.5293 85.3701 6.4541C85.0479 6.38607 84.756 6.3055 84.4946 6.2124C84.2368 6.1193 84.0166 6.00651 83.834 5.87402C83.6549 5.74154 83.5171 5.58577 83.4204 5.40674C83.3237 5.2277 83.2754 5.01823 83.2754 4.77832C83.2754 4.54915 83.3255 4.33252 83.4258 4.12842C83.5296 3.92432 83.6746 3.74349 83.8608 3.58594C84.0506 3.42839 84.278 3.30485 84.543 3.21533C84.8079 3.12581 85.1034 3.08105 85.4292 3.08105C85.8947 3.08105 86.2922 3.16341 86.6216 3.32812C86.951 3.49284 87.2035 3.71305 87.3789 3.98877C87.5544 4.2609 87.6421 4.56348 87.6421 4.89648H86.6484C86.6484 4.73535 86.6001 4.57959 86.5034 4.4292C86.4103 4.27523 86.2725 4.14811 86.0898 4.04785C85.9108 3.94759 85.6906 3.89746 85.4292 3.89746C85.1535 3.89746 84.9297 3.94043 84.7578 4.02637C84.5895 4.10872 84.466 4.21436 84.3872 4.34326C84.312 4.47217 84.2744 4.60824 84.2744 4.75146C84.2744 4.85889 84.2923 4.95557 84.3281 5.0415C84.3675 5.12386 84.4355 5.20085 84.5322 5.27246C84.6289 5.34049 84.765 5.40495 84.9404 5.46582C85.1159 5.52669 85.3397 5.58757 85.6118 5.64844C86.0881 5.75586 86.4801 5.88477 86.7881 6.03516C87.096 6.18555 87.3252 6.36995 87.4756 6.58838C87.626 6.8068 87.7012 7.07178 87.7012 7.3833C87.7012 7.63753 87.6475 7.87028 87.54 8.08154C87.4362 8.29281 87.284 8.47542 87.0835 8.62939C86.8866 8.77979 86.6502 8.89795 86.3745 8.98389C86.1024 9.06624 85.7962 9.10742 85.4561 9.10742C84.944 9.10742 84.5107 9.01611 84.1562 8.8335C83.8018 8.65088 83.5332 8.41455 83.3506 8.12451C83.168 7.83447 83.0767 7.52832 83.0767 7.20605H84.0757C84.09 7.47819 84.1688 7.69482 84.312 7.85596C84.4552 8.01351 84.6307 8.1263 84.8384 8.19434C85.0461 8.25879 85.252 8.29102 85.4561 8.29102C85.7282 8.29102 85.9556 8.25521 86.1382 8.18359C86.3244 8.11198 86.4658 8.01351 86.5625 7.88818C86.6592 7.76286 86.7075 7.61963 86.7075 7.4585ZM91.4395 3.18848V3.95117H88.2974V3.18848H91.4395ZM89.3608 1.77588H90.3545V7.56055C90.3545 7.75749 90.3849 7.90609 90.4458 8.00635C90.5067 8.10661 90.5854 8.17285 90.6821 8.20508C90.7788 8.2373 90.8826 8.25342 90.9937 8.25342C91.076 8.25342 91.1619 8.24626 91.2515 8.23193C91.3446 8.21403 91.4144 8.19971 91.4609 8.18896L91.4663 9C91.3875 9.02507 91.2837 9.04834 91.1548 9.06982C91.0295 9.09489 90.8773 9.10742 90.6982 9.10742C90.4548 9.10742 90.231 9.05908 90.0269 8.9624C89.8228 8.86572 89.6598 8.70459 89.5381 8.479C89.4199 8.24984 89.3608 7.94189 89.3608 7.55518V1.77588ZM26.1001 17.6011H26.8091C27.1564 17.6011 27.4429 17.5438 27.6685 17.4292C27.8976 17.311 28.0677 17.1517 28.1787 16.9512C28.2933 16.7471 28.3506 16.5179 28.3506 16.2637C28.3506 15.9629 28.3005 15.7104 28.2002 15.5063C28.0999 15.3022 27.9495 15.1483 27.749 15.0444C27.5485 14.9406 27.2943 14.8887 26.9863 14.8887C26.707 14.8887 26.46 14.9442 26.2451 15.0552C26.0339 15.1626 25.8674 15.3166 25.7456 15.5171C25.6274 15.7176 25.5684 15.9539 25.5684 16.2261H24.5747C24.5747 15.8286 24.675 15.467 24.8755 15.1411C25.076 14.8153 25.3571 14.5557 25.7188 14.3623C26.084 14.1689 26.5065 14.0723 26.9863 14.0723C27.459 14.0723 27.8726 14.1564 28.2271 14.3247C28.5815 14.4894 28.8573 14.7365 29.0542 15.0659C29.2511 15.3918 29.3496 15.7982 29.3496 16.2852C29.3496 16.4821 29.3031 16.6934 29.21 16.9189C29.1204 17.141 28.979 17.3486 28.7856 17.542C28.5959 17.7354 28.3488 17.8947 28.0444 18.02C27.7401 18.1418 27.3748 18.2026 26.9487 18.2026H26.1001V17.6011ZM26.1001 18.4175V17.8213H26.9487C27.4465 17.8213 27.8582 17.8804 28.1841 17.9985C28.5099 18.1167 28.766 18.2743 28.9521 18.4712C29.1419 18.6681 29.2744 18.8848 29.3496 19.1211C29.4284 19.3538 29.4678 19.5866 29.4678 19.8193C29.4678 20.1846 29.4051 20.5086 29.2798 20.7915C29.158 21.0744 28.9844 21.3143 28.7588 21.5112C28.5368 21.7082 28.2754 21.8568 27.9746 21.957C27.6738 22.0573 27.3462 22.1074 26.9917 22.1074C26.6515 22.1074 26.3311 22.0591 26.0303 21.9624C25.7331 21.8657 25.4699 21.7261 25.2407 21.5435C25.0116 21.3573 24.8325 21.1299 24.7036 20.8613C24.5747 20.5892 24.5103 20.2795 24.5103 19.9321H25.5039C25.5039 20.2043 25.563 20.4424 25.6812 20.6465C25.8029 20.8506 25.9748 21.0099 26.1968 21.1245C26.4224 21.2355 26.6873 21.291 26.9917 21.291C27.2961 21.291 27.5575 21.2391 27.7759 21.1353C27.9979 21.0278 28.168 20.8667 28.2861 20.6519C28.4079 20.437 28.4688 20.1667 28.4688 19.8408C28.4688 19.515 28.4007 19.2482 28.2646 19.0405C28.1286 18.8293 27.9352 18.6735 27.6846 18.5732C27.4375 18.4694 27.1457 18.4175 26.8091 18.4175H26.1001ZM33.0127 18.2671V19.0835H30.3916V18.2671H33.0127ZM35.6177 21.3984L37.2344 16.1885H38.2979L35.9668 22.897C35.9131 23.0402 35.8415 23.1942 35.752 23.3589C35.666 23.5272 35.555 23.6865 35.4189 23.8369C35.2829 23.9873 35.1182 24.109 34.9248 24.2021C34.735 24.2988 34.5076 24.3472 34.2427 24.3472C34.1639 24.3472 34.0636 24.3364 33.9419 24.3149C33.8201 24.2935 33.7342 24.2756 33.6841 24.2612L33.6787 23.4556C33.7074 23.4591 33.7521 23.4627 33.813 23.4663C33.8774 23.4735 33.9222 23.4771 33.9473 23.4771C34.1729 23.4771 34.3644 23.4466 34.522 23.3857C34.6795 23.3285 34.812 23.23 34.9194 23.0903C35.0304 22.9543 35.1253 22.7663 35.2041 22.5264L35.6177 21.3984ZM34.4307 16.1885L35.9399 20.7002L36.1978 21.7476L35.4834 22.1128L33.3457 16.1885H34.4307ZM41.5312 22.1074C41.1266 22.1074 40.7596 22.0394 40.4302 21.9033C40.1043 21.7637 39.8232 21.5685 39.5869 21.3179C39.3542 21.0672 39.1751 20.77 39.0498 20.4263C38.9245 20.0825 38.8618 19.7065 38.8618 19.2983V19.0728C38.8618 18.6001 38.9316 18.1794 39.0713 17.8105C39.2109 17.4382 39.4007 17.123 39.6406 16.8652C39.8805 16.6074 40.1527 16.4123 40.457 16.2798C40.7614 16.1473 41.0765 16.0811 41.4023 16.0811C41.8177 16.0811 42.1758 16.1527 42.4766 16.2959C42.7809 16.4391 43.0298 16.6396 43.2231 16.8975C43.4165 17.1517 43.5597 17.4525 43.6528 17.7998C43.7459 18.1436 43.7925 18.5195 43.7925 18.9277V19.3735H39.4526V18.5625H42.7988V18.4873C42.7845 18.2295 42.7308 17.9788 42.6377 17.7354C42.5482 17.4919 42.4049 17.2913 42.208 17.1338C42.0111 16.9762 41.7425 16.8975 41.4023 16.8975C41.1768 16.8975 40.9691 16.9458 40.7793 17.0425C40.5895 17.1356 40.4266 17.2752 40.2905 17.4614C40.1545 17.6476 40.0488 17.875 39.9736 18.1436C39.8984 18.4121 39.8608 18.7218 39.8608 19.0728V19.2983C39.8608 19.5741 39.8984 19.8337 39.9736 20.0771C40.0524 20.3171 40.1652 20.5283 40.312 20.7109C40.4624 20.8936 40.6432 21.0368 40.8545 21.1406C41.0693 21.2445 41.3128 21.2964 41.585 21.2964C41.9359 21.2964 42.2331 21.2248 42.4766 21.0815C42.7201 20.9383 42.9331 20.7467 43.1157 20.5068L43.7173 20.9849C43.592 21.1746 43.4326 21.3555 43.2393 21.5273C43.0459 21.6992 42.8078 21.8389 42.5249 21.9463C42.2456 22.0537 41.9144 22.1074 41.5312 22.1074ZM48.3794 21.0063V18.0146C48.3794 17.7855 48.3328 17.5868 48.2397 17.4185C48.1502 17.2466 48.0142 17.1141 47.8315 17.021C47.6489 16.9279 47.4233 16.8813 47.1548 16.8813C46.9041 16.8813 46.6839 16.9243 46.4941 17.0103C46.3079 17.0962 46.1611 17.209 46.0537 17.3486C45.9499 17.4883 45.8979 17.6387 45.8979 17.7998H44.9043C44.9043 17.5921 44.958 17.3862 45.0654 17.1821C45.1729 16.978 45.3268 16.7936 45.5273 16.6289C45.7314 16.4606 45.9749 16.3281 46.2578 16.2314C46.5443 16.1312 46.863 16.0811 47.2139 16.0811C47.6364 16.0811 48.0088 16.1527 48.3311 16.2959C48.6569 16.4391 48.9111 16.6558 49.0938 16.9458C49.2799 17.2323 49.373 17.5921 49.373 18.0254V20.7324C49.373 20.9258 49.3892 21.1317 49.4214 21.3501C49.4572 21.5685 49.5091 21.7565 49.5771 21.9141V22H48.5405C48.4904 21.8854 48.451 21.7332 48.4224 21.5435C48.3937 21.3501 48.3794 21.1711 48.3794 21.0063ZM48.5513 18.4766L48.562 19.1748H47.5576C47.2747 19.1748 47.0223 19.1981 46.8003 19.2446C46.5783 19.2876 46.3921 19.3538 46.2417 19.4434C46.0913 19.5329 45.9767 19.6457 45.8979 19.7817C45.8192 19.9142 45.7798 20.07 45.7798 20.249C45.7798 20.4316 45.821 20.5981 45.9033 20.7485C45.9857 20.8989 46.1092 21.0189 46.2739 21.1084C46.4422 21.1943 46.6481 21.2373 46.8916 21.2373C47.196 21.2373 47.4645 21.1729 47.6973 21.0439C47.93 20.915 48.1144 20.7575 48.2505 20.5713C48.3901 20.3851 48.4653 20.2043 48.4761 20.0288L48.9004 20.5068C48.8753 20.6572 48.8073 20.8237 48.6963 21.0063C48.5853 21.189 48.4367 21.3644 48.2505 21.5327C48.0679 21.6974 47.8494 21.8353 47.5952 21.9463C47.3446 22.0537 47.0617 22.1074 46.7466 22.1074C46.3527 22.1074 46.0072 22.0304 45.71 21.8765C45.4163 21.7225 45.1872 21.5166 45.0225 21.2588C44.8613 20.9974 44.7808 20.7056 44.7808 20.3833C44.7808 20.0718 44.8416 19.7979 44.9634 19.5615C45.0851 19.3216 45.2606 19.1229 45.4897 18.9653C45.7189 18.8042 45.9946 18.6825 46.3169 18.6001C46.6392 18.5177 46.999 18.4766 47.3965 18.4766H48.5513ZM51.9297 17.1016V22H50.936V16.1885H51.9028L51.9297 17.1016ZM53.7451 16.1562L53.7397 17.0801C53.6574 17.0622 53.5786 17.0514 53.5034 17.0479C53.4318 17.0407 53.3494 17.0371 53.2563 17.0371C53.0272 17.0371 52.8249 17.0729 52.6494 17.1445C52.474 17.2161 52.3254 17.3164 52.2036 17.4453C52.0819 17.5742 51.9852 17.7282 51.9136 17.9072C51.8455 18.0827 51.8008 18.276 51.7793 18.4873L51.5 18.6484C51.5 18.2975 51.534 17.9681 51.6021 17.6602C51.6737 17.3522 51.7829 17.0801 51.9297 16.8438C52.0765 16.6038 52.2627 16.4176 52.4883 16.2852C52.7174 16.1491 52.9896 16.0811 53.3047 16.0811C53.3763 16.0811 53.4587 16.09 53.5518 16.1079C53.6449 16.1222 53.7093 16.1383 53.7451 16.1562ZM59.7178 21.291C59.9541 21.291 60.1725 21.2427 60.373 21.146C60.5736 21.0493 60.7383 20.9168 60.8672 20.7485C60.9961 20.5767 61.0695 20.3815 61.0874 20.1631H62.0327C62.0148 20.5068 61.8984 20.8273 61.6836 21.1245C61.4723 21.4181 61.1948 21.6562 60.8511 21.8389C60.5073 22.0179 60.1296 22.1074 59.7178 22.1074C59.2809 22.1074 58.8996 22.0304 58.5737 21.8765C58.2515 21.7225 57.9829 21.5112 57.7681 21.2427C57.5568 20.9741 57.3975 20.6662 57.29 20.3188C57.1862 19.9679 57.1343 19.5973 57.1343 19.207V18.9814C57.1343 18.5911 57.1862 18.2223 57.29 17.875C57.3975 17.5241 57.5568 17.2144 57.7681 16.9458C57.9829 16.6772 58.2515 16.466 58.5737 16.312C58.8996 16.158 59.2809 16.0811 59.7178 16.0811C60.1725 16.0811 60.57 16.1742 60.9102 16.3604C61.2503 16.543 61.5171 16.7936 61.7104 17.1123C61.9074 17.4274 62.0148 17.7855 62.0327 18.1865H61.0874C61.0695 17.9466 61.0015 17.73 60.8833 17.5366C60.7687 17.3433 60.6112 17.1893 60.4106 17.0747C60.2137 16.9565 59.9827 16.8975 59.7178 16.8975C59.4134 16.8975 59.1574 16.9583 58.9497 17.0801C58.7456 17.1982 58.5827 17.3594 58.4609 17.5635C58.3428 17.764 58.2568 17.9878 58.2031 18.2349C58.153 18.4784 58.1279 18.7272 58.1279 18.9814V19.207C58.1279 19.4613 58.153 19.7119 58.2031 19.959C58.2533 20.2061 58.3374 20.4299 58.4556 20.6304C58.5773 20.8309 58.7402 20.992 58.9443 21.1138C59.152 21.2319 59.4098 21.291 59.7178 21.291ZM64.1436 13.75V22H63.1499V13.75H64.1436ZM63.9072 18.874L63.4937 18.8579C63.4972 18.4604 63.5563 18.0934 63.6709 17.7568C63.7855 17.4167 63.9466 17.1213 64.1543 16.8706C64.362 16.62 64.609 16.4266 64.8955 16.2905C65.1855 16.1509 65.506 16.0811 65.8569 16.0811C66.1434 16.0811 66.4012 16.1204 66.6304 16.1992C66.8595 16.2744 67.0547 16.3962 67.2158 16.5645C67.3805 16.7327 67.5059 16.9512 67.5918 17.2197C67.6777 17.4847 67.7207 17.8088 67.7207 18.1919V22H66.7217V18.1812C66.7217 17.8768 66.6769 17.6333 66.5874 17.4507C66.4979 17.2645 66.3672 17.1302 66.1953 17.0479C66.0234 16.9619 65.8122 16.9189 65.5615 16.9189C65.3145 16.9189 65.0889 16.9709 64.8848 17.0747C64.6842 17.1785 64.5106 17.3218 64.3638 17.5044C64.2205 17.687 64.1077 17.8965 64.0254 18.1328C63.9466 18.3656 63.9072 18.6126 63.9072 18.874ZM72.6353 21.0063V18.0146C72.6353 17.7855 72.5887 17.5868 72.4956 17.4185C72.4061 17.2466 72.27 17.1141 72.0874 17.021C71.9048 16.9279 71.6792 16.8813 71.4106 16.8813C71.16 16.8813 70.9398 16.9243 70.75 17.0103C70.5638 17.0962 70.417 17.209 70.3096 17.3486C70.2057 17.4883 70.1538 17.6387 70.1538 17.7998H69.1602C69.1602 17.5921 69.2139 17.3862 69.3213 17.1821C69.4287 16.978 69.5827 16.7936 69.7832 16.6289C69.9873 16.4606 70.2308 16.3281 70.5137 16.2314C70.8001 16.1312 71.1188 16.0811 71.4697 16.0811C71.8923 16.0811 72.2646 16.1527 72.5869 16.2959C72.9128 16.4391 73.167 16.6558 73.3496 16.9458C73.5358 17.2323 73.6289 17.5921 73.6289 18.0254V20.7324C73.6289 20.9258 73.645 21.1317 73.6772 21.3501C73.7131 21.5685 73.765 21.7565 73.833 21.9141V22H72.7964C72.7463 21.8854 72.7069 21.7332 72.6782 21.5435C72.6496 21.3501 72.6353 21.1711 72.6353 21.0063ZM72.8071 18.4766L72.8179 19.1748H71.8135C71.5306 19.1748 71.2782 19.1981 71.0562 19.2446C70.8341 19.2876 70.6479 19.3538 70.4976 19.4434C70.3472 19.5329 70.2326 19.6457 70.1538 19.7817C70.075 19.9142 70.0356 20.07 70.0356 20.249C70.0356 20.4316 70.0768 20.5981 70.1592 20.7485C70.2415 20.8989 70.3651 21.0189 70.5298 21.1084C70.6981 21.1943 70.904 21.2373 71.1475 21.2373C71.4518 21.2373 71.7204 21.1729 71.9531 21.0439C72.1859 20.915 72.3703 20.7575 72.5063 20.5713C72.646 20.3851 72.7212 20.2043 72.7319 20.0288L73.1562 20.5068C73.1312 20.6572 73.0632 20.8237 72.9521 21.0063C72.8411 21.189 72.6925 21.3644 72.5063 21.5327C72.3237 21.6974 72.1053 21.8353 71.8511 21.9463C71.6004 22.0537 71.3175 22.1074 71.0024 22.1074C70.6086 22.1074 70.263 22.0304 69.9658 21.8765C69.6722 21.7225 69.443 21.5166 69.2783 21.2588C69.1172 20.9974 69.0366 20.7056 69.0366 20.3833C69.0366 20.0718 69.0975 19.7979 69.2192 19.5615C69.341 19.3216 69.5164 19.1229 69.7456 18.9653C69.9748 18.8042 70.2505 18.6825 70.5728 18.6001C70.895 18.5177 71.2549 18.4766 71.6523 18.4766H72.8071ZM76.1855 17.4292V22H75.1919V16.1885H76.1318L76.1855 17.4292ZM75.9492 18.874L75.5356 18.8579C75.5392 18.4604 75.5983 18.0934 75.7129 17.7568C75.8275 17.4167 75.9886 17.1213 76.1963 16.8706C76.404 16.62 76.651 16.4266 76.9375 16.2905C77.2275 16.1509 77.548 16.0811 77.8989 16.0811C78.1854 16.0811 78.4432 16.1204 78.6724 16.1992C78.9015 16.2744 79.0967 16.3962 79.2578 16.5645C79.4225 16.7327 79.5479 16.9512 79.6338 17.2197C79.7197 17.4847 79.7627 17.8088 79.7627 18.1919V22H78.7637V18.1812C78.7637 17.8768 78.7189 17.6333 78.6294 17.4507C78.5399 17.2645 78.4092 17.1302 78.2373 17.0479C78.0654 16.9619 77.8542 16.9189 77.6035 16.9189C77.3564 16.9189 77.1309 16.9709 76.9268 17.0747C76.7262 17.1785 76.5526 17.3218 76.4058 17.5044C76.2625 17.687 76.1497 17.8965 76.0674 18.1328C75.9886 18.3656 75.9492 18.6126 75.9492 18.874ZM85.0371 16.1885H85.9395V21.8765C85.9395 22.3885 85.8356 22.8254 85.6279 23.187C85.4202 23.5487 85.1302 23.8226 84.7578 24.0088C84.389 24.1986 83.9629 24.2935 83.4795 24.2935C83.279 24.2935 83.0426 24.2612 82.7705 24.1968C82.502 24.1359 82.237 24.0303 81.9756 23.8799C81.7178 23.7331 81.5011 23.5343 81.3257 23.2837L81.8467 22.6929C82.0902 22.9865 82.3444 23.1906 82.6094 23.3052C82.8779 23.4198 83.1429 23.4771 83.4043 23.4771C83.7194 23.4771 83.9915 23.418 84.2207 23.2998C84.4499 23.1816 84.6271 23.0062 84.7524 22.7734C84.8813 22.5443 84.9458 22.2614 84.9458 21.9248V17.4668L85.0371 16.1885ZM81.0356 19.1587V19.0459C81.0356 18.6019 81.0876 18.1991 81.1914 17.8374C81.2988 17.4722 81.451 17.1589 81.6479 16.8975C81.8485 16.6361 82.0902 16.4355 82.373 16.2959C82.6559 16.1527 82.9746 16.0811 83.3291 16.0811C83.6943 16.0811 84.013 16.1455 84.2852 16.2744C84.5609 16.3997 84.7936 16.5841 84.9834 16.8276C85.1768 17.0675 85.3289 17.3576 85.4399 17.6978C85.5509 18.0379 85.6279 18.4229 85.6709 18.8525V19.3467C85.6315 19.7728 85.5545 20.1559 85.4399 20.4961C85.3289 20.8363 85.1768 21.1263 84.9834 21.3662C84.7936 21.6061 84.5609 21.7905 84.2852 21.9194C84.0094 22.0448 83.6872 22.1074 83.3184 22.1074C82.971 22.1074 82.6559 22.034 82.373 21.8872C82.0938 21.7404 81.8538 21.5345 81.6533 21.2695C81.4528 21.0046 81.2988 20.693 81.1914 20.335C81.0876 19.9733 81.0356 19.5812 81.0356 19.1587ZM82.0293 19.0459V19.1587C82.0293 19.4487 82.0579 19.7209 82.1152 19.9751C82.1761 20.2293 82.2674 20.4531 82.3892 20.6465C82.5145 20.8398 82.6738 20.992 82.8672 21.103C83.0605 21.2104 83.2915 21.2642 83.5601 21.2642C83.8895 21.2642 84.1616 21.1943 84.3765 21.0547C84.5913 20.915 84.7614 20.7306 84.8867 20.5015C85.0156 20.2723 85.1159 20.0234 85.1875 19.7549V18.4604C85.1481 18.2635 85.0872 18.0737 85.0049 17.8911C84.9261 17.7049 84.8223 17.5402 84.6934 17.397C84.568 17.2502 84.4123 17.1338 84.2261 17.0479C84.0399 16.9619 83.8215 16.9189 83.5708 16.9189C83.2987 16.9189 83.0641 16.9762 82.8672 17.0908C82.6738 17.2018 82.5145 17.3558 82.3892 17.5527C82.2674 17.7461 82.1761 17.9717 82.1152 18.2295C82.0579 18.4837 82.0293 18.7559 82.0293 19.0459ZM89.8604 22.1074C89.4557 22.1074 89.0887 22.0394 88.7593 21.9033C88.4334 21.7637 88.1523 21.5685 87.916 21.3179C87.6833 21.0672 87.5042 20.77 87.3789 20.4263C87.2536 20.0825 87.1909 19.7065 87.1909 19.2983V19.0728C87.1909 18.6001 87.2607 18.1794 87.4004 17.8105C87.54 17.4382 87.7298 17.123 87.9697 16.8652C88.2096 16.6074 88.4818 16.4123 88.7861 16.2798C89.0905 16.1473 89.4056 16.0811 89.7314 16.0811C90.1468 16.0811 90.5049 16.1527 90.8057 16.2959C91.11 16.4391 91.3589 16.6396 91.5522 16.8975C91.7456 17.1517 91.8888 17.4525 91.9819 17.7998C92.075 18.1436 92.1216 18.5195 92.1216 18.9277V19.3735H87.7817V18.5625H91.1279V18.4873C91.1136 18.2295 91.0599 17.9788 90.9668 17.7354C90.8773 17.4919 90.734 17.2913 90.5371 17.1338C90.3402 16.9762 90.0716 16.8975 89.7314 16.8975C89.5059 16.8975 89.2982 16.9458 89.1084 17.0425C88.9186 17.1356 88.7557 17.2752 88.6196 17.4614C88.4836 17.6476 88.3779 17.875 88.3027 18.1436C88.2275 18.4121 88.1899 18.7218 88.1899 19.0728V19.2983C88.1899 19.5741 88.2275 19.8337 88.3027 20.0771C88.3815 20.3171 88.4943 20.5283 88.6411 20.7109C88.7915 20.8936 88.9723 21.0368 89.1836 21.1406C89.3984 21.2445 89.6419 21.2964 89.9141 21.2964C90.265 21.2964 90.5622 21.2248 90.8057 21.0815C91.0492 20.9383 91.2622 20.7467 91.4448 20.5068L92.0464 20.9849C91.9211 21.1746 91.7617 21.3555 91.5684 21.5273C91.375 21.6992 91.1369 21.8389 90.854 21.9463C90.5747 22.0537 90.2435 22.1074 89.8604 22.1074ZM96.6655 20.4585C96.6655 20.3153 96.6333 20.1828 96.5688 20.061C96.508 19.9357 96.3809 19.8229 96.1875 19.7227C95.9977 19.6188 95.7113 19.5293 95.3281 19.4541C95.0059 19.3861 94.714 19.3055 94.4526 19.2124C94.1948 19.1193 93.9746 19.0065 93.792 18.874C93.613 18.7415 93.4751 18.5858 93.3784 18.4067C93.2817 18.2277 93.2334 18.0182 93.2334 17.7783C93.2334 17.5492 93.2835 17.3325 93.3838 17.1284C93.4876 16.9243 93.6326 16.7435 93.8188 16.5859C94.0086 16.4284 94.236 16.3049 94.501 16.2153C94.766 16.1258 95.0614 16.0811 95.3872 16.0811C95.8527 16.0811 96.2502 16.1634 96.5796 16.3281C96.909 16.4928 97.1615 16.7131 97.3369 16.9888C97.5124 17.2609 97.6001 17.5635 97.6001 17.8965H96.6064C96.6064 17.7354 96.5581 17.5796 96.4614 17.4292C96.3683 17.2752 96.2305 17.1481 96.0479 17.0479C95.8688 16.9476 95.6486 16.8975 95.3872 16.8975C95.1115 16.8975 94.8877 16.9404 94.7158 17.0264C94.5475 17.1087 94.424 17.2144 94.3452 17.3433C94.27 17.4722 94.2324 17.6082 94.2324 17.7515C94.2324 17.8589 94.2503 17.9556 94.2861 18.0415C94.3255 18.1239 94.3936 18.2008 94.4902 18.2725C94.5869 18.3405 94.723 18.4049 94.8984 18.4658C95.0739 18.5267 95.2977 18.5876 95.5698 18.6484C96.0461 18.7559 96.4382 18.8848 96.7461 19.0352C97.054 19.1855 97.2832 19.37 97.4336 19.5884C97.584 19.8068 97.6592 20.0718 97.6592 20.3833C97.6592 20.6375 97.6055 20.8703 97.498 21.0815C97.3942 21.2928 97.242 21.4754 97.0415 21.6294C96.8446 21.7798 96.6082 21.8979 96.3325 21.9839C96.0604 22.0662 95.7542 22.1074 95.4141 22.1074C94.902 22.1074 94.4688 22.0161 94.1143 21.8335C93.7598 21.6509 93.4912 21.4146 93.3086 21.1245C93.126 20.8345 93.0347 20.5283 93.0347 20.2061H94.0337C94.048 20.4782 94.1268 20.6948 94.27 20.856C94.4132 21.0135 94.5887 21.1263 94.7964 21.1943C95.0041 21.2588 95.21 21.291 95.4141 21.291C95.6862 21.291 95.9136 21.2552 96.0962 21.1836C96.2824 21.112 96.4238 21.0135 96.5205 20.8882C96.6172 20.7629 96.6655 20.6196 96.6655 20.4585Z" fill="#9C9D9E"/>
<path d="M29.3818 59.1797H30.4131V64.4702C30.4131 65.0575 30.2824 65.5462 30.021 65.9365C29.7596 66.3268 29.4123 66.6204 28.979 66.8174C28.5493 67.0107 28.082 67.1074 27.5771 67.1074C27.0472 67.1074 26.5674 67.0107 26.1377 66.8174C25.7116 66.6204 25.3732 66.3268 25.1226 65.9365C24.8755 65.5462 24.752 65.0575 24.752 64.4702V59.1797H25.7778V64.4702C25.7778 64.8784 25.853 65.215 26.0034 65.48C26.1538 65.745 26.3633 65.9419 26.6318 66.0708C26.904 66.1997 27.2191 66.2642 27.5771 66.2642C27.9388 66.2642 28.2539 66.1997 28.5225 66.0708C28.7946 65.9419 29.0059 65.745 29.1562 65.48C29.3066 65.215 29.3818 64.8784 29.3818 64.4702V59.1797ZM32.8838 62.4292V67H31.8901V61.1885H32.8301L32.8838 62.4292ZM32.6475 63.874L32.2339 63.8579C32.2375 63.4604 32.2965 63.0934 32.4111 62.7568C32.5257 62.4167 32.6868 62.1213 32.8945 61.8706C33.1022 61.62 33.3493 61.4266 33.6357 61.2905C33.9258 61.1509 34.2463 61.0811 34.5972 61.0811C34.8836 61.0811 35.1414 61.1204 35.3706 61.1992C35.5998 61.2744 35.7949 61.3962 35.9561 61.5645C36.1208 61.7327 36.2461 61.9512 36.332 62.2197C36.418 62.4847 36.4609 62.8088 36.4609 63.1919V67H35.4619V63.1812C35.4619 62.8768 35.4172 62.6333 35.3276 62.4507C35.2381 62.2645 35.1074 62.1302 34.9355 62.0479C34.7637 61.9619 34.5524 61.9189 34.3018 61.9189C34.0547 61.9189 33.8291 61.9709 33.625 62.0747C33.4245 62.1785 33.2508 62.3218 33.104 62.5044C32.9608 62.687 32.848 62.8965 32.7656 63.1328C32.6868 63.3656 32.6475 63.6126 32.6475 63.874ZM38.9639 62.3057V69.2344H37.9648V61.1885H38.8779L38.9639 62.3057ZM42.8794 64.0459V64.1587C42.8794 64.5812 42.8293 64.9733 42.729 65.335C42.6287 65.693 42.4819 66.0046 42.2886 66.2695C42.0988 66.5345 41.8643 66.7404 41.585 66.8872C41.3057 67.034 40.9852 67.1074 40.6235 67.1074C40.2547 67.1074 39.9289 67.0465 39.646 66.9248C39.3631 66.8031 39.1232 66.6258 38.9263 66.3931C38.7293 66.1603 38.5718 65.881 38.4536 65.5552C38.339 65.2293 38.2603 64.8623 38.2173 64.4541V63.8525C38.2603 63.4229 38.3408 63.0379 38.459 62.6978C38.5771 62.3576 38.7329 62.0675 38.9263 61.8276C39.1232 61.5841 39.3613 61.3997 39.6406 61.2744C39.9199 61.1455 40.2422 61.0811 40.6074 61.0811C40.9727 61.0811 41.2967 61.1527 41.5796 61.2959C41.8625 61.4355 42.1006 61.6361 42.2939 61.8975C42.4873 62.1589 42.6323 62.4722 42.729 62.8374C42.8293 63.1991 42.8794 63.6019 42.8794 64.0459ZM41.8804 64.1587V64.0459C41.8804 63.7559 41.8499 63.4837 41.7891 63.2295C41.7282 62.9717 41.6333 62.7461 41.5044 62.5527C41.3791 62.3558 41.2179 62.2018 41.021 62.0908C40.8241 61.9762 40.5895 61.9189 40.3174 61.9189C40.0667 61.9189 39.8483 61.9619 39.6621 62.0479C39.4795 62.1338 39.3237 62.2502 39.1948 62.397C39.0659 62.5402 38.9603 62.7049 38.8779 62.8911C38.7992 63.0737 38.7401 63.2635 38.7007 63.4604V64.8516C38.7723 65.1022 38.8726 65.3385 39.0015 65.5605C39.1304 65.779 39.3022 65.9562 39.5171 66.0923C39.7319 66.2248 40.0023 66.291 40.3281 66.291C40.5967 66.291 40.8276 66.2355 41.021 66.1245C41.2179 66.0099 41.3791 65.8542 41.5044 65.6572C41.6333 65.4603 41.7282 65.2347 41.7891 64.9805C41.8499 64.7227 41.8804 64.4487 41.8804 64.1587ZM45.1406 62.1016V67H44.147V61.1885H45.1138L45.1406 62.1016ZM46.9561 61.1562L46.9507 62.0801C46.8683 62.0622 46.7896 62.0514 46.7144 62.0479C46.6427 62.0407 46.5604 62.0371 46.4673 62.0371C46.2381 62.0371 46.0358 62.0729 45.8604 62.1445C45.6849 62.2161 45.5363 62.3164 45.4146 62.4453C45.2928 62.5742 45.1961 62.7282 45.1245 62.9072C45.0565 63.0827 45.0117 63.276 44.9902 63.4873L44.7109 63.6484C44.7109 63.2975 44.745 62.9681 44.813 62.6602C44.8846 62.3522 44.9938 62.0801 45.1406 61.8438C45.2874 61.6038 45.4736 61.4176 45.6992 61.2852C45.9284 61.1491 46.2005 61.0811 46.5156 61.0811C46.5872 61.0811 46.6696 61.09 46.7627 61.1079C46.8558 61.1222 46.9202 61.1383 46.9561 61.1562ZM50.1787 67.1074C49.7741 67.1074 49.4071 67.0394 49.0776 66.9033C48.7518 66.7637 48.4707 66.5685 48.2344 66.3179C48.0016 66.0672 47.8226 65.77 47.6973 65.4263C47.5719 65.0825 47.5093 64.7065 47.5093 64.2983V64.0728C47.5093 63.6001 47.5791 63.1794 47.7188 62.8105C47.8584 62.4382 48.0482 62.123 48.2881 61.8652C48.528 61.6074 48.8001 61.4123 49.1045 61.2798C49.4089 61.1473 49.724 61.0811 50.0498 61.0811C50.4652 61.0811 50.8232 61.1527 51.124 61.2959C51.4284 61.4391 51.6772 61.6396 51.8706 61.8975C52.064 62.1517 52.2072 62.4525 52.3003 62.7998C52.3934 63.1436 52.4399 63.5195 52.4399 63.9277V64.3735H48.1001V63.5625H51.4463V63.4873C51.432 63.2295 51.3783 62.9788 51.2852 62.7354C51.1956 62.4919 51.0524 62.2913 50.8555 62.1338C50.6585 61.9762 50.39 61.8975 50.0498 61.8975C49.8242 61.8975 49.6165 61.9458 49.4268 62.0425C49.237 62.1356 49.0741 62.2752 48.938 62.4614C48.8019 62.6476 48.6963 62.875 48.6211 63.1436C48.5459 63.4121 48.5083 63.7218 48.5083 64.0728V64.2983C48.5083 64.5741 48.5459 64.8337 48.6211 65.0771C48.6999 65.3171 48.8127 65.5283 48.9595 65.7109C49.1099 65.8936 49.2907 66.0368 49.502 66.1406C49.7168 66.2445 49.9603 66.2964 50.2324 66.2964C50.5833 66.2964 50.8805 66.2248 51.124 66.0815C51.3675 65.9383 51.5806 65.7467 51.7632 65.5068L52.3647 65.9849C52.2394 66.1746 52.0801 66.3555 51.8867 66.5273C51.6934 66.6992 51.4552 66.8389 51.1724 66.9463C50.8931 67.0537 50.5618 67.1074 50.1787 67.1074ZM55.9258 66.291C56.1621 66.291 56.3805 66.2427 56.5811 66.146C56.7816 66.0493 56.9463 65.9168 57.0752 65.7485C57.2041 65.5767 57.2775 65.3815 57.2954 65.1631H58.2407C58.2228 65.5068 58.1064 65.8273 57.8916 66.1245C57.6803 66.4181 57.4028 66.6562 57.0591 66.8389C56.7153 67.0179 56.3376 67.1074 55.9258 67.1074C55.4889 67.1074 55.1076 67.0304 54.7817 66.8765C54.4595 66.7225 54.1909 66.5112 53.9761 66.2427C53.7648 65.9741 53.6055 65.6662 53.498 65.3188C53.3942 64.9679 53.3423 64.5973 53.3423 64.207V63.9814C53.3423 63.5911 53.3942 63.2223 53.498 62.875C53.6055 62.5241 53.7648 62.2144 53.9761 61.9458C54.1909 61.6772 54.4595 61.466 54.7817 61.312C55.1076 61.158 55.4889 61.0811 55.9258 61.0811C56.3805 61.0811 56.778 61.1742 57.1182 61.3604C57.4583 61.543 57.7251 61.7936 57.9185 62.1123C58.1154 62.4274 58.2228 62.7855 58.2407 63.1865H57.2954C57.2775 62.9466 57.2095 62.73 57.0913 62.5366C56.9767 62.3433 56.8192 62.1893 56.6187 62.0747C56.4217 61.9565 56.1908 61.8975 55.9258 61.8975C55.6214 61.8975 55.3654 61.9583 55.1577 62.0801C54.9536 62.1982 54.7907 62.3594 54.6689 62.5635C54.5508 62.764 54.4648 62.9878 54.4111 63.2349C54.361 63.4784 54.3359 63.7272 54.3359 63.9814V64.207C54.3359 64.4613 54.361 64.7119 54.4111 64.959C54.4613 65.2061 54.5454 65.4299 54.6636 65.6304C54.7853 65.8309 54.9482 65.992 55.1523 66.1138C55.36 66.2319 55.6178 66.291 55.9258 66.291ZM61.7695 67.1074C61.3649 67.1074 60.9979 67.0394 60.6685 66.9033C60.3426 66.7637 60.0615 66.5685 59.8252 66.3179C59.5924 66.0672 59.4134 65.77 59.2881 65.4263C59.1628 65.0825 59.1001 64.7065 59.1001 64.2983V64.0728C59.1001 63.6001 59.1699 63.1794 59.3096 62.8105C59.4492 62.4382 59.639 62.123 59.8789 61.8652C60.1188 61.6074 60.391 61.4123 60.6953 61.2798C60.9997 61.1473 61.3148 61.0811 61.6406 61.0811C62.056 61.0811 62.4141 61.1527 62.7148 61.2959C63.0192 61.4391 63.2681 61.6396 63.4614 61.8975C63.6548 62.1517 63.798 62.4525 63.8911 62.7998C63.9842 63.1436 64.0308 63.5195 64.0308 63.9277V64.3735H59.6909V63.5625H63.0371V63.4873C63.0228 63.2295 62.9691 62.9788 62.876 62.7354C62.7865 62.4919 62.6432 62.2913 62.4463 62.1338C62.2493 61.9762 61.9808 61.8975 61.6406 61.8975C61.415 61.8975 61.2074 61.9458 61.0176 62.0425C60.8278 62.1356 60.6649 62.2752 60.5288 62.4614C60.3927 62.6476 60.2871 62.875 60.2119 63.1436C60.1367 63.4121 60.0991 63.7218 60.0991 64.0728V64.2983C60.0991 64.5741 60.1367 64.8337 60.2119 65.0771C60.2907 65.3171 60.4035 65.5283 60.5503 65.7109C60.7007 65.8936 60.8815 66.0368 61.0928 66.1406C61.3076 66.2445 61.5511 66.2964 61.8232 66.2964C62.1742 66.2964 62.4714 66.2248 62.7148 66.0815C62.9583 65.9383 63.1714 65.7467 63.354 65.5068L63.9556 65.9849C63.8302 66.1746 63.6709 66.3555 63.4775 66.5273C63.2842 66.6992 63.0461 66.8389 62.7632 66.9463C62.4839 67.0537 62.1527 67.1074 61.7695 67.1074ZM68.854 65.8721V58.75H69.853V67H68.9399L68.854 65.8721ZM64.9438 64.1587V64.0459C64.9438 63.6019 64.9976 63.1991 65.105 62.8374C65.216 62.4722 65.3717 62.1589 65.5723 61.8975C65.7764 61.6361 66.0181 61.4355 66.2974 61.2959C66.5802 61.1527 66.8953 61.0811 67.2427 61.0811C67.6079 61.0811 67.9266 61.1455 68.1987 61.2744C68.4744 61.3997 68.7072 61.5841 68.897 61.8276C69.0903 62.0675 69.2425 62.3576 69.3535 62.6978C69.4645 63.0379 69.5415 63.4229 69.5845 63.8525V64.3467C69.5451 64.7728 69.4681 65.1559 69.3535 65.4961C69.2425 65.8363 69.0903 66.1263 68.897 66.3662C68.7072 66.6061 68.4744 66.7905 68.1987 66.9194C67.923 67.0448 67.6007 67.1074 67.2319 67.1074C66.8918 67.1074 66.5802 67.034 66.2974 66.8872C66.0181 66.7404 65.7764 66.5345 65.5723 66.2695C65.3717 66.0046 65.216 65.693 65.105 65.335C64.9976 64.9733 64.9438 64.5812 64.9438 64.1587ZM65.9429 64.0459V64.1587C65.9429 64.4487 65.9715 64.7209 66.0288 64.9751C66.0897 65.2293 66.1828 65.4531 66.3081 65.6465C66.4334 65.8398 66.5928 65.992 66.7861 66.103C66.9795 66.2104 67.2104 66.2642 67.479 66.2642C67.8084 66.2642 68.0788 66.1943 68.29 66.0547C68.5049 65.915 68.6768 65.7306 68.8057 65.5015C68.9346 65.2723 69.0348 65.0234 69.1064 64.7549V63.4604C69.0635 63.2635 69.0008 63.0737 68.9185 62.8911C68.8397 62.7049 68.7358 62.5402 68.6069 62.397C68.4816 62.2502 68.3258 62.1338 68.1396 62.0479C67.957 61.9619 67.7404 61.9189 67.4897 61.9189C67.2176 61.9189 66.9831 61.9762 66.7861 62.0908C66.5928 62.2018 66.4334 62.3558 66.3081 62.5527C66.1828 62.7461 66.0897 62.9717 66.0288 63.2295C65.9715 63.4837 65.9429 63.7559 65.9429 64.0459ZM73.8115 67.1074C73.4069 67.1074 73.0399 67.0394 72.7104 66.9033C72.3846 66.7637 72.1035 66.5685 71.8672 66.3179C71.6344 66.0672 71.4554 65.77 71.3301 65.4263C71.2048 65.0825 71.1421 64.7065 71.1421 64.2983V64.0728C71.1421 63.6001 71.2119 63.1794 71.3516 62.8105C71.4912 62.4382 71.681 62.123 71.9209 61.8652C72.1608 61.6074 72.4329 61.4123 72.7373 61.2798C73.0417 61.1473 73.3568 61.0811 73.6826 61.0811C74.098 61.0811 74.4561 61.1527 74.7568 61.2959C75.0612 61.4391 75.3101 61.6396 75.5034 61.8975C75.6968 62.1517 75.84 62.4525 75.9331 62.7998C76.0262 63.1436 76.0728 63.5195 76.0728 63.9277V64.3735H71.7329V63.5625H75.0791V63.4873C75.0648 63.2295 75.0111 62.9788 74.918 62.7354C74.8285 62.4919 74.6852 62.2913 74.4883 62.1338C74.2913 61.9762 74.0228 61.8975 73.6826 61.8975C73.457 61.8975 73.2493 61.9458 73.0596 62.0425C72.8698 62.1356 72.7069 62.2752 72.5708 62.4614C72.4347 62.6476 72.3291 62.875 72.2539 63.1436C72.1787 63.4121 72.1411 63.7218 72.1411 64.0728V64.2983C72.1411 64.5741 72.1787 64.8337 72.2539 65.0771C72.3327 65.3171 72.4455 65.5283 72.5923 65.7109C72.7427 65.8936 72.9235 66.0368 73.1348 66.1406C73.3496 66.2445 73.5931 66.2964 73.8652 66.2964C74.2161 66.2964 74.5133 66.2248 74.7568 66.0815C75.0003 65.9383 75.2134 65.7467 75.396 65.5068L75.9976 65.9849C75.8722 66.1746 75.7129 66.3555 75.5195 66.5273C75.3262 66.6992 75.0881 66.8389 74.8052 66.9463C74.5259 67.0537 74.1947 67.1074 73.8115 67.1074ZM78.2266 62.4292V67H77.2329V61.1885H78.1729L78.2266 62.4292ZM77.9902 63.874L77.5767 63.8579C77.5802 63.4604 77.6393 63.0934 77.7539 62.7568C77.8685 62.4167 78.0296 62.1213 78.2373 61.8706C78.445 61.62 78.6921 61.4266 78.9785 61.2905C79.2686 61.1509 79.589 61.0811 79.9399 61.0811C80.2264 61.0811 80.4842 61.1204 80.7134 61.1992C80.9425 61.2744 81.1377 61.3962 81.2988 61.5645C81.4635 61.7327 81.5889 61.9512 81.6748 62.2197C81.7607 62.4847 81.8037 62.8088 81.8037 63.1919V67H80.8047V63.1812C80.8047 62.8768 80.7599 62.6333 80.6704 62.4507C80.5809 62.2645 80.4502 62.1302 80.2783 62.0479C80.1064 61.9619 79.8952 61.9189 79.6445 61.9189C79.3975 61.9189 79.1719 61.9709 78.9678 62.0747C78.7673 62.1785 78.5936 62.3218 78.4468 62.5044C78.3035 62.687 78.1908 62.8965 78.1084 63.1328C78.0296 63.3656 77.9902 63.6126 77.9902 63.874ZM85.7461 61.1885V61.9512H82.604V61.1885H85.7461ZM83.6675 59.7759H84.6611V65.5605C84.6611 65.7575 84.6916 65.9061 84.7524 66.0063C84.8133 66.1066 84.8921 66.1729 84.9888 66.2051C85.0854 66.2373 85.1893 66.2534 85.3003 66.2534C85.3826 66.2534 85.4686 66.2463 85.5581 66.2319C85.6512 66.214 85.721 66.1997 85.7676 66.189L85.7729 67C85.6942 67.0251 85.5903 67.0483 85.4614 67.0698C85.3361 67.0949 85.1839 67.1074 85.0049 67.1074C84.7614 67.1074 84.5376 67.0591 84.3335 66.9624C84.1294 66.8657 83.9665 66.7046 83.8447 66.479C83.7266 66.2498 83.6675 65.9419 83.6675 65.5552V59.7759ZM89.3232 67.1074C88.9186 67.1074 88.5516 67.0394 88.2222 66.9033C87.8963 66.7637 87.6152 66.5685 87.3789 66.3179C87.1462 66.0672 86.9671 65.77 86.8418 65.4263C86.7165 65.0825 86.6538 64.7065 86.6538 64.2983V64.0728C86.6538 63.6001 86.7236 63.1794 86.8633 62.8105C87.0029 62.4382 87.1927 62.123 87.4326 61.8652C87.6725 61.6074 87.9447 61.4123 88.249 61.2798C88.5534 61.1473 88.8685 61.0811 89.1943 61.0811C89.6097 61.0811 89.9678 61.1527 90.2686 61.2959C90.5729 61.4391 90.8218 61.6396 91.0151 61.8975C91.2085 62.1517 91.3517 62.4525 91.4448 62.7998C91.5379 63.1436 91.5845 63.5195 91.5845 63.9277V64.3735H87.2446V63.5625H90.5908V63.4873C90.5765 63.2295 90.5228 62.9788 90.4297 62.7354C90.3402 62.4919 90.1969 62.2913 90 62.1338C89.8031 61.9762 89.5345 61.8975 89.1943 61.8975C88.9688 61.8975 88.7611 61.9458 88.5713 62.0425C88.3815 62.1356 88.2186 62.2752 88.0825 62.4614C87.9465 62.6476 87.8408 62.875 87.7656 63.1436C87.6904 63.4121 87.6528 63.7218 87.6528 64.0728V64.2983C87.6528 64.5741 87.6904 64.8337 87.7656 65.0771C87.8444 65.3171 87.9572 65.5283 88.104 65.7109C88.2544 65.8936 88.4352 66.0368 88.6465 66.1406C88.8613 66.2445 89.1048 66.2964 89.377 66.2964C89.7279 66.2964 90.0251 66.2248 90.2686 66.0815C90.512 65.9383 90.7251 65.7467 90.9077 65.5068L91.5093 65.9849C91.384 66.1746 91.2246 66.3555 91.0312 66.5273C90.8379 66.6992 90.5998 66.8389 90.3169 66.9463C90.0376 67.0537 89.7064 67.1074 89.3232 67.1074ZM96.4077 65.8721V58.75H97.4067V67H96.4937L96.4077 65.8721ZM92.4976 64.1587V64.0459C92.4976 63.6019 92.5513 63.1991 92.6587 62.8374C92.7697 62.4722 92.9255 62.1589 93.126 61.8975C93.3301 61.6361 93.5718 61.4355 93.8511 61.2959C94.134 61.1527 94.4491 61.0811 94.7964 61.0811C95.1616 61.0811 95.4803 61.1455 95.7524 61.2744C96.0282 61.3997 96.2609 61.5841 96.4507 61.8276C96.644 62.0675 96.7962 62.3576 96.9072 62.6978C97.0182 63.0379 97.0952 63.4229 97.1382 63.8525V64.3467C97.0988 64.7728 97.0218 65.1559 96.9072 65.4961C96.7962 65.8363 96.644 66.1263 96.4507 66.3662C96.2609 66.6061 96.0282 66.7905 95.7524 66.9194C95.4767 67.0448 95.1545 67.1074 94.7856 67.1074C94.4455 67.1074 94.134 67.034 93.8511 66.8872C93.5718 66.7404 93.3301 66.5345 93.126 66.2695C92.9255 66.0046 92.7697 65.693 92.6587 65.335C92.5513 64.9733 92.4976 64.5812 92.4976 64.1587ZM93.4966 64.0459V64.1587C93.4966 64.4487 93.5252 64.7209 93.5825 64.9751C93.6434 65.2293 93.7365 65.4531 93.8618 65.6465C93.9871 65.8398 94.1465 65.992 94.3398 66.103C94.5332 66.2104 94.7642 66.2642 95.0327 66.2642C95.3621 66.2642 95.6325 66.1943 95.8438 66.0547C96.0586 65.915 96.2305 65.7306 96.3594 65.5015C96.4883 65.2723 96.5885 65.0234 96.6602 64.7549V63.4604C96.6172 63.2635 96.5545 63.0737 96.4722 62.8911C96.3934 62.7049 96.2896 62.5402 96.1606 62.397C96.0353 62.2502 95.8796 62.1338 95.6934 62.0479C95.5107 61.9619 95.2941 61.9189 95.0435 61.9189C94.7713 61.9189 94.5368 61.9762 94.3398 62.0908C94.1465 62.2018 93.9871 62.3558 93.8618 62.5527C93.7365 62.7461 93.6434 62.9717 93.5825 63.2295C93.5252 63.4837 93.4966 63.7559 93.4966 64.0459Z" fill="#FFA500"/>
<path d="M26.1001 32.6011H26.8091C27.1564 32.6011 27.4429 32.5438 27.6685 32.4292C27.8976 32.311 28.0677 32.1517 28.1787 31.9512C28.2933 31.7471 28.3506 31.5179 28.3506 31.2637C28.3506 30.9629 28.3005 30.7104 28.2002 30.5063C28.0999 30.3022 27.9495 30.1483 27.749 30.0444C27.5485 29.9406 27.2943 29.8887 26.9863 29.8887C26.707 29.8887 26.46 29.9442 26.2451 30.0552C26.0339 30.1626 25.8674 30.3166 25.7456 30.5171C25.6274 30.7176 25.5684 30.9539 25.5684 31.2261H24.5747C24.5747 30.8286 24.675 30.467 24.8755 30.1411C25.076 29.8153 25.3571 29.5557 25.7188 29.3623C26.084 29.1689 26.5065 29.0723 26.9863 29.0723C27.459 29.0723 27.8726 29.1564 28.2271 29.3247C28.5815 29.4894 28.8573 29.7365 29.0542 30.0659C29.2511 30.3918 29.3496 30.7982 29.3496 31.2852C29.3496 31.4821 29.3031 31.6934 29.21 31.9189C29.1204 32.141 28.979 32.3486 28.7856 32.542C28.5959 32.7354 28.3488 32.8947 28.0444 33.02C27.7401 33.1418 27.3748 33.2026 26.9487 33.2026H26.1001V32.6011ZM26.1001 33.4175V32.8213H26.9487C27.4465 32.8213 27.8582 32.8804 28.1841 32.9985C28.5099 33.1167 28.766 33.2743 28.9521 33.4712C29.1419 33.6681 29.2744 33.8848 29.3496 34.1211C29.4284 34.3538 29.4678 34.5866 29.4678 34.8193C29.4678 35.1846 29.4051 35.5086 29.2798 35.7915C29.158 36.0744 28.9844 36.3143 28.7588 36.5112C28.5368 36.7082 28.2754 36.8568 27.9746 36.957C27.6738 37.0573 27.3462 37.1074 26.9917 37.1074C26.6515 37.1074 26.3311 37.0591 26.0303 36.9624C25.7331 36.8657 25.4699 36.7261 25.2407 36.5435C25.0116 36.3573 24.8325 36.1299 24.7036 35.8613C24.5747 35.5892 24.5103 35.2795 24.5103 34.9321H25.5039C25.5039 35.2043 25.563 35.4424 25.6812 35.6465C25.8029 35.8506 25.9748 36.0099 26.1968 36.1245C26.4224 36.2355 26.6873 36.291 26.9917 36.291C27.2961 36.291 27.5575 36.2391 27.7759 36.1353C27.9979 36.0278 28.168 35.8667 28.2861 35.6519C28.4079 35.437 28.4688 35.1667 28.4688 34.8408C28.4688 34.515 28.4007 34.2482 28.2646 34.0405C28.1286 33.8293 27.9352 33.6735 27.6846 33.5732C27.4375 33.4694 27.1457 33.4175 26.8091 33.4175H26.1001ZM33.0127 33.2671V34.0835H30.3916V33.2671H33.0127ZM35.6177 36.3984L37.2344 31.1885H38.2979L35.9668 37.897C35.9131 38.0402 35.8415 38.1942 35.752 38.3589C35.666 38.5272 35.555 38.6865 35.4189 38.8369C35.2829 38.9873 35.1182 39.109 34.9248 39.2021C34.735 39.2988 34.5076 39.3472 34.2427 39.3472C34.1639 39.3472 34.0636 39.3364 33.9419 39.3149C33.8201 39.2935 33.7342 39.2756 33.6841 39.2612L33.6787 38.4556C33.7074 38.4591 33.7521 38.4627 33.813 38.4663C33.8774 38.4735 33.9222 38.4771 33.9473 38.4771C34.1729 38.4771 34.3644 38.4466 34.522 38.3857C34.6795 38.3285 34.812 38.23 34.9194 38.0903C35.0304 37.9543 35.1253 37.7663 35.2041 37.5264L35.6177 36.3984ZM34.4307 31.1885L35.9399 35.7002L36.1978 36.7476L35.4834 37.1128L33.3457 31.1885H34.4307ZM41.5312 37.1074C41.1266 37.1074 40.7596 37.0394 40.4302 36.9033C40.1043 36.7637 39.8232 36.5685 39.5869 36.3179C39.3542 36.0672 39.1751 35.77 39.0498 35.4263C38.9245 35.0825 38.8618 34.7065 38.8618 34.2983V34.0728C38.8618 33.6001 38.9316 33.1794 39.0713 32.8105C39.2109 32.4382 39.4007 32.123 39.6406 31.8652C39.8805 31.6074 40.1527 31.4123 40.457 31.2798C40.7614 31.1473 41.0765 31.0811 41.4023 31.0811C41.8177 31.0811 42.1758 31.1527 42.4766 31.2959C42.7809 31.4391 43.0298 31.6396 43.2231 31.8975C43.4165 32.1517 43.5597 32.4525 43.6528 32.7998C43.7459 33.1436 43.7925 33.5195 43.7925 33.9277V34.3735H39.4526V33.5625H42.7988V33.4873C42.7845 33.2295 42.7308 32.9788 42.6377 32.7354C42.5482 32.4919 42.4049 32.2913 42.208 32.1338C42.0111 31.9762 41.7425 31.8975 41.4023 31.8975C41.1768 31.8975 40.9691 31.9458 40.7793 32.0425C40.5895 32.1356 40.4266 32.2752 40.2905 32.4614C40.1545 32.6476 40.0488 32.875 39.9736 33.1436C39.8984 33.4121 39.8608 33.7218 39.8608 34.0728V34.2983C39.8608 34.5741 39.8984 34.8337 39.9736 35.0771C40.0524 35.3171 40.1652 35.5283 40.312 35.7109C40.4624 35.8936 40.6432 36.0368 40.8545 36.1406C41.0693 36.2445 41.3128 36.2964 41.585 36.2964C41.9359 36.2964 42.2331 36.2248 42.4766 36.0815C42.7201 35.9383 42.9331 35.7467 43.1157 35.5068L43.7173 35.9849C43.592 36.1746 43.4326 36.3555 43.2393 36.5273C43.0459 36.6992 42.8078 36.8389 42.5249 36.9463C42.2456 37.0537 41.9144 37.1074 41.5312 37.1074ZM48.3794 36.0063V33.0146C48.3794 32.7855 48.3328 32.5868 48.2397 32.4185C48.1502 32.2466 48.0142 32.1141 47.8315 32.021C47.6489 31.9279 47.4233 31.8813 47.1548 31.8813C46.9041 31.8813 46.6839 31.9243 46.4941 32.0103C46.3079 32.0962 46.1611 32.209 46.0537 32.3486C45.9499 32.4883 45.8979 32.6387 45.8979 32.7998H44.9043C44.9043 32.5921 44.958 32.3862 45.0654 32.1821C45.1729 31.978 45.3268 31.7936 45.5273 31.6289C45.7314 31.4606 45.9749 31.3281 46.2578 31.2314C46.5443 31.1312 46.863 31.0811 47.2139 31.0811C47.6364 31.0811 48.0088 31.1527 48.3311 31.2959C48.6569 31.4391 48.9111 31.6558 49.0938 31.9458C49.2799 32.2323 49.373 32.5921 49.373 33.0254V35.7324C49.373 35.9258 49.3892 36.1317 49.4214 36.3501C49.4572 36.5685 49.5091 36.7565 49.5771 36.9141V37H48.5405C48.4904 36.8854 48.451 36.7332 48.4224 36.5435C48.3937 36.3501 48.3794 36.1711 48.3794 36.0063ZM48.5513 33.4766L48.562 34.1748H47.5576C47.2747 34.1748 47.0223 34.1981 46.8003 34.2446C46.5783 34.2876 46.3921 34.3538 46.2417 34.4434C46.0913 34.5329 45.9767 34.6457 45.8979 34.7817C45.8192 34.9142 45.7798 35.07 45.7798 35.249C45.7798 35.4316 45.821 35.5981 45.9033 35.7485C45.9857 35.8989 46.1092 36.0189 46.2739 36.1084C46.4422 36.1943 46.6481 36.2373 46.8916 36.2373C47.196 36.2373 47.4645 36.1729 47.6973 36.0439C47.93 35.915 48.1144 35.7575 48.2505 35.5713C48.3901 35.3851 48.4653 35.2043 48.4761 35.0288L48.9004 35.5068C48.8753 35.6572 48.8073 35.8237 48.6963 36.0063C48.5853 36.189 48.4367 36.3644 48.2505 36.5327C48.0679 36.6974 47.8494 36.8353 47.5952 36.9463C47.3446 37.0537 47.0617 37.1074 46.7466 37.1074C46.3527 37.1074 46.0072 37.0304 45.71 36.8765C45.4163 36.7225 45.1872 36.5166 45.0225 36.2588C44.8613 35.9974 44.7808 35.7056 44.7808 35.3833C44.7808 35.0718 44.8416 34.7979 44.9634 34.5615C45.0851 34.3216 45.2606 34.1229 45.4897 33.9653C45.7189 33.8042 45.9946 33.6825 46.3169 33.6001C46.6392 33.5177 46.999 33.4766 47.3965 33.4766H48.5513ZM51.9297 32.1016V37H50.936V31.1885H51.9028L51.9297 32.1016ZM53.7451 31.1562L53.7397 32.0801C53.6574 32.0622 53.5786 32.0514 53.5034 32.0479C53.4318 32.0407 53.3494 32.0371 53.2563 32.0371C53.0272 32.0371 52.8249 32.0729 52.6494 32.1445C52.474 32.2161 52.3254 32.3164 52.2036 32.4453C52.0819 32.5742 51.9852 32.7282 51.9136 32.9072C51.8455 33.0827 51.8008 33.276 51.7793 33.4873L51.5 33.6484C51.5 33.2975 51.534 32.9681 51.6021 32.6602C51.6737 32.3522 51.7829 32.0801 51.9297 31.8438C52.0765 31.6038 52.2627 31.4176 52.4883 31.2852C52.7174 31.1491 52.9896 31.0811 53.3047 31.0811C53.3763 31.0811 53.4587 31.09 53.5518 31.1079C53.6449 31.1222 53.7093 31.1383 53.7451 31.1562ZM25.751 45.3057V52.2344H24.752V44.1885H25.665L25.751 45.3057ZM29.6665 47.0459V47.1587C29.6665 47.5812 29.6164 47.9733 29.5161 48.335C29.4159 48.693 29.269 49.0046 29.0757 49.2695C28.8859 49.5345 28.6514 49.7404 28.3721 49.8872C28.0928 50.034 27.7723 50.1074 27.4106 50.1074C27.0418 50.1074 26.716 50.0465 26.4331 49.9248C26.1502 49.8031 25.9103 49.6258 25.7134 49.3931C25.5164 49.1603 25.3589 48.881 25.2407 48.5552C25.1261 48.2293 25.0474 47.8623 25.0044 47.4541V46.8525C25.0474 46.4229 25.1279 46.0379 25.2461 45.6978C25.3643 45.3576 25.52 45.0675 25.7134 44.8276C25.9103 44.5841 26.1484 44.3997 26.4277 44.2744C26.707 44.1455 27.0293 44.0811 27.3945 44.0811C27.7598 44.0811 28.0838 44.1527 28.3667 44.2959C28.6496 44.4355 28.8877 44.6361 29.0811 44.8975C29.2744 45.1589 29.4194 45.4722 29.5161 45.8374C29.6164 46.1991 29.6665 46.6019 29.6665 47.0459ZM28.6675 47.1587V47.0459C28.6675 46.7559 28.637 46.4837 28.5762 46.2295C28.5153 45.9717 28.4204 45.7461 28.2915 45.5527C28.1662 45.3558 28.005 45.2018 27.8081 45.0908C27.6112 44.9762 27.3766 44.9189 27.1045 44.9189C26.8538 44.9189 26.6354 44.9619 26.4492 45.0479C26.2666 45.1338 26.1108 45.2502 25.9819 45.397C25.853 45.5402 25.7474 45.7049 25.665 45.8911C25.5863 46.0737 25.5272 46.2635 25.4878 46.4604V47.8516C25.5594 48.1022 25.6597 48.3385 25.7886 48.5605C25.9175 48.779 26.0894 48.9562 26.3042 49.0923C26.519 49.2248 26.7894 49.291 27.1152 49.291C27.3838 49.291 27.6147 49.2355 27.8081 49.1245C28.005 49.0099 28.1662 48.8542 28.2915 48.6572C28.4204 48.4603 28.5153 48.2347 28.5762 47.9805C28.637 47.7227 28.6675 47.4487 28.6675 47.1587ZM31.9277 45.1016V50H30.9341V44.1885H31.9009L31.9277 45.1016ZM33.7432 44.1562L33.7378 45.0801C33.6554 45.0622 33.5767 45.0514 33.5015 45.0479C33.4299 45.0407 33.3475 45.0371 33.2544 45.0371C33.0252 45.0371 32.8229 45.0729 32.6475 45.1445C32.472 45.2161 32.3234 45.3164 32.2017 45.4453C32.0799 45.5742 31.9832 45.7282 31.9116 45.9072C31.8436 46.0827 31.7988 46.276 31.7773 46.4873L31.498 46.6484C31.498 46.2975 31.5321 45.9681 31.6001 45.6602C31.6717 45.3522 31.7809 45.0801 31.9277 44.8438C32.0745 44.6038 32.2607 44.4176 32.4863 44.2852C32.7155 44.1491 32.9876 44.0811 33.3027 44.0811C33.3743 44.0811 33.4567 44.09 33.5498 44.1079C33.6429 44.1222 33.7074 44.1383 33.7432 44.1562ZM34.291 47.1587V47.0352C34.291 46.6162 34.3519 46.2277 34.4736 45.8696C34.5954 45.508 34.7708 45.1947 35 44.9297C35.2292 44.6611 35.5067 44.4535 35.8325 44.3066C36.1584 44.1562 36.5236 44.0811 36.9282 44.0811C37.3364 44.0811 37.7035 44.1562 38.0293 44.3066C38.3587 44.4535 38.638 44.6611 38.8672 44.9297C39.0999 45.1947 39.2772 45.508 39.3989 45.8696C39.5207 46.2277 39.5815 46.6162 39.5815 47.0352V47.1587C39.5815 47.5776 39.5207 47.9661 39.3989 48.3242C39.2772 48.6823 39.0999 48.9956 38.8672 49.2642C38.638 49.5291 38.3605 49.7368 38.0347 49.8872C37.7124 50.034 37.3472 50.1074 36.939 50.1074C36.5308 50.1074 36.1637 50.034 35.8379 49.8872C35.512 49.7368 35.2327 49.5291 35 49.2642C34.7708 48.9956 34.5954 48.6823 34.4736 48.3242C34.3519 47.9661 34.291 47.5776 34.291 47.1587ZM35.2847 47.0352V47.1587C35.2847 47.4487 35.3187 47.7227 35.3867 47.9805C35.4548 48.2347 35.5568 48.4603 35.6929 48.6572C35.8325 48.8542 36.0062 49.0099 36.2139 49.1245C36.4215 49.2355 36.6632 49.291 36.939 49.291C37.2111 49.291 37.4492 49.2355 37.6533 49.1245C37.861 49.0099 38.0329 48.8542 38.1689 48.6572C38.305 48.4603 38.4071 48.2347 38.4751 47.9805C38.5467 47.7227 38.5825 47.4487 38.5825 47.1587V47.0352C38.5825 46.7487 38.5467 46.4784 38.4751 46.2241C38.4071 45.9663 38.3032 45.7389 38.1636 45.542C38.0275 45.3415 37.8556 45.1839 37.6479 45.0693C37.4438 44.9548 37.2039 44.8975 36.9282 44.8975C36.6561 44.8975 36.4162 44.9548 36.2085 45.0693C36.0044 45.1839 35.8325 45.3415 35.6929 45.542C35.5568 45.7389 35.4548 45.9663 35.3867 46.2241C35.3187 46.4784 35.2847 46.7487 35.2847 47.0352ZM40.8545 44.1885H41.8535V50.6929C41.8535 51.0474 41.7962 51.3481 41.6816 51.5952C41.5706 51.8423 41.4023 52.0285 41.1768 52.1538C40.9548 52.2827 40.6737 52.3472 40.3335 52.3472C40.244 52.3472 40.1401 52.3382 40.022 52.3203C39.9002 52.3024 39.7982 52.2809 39.7158 52.2559L39.7212 51.4556C39.7892 51.4699 39.8662 51.4806 39.9521 51.4878C40.0381 51.4985 40.1133 51.5039 40.1777 51.5039C40.3245 51.5039 40.4481 51.4771 40.5483 51.4233C40.6486 51.3696 40.7238 51.2837 40.7739 51.1655C40.8276 51.0474 40.8545 50.8898 40.8545 50.6929V44.1885ZM40.7524 42.647C40.7524 42.4858 40.8026 42.3498 40.9028 42.2388C41.0031 42.1278 41.1481 42.0723 41.3379 42.0723C41.5312 42.0723 41.6781 42.1278 41.7783 42.2388C41.8786 42.3498 41.9287 42.4858 41.9287 42.647C41.9287 42.8009 41.8786 42.9334 41.7783 43.0444C41.6781 43.1519 41.5312 43.2056 41.3379 43.2056C41.1481 43.2056 41.0031 43.1519 40.9028 43.0444C40.8026 42.9334 40.7524 42.8009 40.7524 42.647ZM45.8711 50.1074C45.4665 50.1074 45.0994 50.0394 44.77 49.9033C44.4442 49.7637 44.1631 49.5685 43.9268 49.3179C43.694 49.0672 43.515 48.77 43.3896 48.4263C43.2643 48.0825 43.2017 47.7065 43.2017 47.2983V47.0728C43.2017 46.6001 43.2715 46.1794 43.4111 45.8105C43.5508 45.4382 43.7406 45.123 43.9805 44.8652C44.2204 44.6074 44.4925 44.4123 44.7969 44.2798C45.1012 44.1473 45.4163 44.0811 45.7422 44.0811C46.1576 44.0811 46.5156 44.1527 46.8164 44.2959C47.1208 44.4391 47.3696 44.6396 47.563 44.8975C47.7563 45.1517 47.8996 45.4525 47.9927 45.7998C48.0858 46.1436 48.1323 46.5195 48.1323 46.9277V47.3735H43.7925V46.5625H47.1387V46.4873C47.1243 46.2295 47.0706 45.9788 46.9775 45.7354C46.888 45.4919 46.7448 45.2913 46.5479 45.1338C46.3509 44.9762 46.0824 44.8975 45.7422 44.8975C45.5166 44.8975 45.3089 44.9458 45.1191 45.0425C44.9294 45.1356 44.7664 45.2752 44.6304 45.4614C44.4943 45.6476 44.3887 45.875 44.3135 46.1436C44.2383 46.4121 44.2007 46.7218 44.2007 47.0728V47.2983C44.2007 47.5741 44.2383 47.8337 44.3135 48.0771C44.3923 48.3171 44.505 48.5283 44.6519 48.7109C44.8022 48.8936 44.9831 49.0368 45.1943 49.1406C45.4092 49.2445 45.6527 49.2964 45.9248 49.2964C46.2757 49.2964 46.5729 49.2248 46.8164 49.0815C47.0599 48.9383 47.2729 48.7467 47.4556 48.5068L48.0571 48.9849C47.9318 49.1746 47.7725 49.3555 47.5791 49.5273C47.3857 49.6992 47.1476 49.8389 46.8647 49.9463C46.5854 50.0537 46.2542 50.1074 45.8711 50.1074ZM51.6182 49.291C51.8545 49.291 52.0729 49.2427 52.2734 49.146C52.474 49.0493 52.6387 48.9168 52.7676 48.7485C52.8965 48.5767 52.9699 48.3815 52.9878 48.1631H53.9331C53.9152 48.5068 53.7988 48.8273 53.584 49.1245C53.3727 49.4181 53.0952 49.6562 52.7515 49.8389C52.4077 50.0179 52.0299 50.1074 51.6182 50.1074C51.1813 50.1074 50.8 50.0304 50.4741 49.8765C50.1519 49.7225 49.8833 49.5112 49.6685 49.2427C49.4572 48.9741 49.2979 48.6662 49.1904 48.3188C49.0866 47.9679 49.0347 47.5973 49.0347 47.207V46.9814C49.0347 46.5911 49.0866 46.2223 49.1904 45.875C49.2979 45.5241 49.4572 45.2144 49.6685 44.9458C49.8833 44.6772 50.1519 44.466 50.4741 44.312C50.8 44.158 51.1813 44.0811 51.6182 44.0811C52.0729 44.0811 52.4704 44.1742 52.8105 44.3604C53.1507 44.543 53.4175 44.7936 53.6108 45.1123C53.8078 45.4274 53.9152 45.7855 53.9331 46.1865H52.9878C52.9699 45.9466 52.9019 45.73 52.7837 45.5366C52.6691 45.3433 52.5116 45.1893 52.311 45.0747C52.1141 44.9565 51.8831 44.8975 51.6182 44.8975C51.3138 44.8975 51.0578 44.9583 50.8501 45.0801C50.646 45.1982 50.4831 45.3594 50.3613 45.5635C50.2432 45.764 50.1572 45.9878 50.1035 46.2349C50.0534 46.4784 50.0283 46.7272 50.0283 46.9814V47.207C50.0283 47.4613 50.0534 47.7119 50.1035 47.959C50.1536 48.2061 50.2378 48.4299 50.356 48.6304C50.4777 48.8309 50.6406 48.992 50.8447 49.1138C51.0524 49.2319 51.3102 49.291 51.6182 49.291ZM57.4834 44.1885V44.9512H54.3413V44.1885H57.4834ZM55.4048 42.7759H56.3984V48.5605C56.3984 48.7575 56.4289 48.9061 56.4897 49.0063C56.5506 49.1066 56.6294 49.1729 56.7261 49.2051C56.8228 49.2373 56.9266 49.2534 57.0376 49.2534C57.12 49.2534 57.2059 49.2463 57.2954 49.2319C57.3885 49.214 57.4583 49.1997 57.5049 49.189L57.5103 50C57.4315 50.0251 57.3276 50.0483 57.1987 50.0698C57.0734 50.0949 56.9212 50.1074 56.7422 50.1074C56.4987 50.1074 56.2749 50.0591 56.0708 49.9624C55.8667 49.8657 55.7038 49.7046 55.582 49.479C55.4639 49.2498 55.4048 48.9419 55.4048 48.5552V42.7759ZM59.7285 44.1885V50H58.7295V44.1885H59.7285ZM58.6543 42.647C58.6543 42.4858 58.7026 42.3498 58.7993 42.2388C58.8996 42.1278 59.0464 42.0723 59.2397 42.0723C59.4295 42.0723 59.5745 42.1278 59.6748 42.2388C59.7786 42.3498 59.8306 42.4858 59.8306 42.647C59.8306 42.8009 59.7786 42.9334 59.6748 43.0444C59.5745 43.1519 59.4295 43.2056 59.2397 43.2056C59.0464 43.2056 58.8996 43.1519 58.7993 43.0444C58.7026 42.9334 58.6543 42.8009 58.6543 42.647ZM61.0605 47.1587V47.0352C61.0605 46.6162 61.1214 46.2277 61.2432 45.8696C61.3649 45.508 61.5404 45.1947 61.7695 44.9297C61.9987 44.6611 62.2762 44.4535 62.6021 44.3066C62.9279 44.1562 63.2931 44.0811 63.6978 44.0811C64.106 44.0811 64.473 44.1562 64.7988 44.3066C65.1283 44.4535 65.4076 44.6611 65.6367 44.9297C65.8695 45.1947 66.0467 45.508 66.1685 45.8696C66.2902 46.2277 66.3511 46.6162 66.3511 47.0352V47.1587C66.3511 47.5776 66.2902 47.9661 66.1685 48.3242C66.0467 48.6823 65.8695 48.9956 65.6367 49.2642C65.4076 49.5291 65.13 49.7368 64.8042 49.8872C64.4819 50.034 64.1167 50.1074 63.7085 50.1074C63.3003 50.1074 62.9333 50.034 62.6074 49.8872C62.2816 49.7368 62.0023 49.5291 61.7695 49.2642C61.5404 48.9956 61.3649 48.6823 61.2432 48.3242C61.1214 47.9661 61.0605 47.5776 61.0605 47.1587ZM62.0542 47.0352V47.1587C62.0542 47.4487 62.0882 47.7227 62.1562 47.9805C62.2243 48.2347 62.3263 48.4603 62.4624 48.6572C62.6021 48.8542 62.7757 49.0099 62.9834 49.1245C63.1911 49.2355 63.4328 49.291 63.7085 49.291C63.9806 49.291 64.2188 49.2355 64.4229 49.1245C64.6305 49.0099 64.8024 48.8542 64.9385 48.6572C65.0745 48.4603 65.1766 48.2347 65.2446 47.9805C65.3162 47.7227 65.3521 47.4487 65.3521 47.1587V47.0352C65.3521 46.7487 65.3162 46.4784 65.2446 46.2241C65.1766 45.9663 65.0728 45.7389 64.9331 45.542C64.797 45.3415 64.6252 45.1839 64.4175 45.0693C64.2134 44.9548 63.9735 44.8975 63.6978 44.8975C63.4256 44.8975 63.1857 44.9548 62.978 45.0693C62.7739 45.1839 62.6021 45.3415 62.4624 45.542C62.3263 45.7389 62.2243 45.9663 62.1562 46.2241C62.0882 46.4784 62.0542 46.7487 62.0542 47.0352ZM68.5908 45.4292V50H67.5972V44.1885H68.5371L68.5908 45.4292ZM68.3545 46.874L67.9409 46.8579C67.9445 46.4604 68.0036 46.0934 68.1182 45.7568C68.2327 45.4167 68.3939 45.1213 68.6016 44.8706C68.8092 44.62 69.0563 44.4266 69.3428 44.2905C69.6328 44.1509 69.9533 44.0811 70.3042 44.0811C70.5907 44.0811 70.8485 44.1204 71.0776 44.1992C71.3068 44.2744 71.502 44.3962 71.6631 44.5645C71.8278 44.7327 71.9531 44.9512 72.0391 45.2197C72.125 45.4847 72.168 45.8088 72.168 46.1919V50H71.1689V46.1812C71.1689 45.8768 71.1242 45.6333 71.0347 45.4507C70.9451 45.2645 70.8145 45.1302 70.6426 45.0479C70.4707 44.9619 70.2594 44.9189 70.0088 44.9189C69.7617 44.9189 69.5361 44.9709 69.332 45.0747C69.1315 45.1785 68.9578 45.3218 68.811 45.5044C68.6678 45.687 68.555 45.8965 68.4727 46.1328C68.3939 46.3656 68.3545 46.6126 68.3545 46.874ZM77.061 48.4585C77.061 48.3153 77.0288 48.1828 76.9644 48.061C76.9035 47.9357 76.7764 47.8229 76.583 47.7227C76.3932 47.6188 76.1068 47.5293 75.7236 47.4541C75.4014 47.3861 75.1095 47.3055 74.8481 47.2124C74.5903 47.1193 74.3701 47.0065 74.1875 46.874C74.0085 46.7415 73.8706 46.5858 73.7739 46.4067C73.6772 46.2277 73.6289 46.0182 73.6289 45.7783C73.6289 45.5492 73.679 45.3325 73.7793 45.1284C73.8831 44.9243 74.0282 44.7435 74.2144 44.5859C74.4041 44.4284 74.6315 44.3049 74.8965 44.2153C75.1615 44.1258 75.4569 44.0811 75.7827 44.0811C76.2482 44.0811 76.6457 44.1634 76.9751 44.3281C77.3045 44.4928 77.557 44.7131 77.7324 44.9888C77.9079 45.2609 77.9956 45.5635 77.9956 45.8965H77.002C77.002 45.7354 76.9536 45.5796 76.8569 45.4292C76.7638 45.2752 76.626 45.1481 76.4434 45.0479C76.2643 44.9476 76.0441 44.8975 75.7827 44.8975C75.507 44.8975 75.2832 44.9404 75.1113 45.0264C74.943 45.1087 74.8195 45.2144 74.7407 45.3433C74.6655 45.4722 74.6279 45.6082 74.6279 45.7515C74.6279 45.8589 74.6458 45.9556 74.6816 46.0415C74.721 46.1239 74.7891 46.2008 74.8857 46.2725C74.9824 46.3405 75.1185 46.4049 75.2939 46.4658C75.4694 46.5267 75.6932 46.5876 75.9653 46.6484C76.4416 46.7559 76.8337 46.8848 77.1416 47.0352C77.4495 47.1855 77.6787 47.37 77.8291 47.5884C77.9795 47.8068 78.0547 48.0718 78.0547 48.3833C78.0547 48.6375 78.001 48.8703 77.8936 49.0815C77.7897 49.2928 77.6375 49.4754 77.437 49.6294C77.2401 49.7798 77.0037 49.8979 76.728 49.9839C76.4559 50.0662 76.1497 50.1074 75.8096 50.1074C75.2975 50.1074 74.8643 50.0161 74.5098 49.8335C74.1553 49.6509 73.8867 49.4146 73.7041 49.1245C73.5215 48.8345 73.4302 48.5283 73.4302 48.2061H74.4292C74.4435 48.4782 74.5223 48.6948 74.6655 48.856C74.8088 49.0135 74.9842 49.1263 75.1919 49.1943C75.3996 49.2588 75.6055 49.291 75.8096 49.291C76.0817 49.291 76.3091 49.2552 76.4917 49.1836C76.6779 49.112 76.8193 49.0135 76.916 48.8882C77.0127 48.7629 77.061 48.6196 77.061 48.4585Z" fill="black"/>
<path d="M9 14L14.6278 15.2887L12.9299 9.77047L9 14ZM21.853 9.52211L13.154 12.1987L13.448 13.1545L22.147 10.4779L21.853 9.52211Z" fill="#9C9D9E"/>
<path d="M14 26L17.668 30.4586L19.6953 25.0527L14 26ZM22.1756 28.5318L18.389 27.1119L18.0379 28.0482L21.8244 29.4682L22.1756 28.5318Z" fill="black"/>
<path d="M11 42L11.2926 47.7661L16.1399 44.6296L11 42ZM22.4198 58.7284L13.8644 45.5064L13.0248 46.0497L21.5802 59.2716L22.4198 58.7284Z" fill="#FFA500"/>
<path d="M11.1006 37.851C12.7436 39.8227 9.22255 42.8862 8 44.5V19C8.88399 20.768 13.7241 22.6201 13.7241 24.7598C13.7241 27.571 12.7797 28.3157 11.7101 30.7224C11.0539 32.1988 9.87647 36.3821 11.1006 37.851Z" fill="#020203"/>
<path d="M7 1.99561L6.99999 65" stroke="#F3F3F3" stroke-width="2"/>
<line x1="7" y1="11" x2="7" y2="31" stroke="#999999" stroke-width="2"/>
<path d="M2.59 71.372V72.394H3.738C5.11 72.394 5.838 73.052 5.838 74.2V74.312C5.838 75.46 5.11 76.118 3.738 76.118C2.548 76.118 1.974 75.6 1.47 74.83L0.588 75.502C1.19 76.342 2.058 77.168 3.752 77.168C5.74 77.168 7.07 76.006 7.07 74.326C7.07 72.856 6.062 72.072 5.012 71.862V71.806C6.048 71.54 6.888 70.784 6.888 69.524C6.888 67.942 5.572 67.06 3.92 67.06C2.352 67.06 1.498 67.872 1.008 68.656L1.876 69.328C2.282 68.586 2.884 68.11 3.892 68.11C4.928 68.11 5.642 68.628 5.642 69.65V69.748C5.642 70.686 4.97 71.372 3.654 71.372H2.59ZM12.4465 74.69L12.0545 75.866H11.9845L11.6485 74.69L9.91253 69.776H8.79253L11.4945 77.28L10.9485 78.82H9.81453V79.8H10.3885C11.4525 79.8 11.7465 79.548 12.0685 78.68L15.3025 69.776H14.1965L12.4465 74.69Z" fill="#9C9D9E"/>
<path fill-rule="evenodd" clip-rule="evenodd" d="M8.92468 43.4064C10.4018 41.7303 12.4225 39.4373 11.1006 37.851C9.94618 36.4658 10.9276 32.6665 11.5934 31H8V44.5C8.23898 44.1845 8.56579 43.8137 8.92468 43.4064Z" fill="#FFA500"/>
</svg>
