<svg width="90" height="78" viewBox="0 0 90 78" fill="none" xmlns="http://www.w3.org/2000/svg">
<rect x="63" y="1" width="1" height="23" fill="#9C9D9E"/>
<rect x="63" y="1" width="4" height="1" fill="#9C9D9E"/>
<rect x="63" y="23" width="4" height="1" fill="#9C9D9E"/>
<path d="M3.82422 4.65625V10H2.74023V3.66016H3.79492L3.82422 4.65625ZM5.80469 3.625L5.79883 4.63281C5.70898 4.61328 5.62305 4.60156 5.54102 4.59766C5.46289 4.58984 5.37305 4.58594 5.27148 4.58594C5.02148 4.58594 4.80078 4.625 4.60938 4.70312C4.41797 4.78125 4.25586 4.89062 4.12305 5.03125C3.99023 5.17188 3.88477 5.33984 3.80664 5.53516C3.73242 5.72656 3.68359 5.9375 3.66016 6.16797L3.35547 6.34375C3.35547 5.96094 3.39258 5.60156 3.4668 5.26562C3.54492 4.92969 3.66406 4.63281 3.82422 4.375C3.98438 4.11328 4.1875 3.91016 4.43359 3.76562C4.68359 3.61719 4.98047 3.54297 5.32422 3.54297C5.40234 3.54297 5.49219 3.55273 5.59375 3.57227C5.69531 3.58789 5.76562 3.60547 5.80469 3.625ZM10.3105 8.91602V5.65234C10.3105 5.40234 10.2598 5.18555 10.1582 5.00195C10.0605 4.81445 9.91211 4.66992 9.71289 4.56836C9.51367 4.4668 9.26758 4.41602 8.97461 4.41602C8.70117 4.41602 8.46094 4.46289 8.25391 4.55664C8.05078 4.65039 7.89062 4.77344 7.77344 4.92578C7.66016 5.07812 7.60352 5.24219 7.60352 5.41797H6.51953C6.51953 5.19141 6.57812 4.9668 6.69531 4.74414C6.8125 4.52148 6.98047 4.32031 7.19922 4.14062C7.42188 3.95703 7.6875 3.8125 7.99609 3.70703C8.30859 3.59766 8.65625 3.54297 9.03906 3.54297C9.5 3.54297 9.90625 3.62109 10.2578 3.77734C10.6133 3.93359 10.8906 4.16992 11.0898 4.48633C11.293 4.79883 11.3945 5.19141 11.3945 5.66406V8.61719C11.3945 8.82812 11.4121 9.05273 11.4473 9.29102C11.4863 9.5293 11.543 9.73438 11.6172 9.90625V10H10.4863C10.4316 9.875 10.3887 9.70898 10.3574 9.50195C10.3262 9.29102 10.3105 9.0957 10.3105 8.91602ZM10.498 6.15625L10.5098 6.91797H9.41406C9.10547 6.91797 8.83008 6.94336 8.58789 6.99414C8.3457 7.04102 8.14258 7.11328 7.97852 7.21094C7.81445 7.30859 7.68945 7.43164 7.60352 7.58008C7.51758 7.72461 7.47461 7.89453 7.47461 8.08984C7.47461 8.28906 7.51953 8.4707 7.60938 8.63477C7.69922 8.79883 7.83398 8.92969 8.01367 9.02734C8.19727 9.12109 8.42188 9.16797 8.6875 9.16797C9.01953 9.16797 9.3125 9.09766 9.56641 8.95703C9.82031 8.81641 10.0215 8.64453 10.1699 8.44141C10.3223 8.23828 10.4043 8.04102 10.416 7.84961L10.8789 8.37109C10.8516 8.53516 10.7773 8.7168 10.6562 8.91602C10.5352 9.11523 10.373 9.30664 10.1699 9.49023C9.9707 9.66992 9.73242 9.82031 9.45508 9.94141C9.18164 10.0586 8.87305 10.1172 8.5293 10.1172C8.09961 10.1172 7.72266 10.0332 7.39844 9.86523C7.07812 9.69727 6.82812 9.47266 6.64844 9.19141C6.47266 8.90625 6.38477 8.58789 6.38477 8.23633C6.38477 7.89648 6.45117 7.59766 6.58398 7.33984C6.7168 7.07812 6.9082 6.86133 7.1582 6.68945C7.4082 6.51367 7.70898 6.38086 8.06055 6.29102C8.41211 6.20117 8.80469 6.15625 9.23828 6.15625H10.498ZM14.1836 5.01367V10H13.0996V3.66016H14.125L14.1836 5.01367ZM13.9258 6.58984L13.4746 6.57227C13.4785 6.13867 13.543 5.73828 13.668 5.37109C13.793 5 13.9688 4.67773 14.1953 4.4043C14.4219 4.13086 14.6914 3.91992 15.0039 3.77148C15.3203 3.61914 15.6699 3.54297 16.0527 3.54297C16.3652 3.54297 16.6465 3.58594 16.8965 3.67188C17.1465 3.75391 17.3594 3.88672 17.5352 4.07031C17.7148 4.25391 17.8516 4.49219 17.9453 4.78516C18.0391 5.07422 18.0859 5.42773 18.0859 5.8457V10H16.9961V5.83398C16.9961 5.50195 16.9473 5.23633 16.8496 5.03711C16.752 4.83398 16.6094 4.6875 16.4219 4.59766C16.2344 4.50391 16.0039 4.45703 15.7305 4.45703C15.4609 4.45703 15.2148 4.51367 14.9922 4.62695C14.7734 4.74023 14.584 4.89648 14.4238 5.0957C14.2676 5.29492 14.1445 5.52344 14.0547 5.78125C13.9688 6.03516 13.9258 6.30469 13.9258 6.58984ZM23.8398 3.66016H24.8242V9.86523C24.8242 10.4238 24.7109 10.9004 24.4844 11.2949C24.2578 11.6895 23.9414 11.9883 23.5352 12.1914C23.1328 12.3984 22.668 12.502 22.1406 12.502C21.9219 12.502 21.6641 12.4668 21.3672 12.3965C21.0742 12.3301 20.7852 12.2148 20.5 12.0508C20.2188 11.8906 19.9824 11.6738 19.791 11.4004L20.3594 10.7559C20.625 11.0762 20.9023 11.2988 21.1914 11.4238C21.4844 11.5488 21.7734 11.6113 22.0586 11.6113C22.4023 11.6113 22.6992 11.5469 22.9492 11.418C23.1992 11.2891 23.3926 11.0977 23.5293 10.8438C23.6699 10.5938 23.7402 10.2852 23.7402 9.91797V5.05469L23.8398 3.66016ZM19.4746 6.90039V6.77734C19.4746 6.29297 19.5312 5.85352 19.6445 5.45898C19.7617 5.06055 19.9277 4.71875 20.1426 4.43359C20.3613 4.14844 20.625 3.92969 20.9336 3.77734C21.2422 3.62109 21.5898 3.54297 21.9766 3.54297C22.375 3.54297 22.7227 3.61328 23.0195 3.75391C23.3203 3.89062 23.5742 4.0918 23.7812 4.35742C23.9922 4.61914 24.1582 4.93555 24.2793 5.30664C24.4004 5.67773 24.4844 6.09766 24.5312 6.56641V7.10547C24.4883 7.57031 24.4043 7.98828 24.2793 8.35938C24.1582 8.73047 23.9922 9.04688 23.7812 9.30859C23.5742 9.57031 23.3203 9.77148 23.0195 9.91211C22.7188 10.0488 22.3672 10.1172 21.9648 10.1172C21.5859 10.1172 21.2422 10.0371 20.9336 9.87695C20.6289 9.7168 20.3672 9.49219 20.1484 9.20312C19.9297 8.91406 19.7617 8.57422 19.6445 8.18359C19.5312 7.78906 19.4746 7.36133 19.4746 6.90039ZM20.5586 6.77734V6.90039C20.5586 7.2168 20.5898 7.51367 20.6523 7.79102C20.7188 8.06836 20.8184 8.3125 20.9512 8.52344C21.0879 8.73438 21.2617 8.90039 21.4727 9.02148C21.6836 9.13867 21.9355 9.19727 22.2285 9.19727C22.5879 9.19727 22.8848 9.12109 23.1191 8.96875C23.3535 8.81641 23.5391 8.61523 23.6758 8.36523C23.8164 8.11523 23.9258 7.84375 24.0039 7.55078V6.13867C23.9609 5.92383 23.8945 5.7168 23.8047 5.51758C23.7188 5.31445 23.6055 5.13477 23.4648 4.97852C23.3281 4.81836 23.1582 4.69141 22.9551 4.59766C22.752 4.50391 22.5137 4.45703 22.2402 4.45703C21.9434 4.45703 21.6875 4.51953 21.4727 4.64453C21.2617 4.76562 21.0879 4.93359 20.9512 5.14844C20.8184 5.35938 20.7188 5.60547 20.6523 5.88672C20.5898 6.16406 20.5586 6.46094 20.5586 6.77734ZM29.1016 10.1172C28.6602 10.1172 28.2598 10.043 27.9004 9.89453C27.5449 9.74219 27.2383 9.5293 26.9805 9.25586C26.7266 8.98242 26.5312 8.6582 26.3945 8.2832C26.2578 7.9082 26.1895 7.49805 26.1895 7.05273V6.80664C26.1895 6.29102 26.2656 5.83203 26.418 5.42969C26.5703 5.02344 26.7773 4.67969 27.0391 4.39844C27.3008 4.11719 27.5977 3.9043 27.9297 3.75977C28.2617 3.61523 28.6055 3.54297 28.9609 3.54297C29.4141 3.54297 29.8047 3.62109 30.1328 3.77734C30.4648 3.93359 30.7363 4.15234 30.9473 4.43359C31.1582 4.71094 31.3145 5.03906 31.416 5.41797C31.5176 5.79297 31.5684 6.20312 31.5684 6.64844V7.13477H26.834V6.25H30.4844V6.16797C30.4688 5.88672 30.4102 5.61328 30.3086 5.34766C30.2109 5.08203 30.0547 4.86328 29.8398 4.69141C29.625 4.51953 29.332 4.43359 28.9609 4.43359C28.7148 4.43359 28.4883 4.48633 28.2812 4.5918C28.0742 4.69336 27.8965 4.8457 27.748 5.04883C27.5996 5.25195 27.4844 5.5 27.4023 5.79297C27.3203 6.08594 27.2793 6.42383 27.2793 6.80664V7.05273C27.2793 7.35352 27.3203 7.63672 27.4023 7.90234C27.4883 8.16406 27.6113 8.39453 27.7715 8.59375C27.9355 8.79297 28.1328 8.94922 28.3633 9.0625C28.5977 9.17578 28.8633 9.23242 29.1602 9.23242C29.543 9.23242 29.8672 9.1543 30.1328 8.99805C30.3984 8.8418 30.6309 8.63281 30.8301 8.37109L31.4863 8.89258C31.3496 9.09961 31.1758 9.29688 30.9648 9.48438C30.7539 9.67188 30.4941 9.82422 30.1855 9.94141C29.8809 10.0586 29.5195 10.1172 29.1016 10.1172ZM35.5234 6.90039V6.76562C35.5234 6.30859 35.5898 5.88477 35.7227 5.49414C35.8555 5.09961 36.0469 4.75781 36.2969 4.46875C36.5469 4.17578 36.8496 3.94922 37.2051 3.78906C37.5605 3.625 37.959 3.54297 38.4004 3.54297C38.8457 3.54297 39.2461 3.625 39.6016 3.78906C39.9609 3.94922 40.2656 4.17578 40.5156 4.46875C40.7695 4.75781 40.9629 5.09961 41.0957 5.49414C41.2285 5.88477 41.2949 6.30859 41.2949 6.76562V6.90039C41.2949 7.35742 41.2285 7.78125 41.0957 8.17188C40.9629 8.5625 40.7695 8.9043 40.5156 9.19727C40.2656 9.48633 39.9629 9.71289 39.6074 9.87695C39.2559 10.0371 38.8574 10.1172 38.4121 10.1172C37.9668 10.1172 37.5664 10.0371 37.2109 9.87695C36.8555 9.71289 36.5508 9.48633 36.2969 9.19727C36.0469 8.9043 35.8555 8.5625 35.7227 8.17188C35.5898 7.78125 35.5234 7.35742 35.5234 6.90039ZM36.6074 6.76562V6.90039C36.6074 7.2168 36.6445 7.51562 36.7188 7.79688C36.793 8.07422 36.9043 8.32031 37.0527 8.53516C37.2051 8.75 37.3945 8.91992 37.6211 9.04492C37.8477 9.16602 38.1113 9.22656 38.4121 9.22656C38.709 9.22656 38.9688 9.16602 39.1914 9.04492C39.418 8.91992 39.6055 8.75 39.7539 8.53516C39.9023 8.32031 40.0137 8.07422 40.0879 7.79688C40.166 7.51562 40.2051 7.2168 40.2051 6.90039V6.76562C40.2051 6.45312 40.166 6.1582 40.0879 5.88086C40.0137 5.59961 39.9004 5.35156 39.748 5.13672C39.5996 4.91797 39.4121 4.74609 39.1855 4.62109C38.9629 4.49609 38.7012 4.43359 38.4004 4.43359C38.1035 4.43359 37.8418 4.49609 37.6152 4.62109C37.3926 4.74609 37.2051 4.91797 37.0527 5.13672C36.9043 5.35156 36.793 5.59961 36.7188 5.88086C36.6445 6.1582 36.6074 6.45312 36.6074 6.76562ZM44.2715 10H43.1875V2.99219C43.1875 2.53516 43.2695 2.15039 43.4336 1.83789C43.6016 1.52148 43.8418 1.2832 44.1543 1.12305C44.4668 0.958984 44.8379 0.876953 45.2676 0.876953C45.3926 0.876953 45.5176 0.884766 45.6426 0.900391C45.7715 0.916016 45.8965 0.939453 46.0176 0.970703L45.959 1.85547C45.877 1.83594 45.7832 1.82227 45.6777 1.81445C45.5762 1.80664 45.4746 1.80273 45.373 1.80273C45.1426 1.80273 44.9434 1.84961 44.7754 1.94336C44.6113 2.0332 44.4863 2.16602 44.4004 2.3418C44.3145 2.51758 44.2715 2.73438 44.2715 2.99219V10ZM45.6191 3.66016V4.49219H42.1855V3.66016H45.6191ZM3.68945 19.2012H4.46289C4.8418 19.2012 5.1543 19.1387 5.40039 19.0137C5.65039 18.8848 5.83594 18.7109 5.95703 18.4922C6.08203 18.2695 6.14453 18.0195 6.14453 17.7422C6.14453 17.4141 6.08984 17.1387 5.98047 16.916C5.87109 16.6934 5.70703 16.5254 5.48828 16.4121C5.26953 16.2988 4.99219 16.2422 4.65625 16.2422C4.35156 16.2422 4.08203 16.3027 3.84766 16.4238C3.61719 16.541 3.43555 16.709 3.30273 16.9277C3.17383 17.1465 3.10938 17.4043 3.10938 17.7012H2.02539C2.02539 17.2676 2.13477 16.873 2.35352 16.5176C2.57227 16.1621 2.87891 15.8789 3.27344 15.668C3.67188 15.457 4.13281 15.3516 4.65625 15.3516C5.17188 15.3516 5.62305 15.4434 6.00977 15.627C6.39648 15.8066 6.69727 16.0762 6.91211 16.4355C7.12695 16.791 7.23438 17.2344 7.23438 17.7656C7.23438 17.9805 7.18359 18.2109 7.08203 18.457C6.98438 18.6992 6.83008 18.9258 6.61914 19.1367C6.41211 19.3477 6.14258 19.5215 5.81055 19.6582C5.47852 19.791 5.08008 19.8574 4.61523 19.8574H3.68945V19.2012ZM3.68945 20.0918V19.4414H4.61523C5.1582 19.4414 5.60742 19.5059 5.96289 19.6348C6.31836 19.7637 6.59766 19.9355 6.80078 20.1504C7.00781 20.3652 7.15234 20.6016 7.23438 20.8594C7.32031 21.1133 7.36328 21.3672 7.36328 21.6211C7.36328 22.0195 7.29492 22.373 7.1582 22.6816C7.02539 22.9902 6.83594 23.252 6.58984 23.4668C6.34766 23.6816 6.0625 23.8438 5.73438 23.9531C5.40625 24.0625 5.04883 24.1172 4.66211 24.1172C4.29102 24.1172 3.94141 24.0645 3.61328 23.959C3.28906 23.8535 3.00195 23.7012 2.75195 23.502C2.50195 23.2988 2.30664 23.0508 2.16602 22.7578C2.02539 22.4609 1.95508 22.123 1.95508 21.7441H3.03906C3.03906 22.041 3.10352 22.3008 3.23242 22.5234C3.36523 22.7461 3.55273 22.9199 3.79492 23.0449C4.04102 23.166 4.33008 23.2266 4.66211 23.2266C4.99414 23.2266 5.2793 23.1699 5.51758 23.0566C5.75977 22.9395 5.94531 22.7637 6.07422 22.5293C6.20703 22.2949 6.27344 22 6.27344 21.6445C6.27344 21.2891 6.19922 20.998 6.05078 20.7715C5.90234 20.541 5.69141 20.3711 5.41797 20.2617C5.14844 20.1484 4.83008 20.0918 4.46289 20.0918H3.68945ZM11.2305 19.9277V20.8184H8.37109V19.9277H11.2305ZM13.3691 18.9199V24H12.2793V17.6602H13.3105L13.3691 18.9199ZM13.1465 20.5898L12.6426 20.5723C12.6465 20.1387 12.7031 19.7383 12.8125 19.3711C12.9219 19 13.084 18.6777 13.2988 18.4043C13.5137 18.1309 13.7812 17.9199 14.1016 17.7715C14.4219 17.6191 14.793 17.543 15.2148 17.543C15.5117 17.543 15.7852 17.5859 16.0352 17.6719C16.2852 17.7539 16.502 17.8848 16.6855 18.0645C16.8691 18.2441 17.0117 18.4746 17.1133 18.7559C17.2148 19.0371 17.2656 19.377 17.2656 19.7754V24H16.1816V19.8281C16.1816 19.4961 16.125 19.2305 16.0117 19.0312C15.9023 18.832 15.7461 18.6875 15.543 18.5977C15.3398 18.5039 15.1016 18.457 14.8281 18.457C14.5078 18.457 14.2402 18.5137 14.0254 18.627C13.8105 18.7402 13.6387 18.8965 13.5098 19.0957C13.3809 19.2949 13.2871 19.5234 13.2285 19.7812C13.1738 20.0352 13.1465 20.3047 13.1465 20.5898ZM17.2539 19.9922L16.5273 20.2148C16.5312 19.8672 16.5879 19.5332 16.6973 19.2129C16.8105 18.8926 16.9727 18.6074 17.1836 18.3574C17.3984 18.1074 17.6621 17.9102 17.9746 17.7656C18.2871 17.6172 18.6445 17.543 19.0469 17.543C19.3867 17.543 19.6875 17.5879 19.9492 17.6777C20.2148 17.7676 20.4375 17.9062 20.6172 18.0938C20.8008 18.2773 20.9395 18.5137 21.0332 18.8027C21.127 19.0918 21.1738 19.4355 21.1738 19.834V24H20.084V19.8223C20.084 19.4668 20.0273 19.1914 19.9141 18.9961C19.8047 18.7969 19.6484 18.6582 19.4453 18.5801C19.2461 18.498 19.0078 18.457 18.7305 18.457C18.4922 18.457 18.2812 18.498 18.0977 18.5801C17.9141 18.6621 17.7598 18.7754 17.6348 18.9199C17.5098 19.0605 17.4141 19.2227 17.3477 19.4062C17.2852 19.5898 17.2539 19.7852 17.2539 19.9922ZM22.5273 20.9004V20.7656C22.5273 20.3086 22.5938 19.8848 22.7266 19.4941C22.8594 19.0996 23.0508 18.7578 23.3008 18.4688C23.5508 18.1758 23.8535 17.9492 24.209 17.7891C24.5645 17.625 24.9629 17.543 25.4043 17.543C25.8496 17.543 26.25 17.625 26.6055 17.7891C26.9648 17.9492 27.2695 18.1758 27.5195 18.4688C27.7734 18.7578 27.9668 19.0996 28.0996 19.4941C28.2324 19.8848 28.2988 20.3086 28.2988 20.7656V20.9004C28.2988 21.3574 28.2324 21.7812 28.0996 22.1719C27.9668 22.5625 27.7734 22.9043 27.5195 23.1973C27.2695 23.4863 26.9668 23.7129 26.6113 23.877C26.2598 24.0371 25.8613 24.1172 25.416 24.1172C24.9707 24.1172 24.5703 24.0371 24.2148 23.877C23.8594 23.7129 23.5547 23.4863 23.3008 23.1973C23.0508 22.9043 22.8594 22.5625 22.7266 22.1719C22.5938 21.7812 22.5273 21.3574 22.5273 20.9004ZM23.6113 20.7656V20.9004C23.6113 21.2168 23.6484 21.5156 23.7227 21.7969C23.7969 22.0742 23.9082 22.3203 24.0566 22.5352C24.209 22.75 24.3984 22.9199 24.625 23.0449C24.8516 23.166 25.1152 23.2266 25.416 23.2266C25.7129 23.2266 25.9727 23.166 26.1953 23.0449C26.4219 22.9199 26.6094 22.75 26.7578 22.5352C26.9062 22.3203 27.0176 22.0742 27.0918 21.7969C27.1699 21.5156 27.209 21.2168 27.209 20.9004V20.7656C27.209 20.4531 27.1699 20.1582 27.0918 19.8809C27.0176 19.5996 26.9043 19.3516 26.752 19.1367C26.6035 18.918 26.416 18.7461 26.1895 18.6211C25.9668 18.4961 25.7051 18.4336 25.4043 18.4336C25.1074 18.4336 24.8457 18.4961 24.6191 18.6211C24.3965 18.7461 24.209 18.918 24.0566 19.1367C23.9082 19.3516 23.7969 19.5996 23.7227 19.8809C23.6484 20.1582 23.6113 20.4531 23.6113 20.7656ZM30.7422 19.0137V24H29.6582V17.6602H30.6836L30.7422 19.0137ZM30.4844 20.5898L30.0332 20.5723C30.0371 20.1387 30.1016 19.7383 30.2266 19.3711C30.3516 19 30.5273 18.6777 30.7539 18.4043C30.9805 18.1309 31.25 17.9199 31.5625 17.7715C31.8789 17.6191 32.2285 17.543 32.6113 17.543C32.9238 17.543 33.2051 17.5859 33.4551 17.6719C33.7051 17.7539 33.918 17.8867 34.0938 18.0703C34.2734 18.2539 34.4102 18.4922 34.5039 18.7852C34.5977 19.0742 34.6445 19.4277 34.6445 19.8457V24H33.5547V19.834C33.5547 19.502 33.5059 19.2363 33.4082 19.0371C33.3105 18.834 33.168 18.6875 32.9805 18.5977C32.793 18.5039 32.5625 18.457 32.2891 18.457C32.0195 18.457 31.7734 18.5137 31.5508 18.627C31.332 18.7402 31.1426 18.8965 30.9824 19.0957C30.8262 19.2949 30.7031 19.5234 30.6133 19.7812C30.5273 20.0352 30.4844 20.3047 30.4844 20.5898ZM38.9453 17.6602V18.4922H35.5176V17.6602H38.9453ZM36.6777 16.1191H37.7617V22.4297C37.7617 22.6445 37.7949 22.8066 37.8613 22.916C37.9277 23.0254 38.0137 23.0977 38.1191 23.1328C38.2246 23.168 38.3379 23.1855 38.459 23.1855C38.5488 23.1855 38.6426 23.1777 38.7402 23.1621C38.8418 23.1426 38.918 23.127 38.9688 23.1152L38.9746 24C38.8887 24.0273 38.7754 24.0527 38.6348 24.0762C38.498 24.1035 38.332 24.1172 38.1367 24.1172C37.8711 24.1172 37.627 24.0645 37.4043 23.959C37.1816 23.8535 37.0039 23.6777 36.8711 23.4316C36.7422 23.1816 36.6777 22.8457 36.6777 22.4238V16.1191ZM41.3008 15V24H40.2168V15H41.3008ZM41.043 20.5898L40.5918 20.5723C40.5957 20.1387 40.6602 19.7383 40.7852 19.3711C40.9102 19 41.0859 18.6777 41.3125 18.4043C41.5391 18.1309 41.8086 17.9199 42.1211 17.7715C42.4375 17.6191 42.7871 17.543 43.1699 17.543C43.4824 17.543 43.7637 17.5859 44.0137 17.6719C44.2637 17.7539 44.4766 17.8867 44.6523 18.0703C44.832 18.2539 44.9688 18.4922 45.0625 18.7852C45.1562 19.0742 45.2031 19.4277 45.2031 19.8457V24H44.1133V19.834C44.1133 19.502 44.0645 19.2363 43.9668 19.0371C43.8691 18.834 43.7266 18.6875 43.5391 18.5977C43.3516 18.5039 43.1211 18.457 42.8477 18.457C42.5781 18.457 42.332 18.5137 42.1094 18.627C41.8906 18.7402 41.7012 18.8965 41.541 19.0957C41.3848 19.2949 41.2617 19.5234 41.1719 19.7812C41.0859 20.0352 41.043 20.3047 41.043 20.5898ZM4.01172 37.2266C4.26953 37.2266 4.50781 37.1738 4.72656 37.0684C4.94531 36.9629 5.125 36.8184 5.26562 36.6348C5.40625 36.4473 5.48633 36.2344 5.50586 35.9961H6.53711C6.51758 36.3711 6.39062 36.7207 6.15625 37.0449C5.92578 37.3652 5.62305 37.625 5.24805 37.8242C4.87305 38.0195 4.46094 38.1172 4.01172 38.1172C3.53516 38.1172 3.11914 38.0332 2.76367 37.8652C2.41211 37.6973 2.11914 37.4668 1.88477 37.1738C1.6543 36.8809 1.48047 36.5449 1.36328 36.166C1.25 35.7832 1.19336 35.3789 1.19336 34.9531V34.707C1.19336 34.2812 1.25 33.8789 1.36328 33.5C1.48047 33.1172 1.6543 32.7793 1.88477 32.4863C2.11914 32.1934 2.41211 31.9629 2.76367 31.7949C3.11914 31.627 3.53516 31.543 4.01172 31.543C4.50781 31.543 4.94141 31.6445 5.3125 31.8477C5.68359 32.0469 5.97461 32.3203 6.18555 32.668C6.40039 33.0117 6.51758 33.4023 6.53711 33.8398H5.50586C5.48633 33.5781 5.41211 33.3418 5.2832 33.1309C5.1582 32.9199 4.98633 32.752 4.76758 32.627C4.55273 32.498 4.30078 32.4336 4.01172 32.4336C3.67969 32.4336 3.40039 32.5 3.17383 32.6328C2.95117 32.7617 2.77344 32.9375 2.64062 33.1602C2.51172 33.3789 2.41797 33.623 2.35938 33.8926C2.30469 34.1582 2.27734 34.4297 2.27734 34.707V34.9531C2.27734 35.2305 2.30469 35.5039 2.35938 35.7734C2.41406 36.043 2.50586 36.2871 2.63477 36.5059C2.76758 36.7246 2.94531 36.9004 3.16797 37.0332C3.39453 37.1621 3.67578 37.2266 4.01172 37.2266ZM8.83984 29V38H7.75586V29H8.83984ZM8.58203 34.5898L8.13086 34.5723C8.13477 34.1387 8.19922 33.7383 8.32422 33.3711C8.44922 33 8.625 32.6777 8.85156 32.4043C9.07812 32.1309 9.34766 31.9199 9.66016 31.7715C9.97656 31.6191 10.3262 31.543 10.709 31.543C11.0215 31.543 11.3027 31.5859 11.5527 31.6719C11.8027 31.7539 12.0156 31.8867 12.1914 32.0703C12.3711 32.2539 12.5078 32.4922 12.6016 32.7852C12.6953 33.0742 12.7422 33.4277 12.7422 33.8457V38H11.6523V33.834C11.6523 33.502 11.6035 33.2363 11.5059 33.0371C11.4082 32.834 11.2656 32.6875 11.0781 32.5977C10.8906 32.5039 10.6602 32.457 10.3867 32.457C10.1172 32.457 9.87109 32.5137 9.64844 32.627C9.42969 32.7402 9.24023 32.8965 9.08008 33.0957C8.92383 33.2949 8.80078 33.5234 8.71094 33.7812C8.625 34.0352 8.58203 34.3047 8.58203 34.5898ZM18.1035 36.916V33.6523C18.1035 33.4023 18.0527 33.1855 17.9512 33.002C17.8535 32.8145 17.7051 32.6699 17.5059 32.5684C17.3066 32.4668 17.0605 32.416 16.7676 32.416C16.4941 32.416 16.2539 32.4629 16.0469 32.5566C15.8438 32.6504 15.6836 32.7734 15.5664 32.9258C15.4531 33.0781 15.3965 33.2422 15.3965 33.418H14.3125C14.3125 33.1914 14.3711 32.9668 14.4883 32.7441C14.6055 32.5215 14.7734 32.3203 14.9922 32.1406C15.2148 31.957 15.4805 31.8125 15.7891 31.707C16.1016 31.5977 16.4492 31.543 16.832 31.543C17.293 31.543 17.6992 31.6211 18.0508 31.7773C18.4062 31.9336 18.6836 32.1699 18.8828 32.4863C19.0859 32.7988 19.1875 33.1914 19.1875 33.6641V36.6172C19.1875 36.8281 19.2051 37.0527 19.2402 37.291C19.2793 37.5293 19.3359 37.7344 19.4102 37.9062V38H18.2793C18.2246 37.875 18.1816 37.709 18.1504 37.502C18.1191 37.291 18.1035 37.0957 18.1035 36.916ZM18.291 34.1562L18.3027 34.918H17.207C16.8984 34.918 16.623 34.9434 16.3809 34.9941C16.1387 35.041 15.9355 35.1133 15.7715 35.2109C15.6074 35.3086 15.4824 35.4316 15.3965 35.5801C15.3105 35.7246 15.2676 35.8945 15.2676 36.0898C15.2676 36.2891 15.3125 36.4707 15.4023 36.6348C15.4922 36.7988 15.627 36.9297 15.8066 37.0273C15.9902 37.1211 16.2148 37.168 16.4805 37.168C16.8125 37.168 17.1055 37.0977 17.3594 36.957C17.6133 36.8164 17.8145 36.6445 17.9629 36.4414C18.1152 36.2383 18.1973 36.041 18.209 35.8496L18.6719 36.3711C18.6445 36.5352 18.5703 36.7168 18.4492 36.916C18.3281 37.1152 18.166 37.3066 17.9629 37.4902C17.7637 37.6699 17.5254 37.8203 17.248 37.9414C16.9746 38.0586 16.666 38.1172 16.3223 38.1172C15.8926 38.1172 15.5156 38.0332 15.1914 37.8652C14.8711 37.6973 14.6211 37.4727 14.4414 37.1914C14.2656 36.9062 14.1777 36.5879 14.1777 36.2363C14.1777 35.8965 14.2441 35.5977 14.377 35.3398C14.5098 35.0781 14.7012 34.8613 14.9512 34.6895C15.2012 34.5137 15.502 34.3809 15.8535 34.291C16.2051 34.2012 16.5977 34.1562 17.0312 34.1562H18.291ZM21.9766 33.0137V38H20.8926V31.6602H21.918L21.9766 33.0137ZM21.7188 34.5898L21.2676 34.5723C21.2715 34.1387 21.3359 33.7383 21.4609 33.3711C21.5859 33 21.7617 32.6777 21.9883 32.4043C22.2148 32.1309 22.4844 31.9199 22.7969 31.7715C23.1133 31.6191 23.4629 31.543 23.8457 31.543C24.1582 31.543 24.4395 31.5859 24.6895 31.6719C24.9395 31.7539 25.1523 31.8867 25.3281 32.0703C25.5078 32.2539 25.6445 32.4922 25.7383 32.7852C25.832 33.0742 25.8789 33.4277 25.8789 33.8457V38H24.7891V33.834C24.7891 33.502 24.7402 33.2363 24.6426 33.0371C24.5449 32.834 24.4023 32.6875 24.2148 32.5977C24.0273 32.5039 23.7969 32.457 23.5234 32.457C23.2539 32.457 23.0078 32.5137 22.7852 32.627C22.5664 32.7402 22.377 32.8965 22.2168 33.0957C22.0605 33.2949 21.9375 33.5234 21.8477 33.7812C21.7617 34.0352 21.7188 34.3047 21.7188 34.5898ZM31.6328 31.6602H32.6172V37.8652C32.6172 38.4238 32.5039 38.9004 32.2773 39.2949C32.0508 39.6895 31.7344 39.9883 31.3281 40.1914C30.9258 40.3984 30.4609 40.502 29.9336 40.502C29.7148 40.502 29.457 40.4668 29.1602 40.3965C28.8672 40.3301 28.5781 40.2148 28.293 40.0508C28.0117 39.8906 27.7754 39.6738 27.584 39.4004L28.1523 38.7559C28.418 39.0762 28.6953 39.2988 28.9844 39.4238C29.2773 39.5488 29.5664 39.6113 29.8516 39.6113C30.1953 39.6113 30.4922 39.5469 30.7422 39.418C30.9922 39.2891 31.1855 39.0977 31.3223 38.8438C31.4629 38.5938 31.5332 38.2852 31.5332 37.918V33.0547L31.6328 31.6602ZM27.2676 34.9004V34.7773C27.2676 34.293 27.3242 33.8535 27.4375 33.459C27.5547 33.0605 27.7207 32.7188 27.9355 32.4336C28.1543 32.1484 28.418 31.9297 28.7266 31.7773C29.0352 31.6211 29.3828 31.543 29.7695 31.543C30.168 31.543 30.5156 31.6133 30.8125 31.7539C31.1133 31.8906 31.3672 32.0918 31.5742 32.3574C31.7852 32.6191 31.9512 32.9355 32.0723 33.3066C32.1934 33.6777 32.2773 34.0977 32.3242 34.5664V35.1055C32.2812 35.5703 32.1973 35.9883 32.0723 36.3594C31.9512 36.7305 31.7852 37.0469 31.5742 37.3086C31.3672 37.5703 31.1133 37.7715 30.8125 37.9121C30.5117 38.0488 30.1602 38.1172 29.7578 38.1172C29.3789 38.1172 29.0352 38.0371 28.7266 37.877C28.4219 37.7168 28.1602 37.4922 27.9414 37.2031C27.7227 36.9141 27.5547 36.5742 27.4375 36.1836C27.3242 35.7891 27.2676 35.3613 27.2676 34.9004ZM28.3516 34.7773V34.9004C28.3516 35.2168 28.3828 35.5137 28.4453 35.791C28.5117 36.0684 28.6113 36.3125 28.7441 36.5234C28.8809 36.7344 29.0547 36.9004 29.2656 37.0215C29.4766 37.1387 29.7285 37.1973 30.0215 37.1973C30.3809 37.1973 30.6777 37.1211 30.9121 36.9688C31.1465 36.8164 31.332 36.6152 31.4688 36.3652C31.6094 36.1152 31.7188 35.8438 31.7969 35.5508V34.1387C31.7539 33.9238 31.6875 33.7168 31.5977 33.5176C31.5117 33.3145 31.3984 33.1348 31.2578 32.9785C31.1211 32.8184 30.9512 32.6914 30.748 32.5977C30.5449 32.5039 30.3066 32.457 30.0332 32.457C29.7363 32.457 29.4805 32.5195 29.2656 32.6445C29.0547 32.7656 28.8809 32.9336 28.7441 33.1484C28.6113 33.3594 28.5117 33.6055 28.4453 33.8867C28.3828 34.1641 28.3516 34.4609 28.3516 34.7773ZM36.8945 38.1172C36.4531 38.1172 36.0527 38.043 35.6934 37.8945C35.3379 37.7422 35.0312 37.5293 34.7734 37.2559C34.5195 36.9824 34.3242 36.6582 34.1875 36.2832C34.0508 35.9082 33.9824 35.498 33.9824 35.0527V34.8066C33.9824 34.291 34.0586 33.832 34.2109 33.4297C34.3633 33.0234 34.5703 32.6797 34.832 32.3984C35.0938 32.1172 35.3906 31.9043 35.7227 31.7598C36.0547 31.6152 36.3984 31.543 36.7539 31.543C37.207 31.543 37.5977 31.6211 37.9258 31.7773C38.2578 31.9336 38.5293 32.1523 38.7402 32.4336C38.9512 32.7109 39.1074 33.0391 39.209 33.418C39.3105 33.793 39.3613 34.2031 39.3613 34.6484V35.1348H34.627V34.25H38.2773V34.168C38.2617 33.8867 38.2031 33.6133 38.1016 33.3477C38.0039 33.082 37.8477 32.8633 37.6328 32.6914C37.418 32.5195 37.125 32.4336 36.7539 32.4336C36.5078 32.4336 36.2812 32.4863 36.0742 32.5918C35.8672 32.6934 35.6895 32.8457 35.541 33.0488C35.3926 33.252 35.2773 33.5 35.1953 33.793C35.1133 34.0859 35.0723 34.4238 35.0723 34.8066V35.0527C35.0723 35.3535 35.1133 35.6367 35.1953 35.9023C35.2812 36.1641 35.4043 36.3945 35.5645 36.5938C35.7285 36.793 35.9258 36.9492 36.1562 37.0625C36.3906 37.1758 36.6562 37.2324 36.9531 37.2324C37.3359 37.2324 37.6602 37.1543 37.9258 36.998C38.1914 36.8418 38.4238 36.6328 38.623 36.3711L39.2793 36.8926C39.1426 37.0996 38.9688 37.2969 38.7578 37.4844C38.5469 37.6719 38.2871 37.8242 37.9785 37.9414C37.6738 38.0586 37.3125 38.1172 36.8945 38.1172ZM44.3184 36.3184C44.3184 36.1621 44.2832 36.0176 44.2129 35.8848C44.1465 35.748 44.0078 35.625 43.7969 35.5156C43.5898 35.4023 43.2773 35.3047 42.8594 35.2227C42.5078 35.1484 42.1895 35.0605 41.9043 34.959C41.623 34.8574 41.3828 34.7344 41.1836 34.5898C40.9883 34.4453 40.8379 34.2754 40.7324 34.0801C40.627 33.8848 40.5742 33.6562 40.5742 33.3945C40.5742 33.1445 40.6289 32.9082 40.7383 32.6855C40.8516 32.4629 41.0098 32.2656 41.2129 32.0938C41.4199 31.9219 41.668 31.7871 41.957 31.6895C42.2461 31.5918 42.5684 31.543 42.9238 31.543C43.4316 31.543 43.8652 31.6328 44.2246 31.8125C44.584 31.9922 44.8594 32.2324 45.0508 32.5332C45.2422 32.8301 45.3379 33.1602 45.3379 33.5234H44.2539C44.2539 33.3477 44.2012 33.1777 44.0957 33.0137C43.9941 32.8457 43.8438 32.707 43.6445 32.5977C43.4492 32.4883 43.209 32.4336 42.9238 32.4336C42.623 32.4336 42.3789 32.4805 42.1914 32.5742C42.0078 32.6641 41.873 32.7793 41.7871 32.9199C41.7051 33.0605 41.6641 33.209 41.6641 33.3652C41.6641 33.4824 41.6836 33.5879 41.7227 33.6816C41.7656 33.7715 41.8398 33.8555 41.9453 33.9336C42.0508 34.0078 42.1992 34.0781 42.3906 34.1445C42.582 34.2109 42.8262 34.2773 43.123 34.3438C43.6426 34.4609 44.0703 34.6016 44.4062 34.7656C44.7422 34.9297 44.9922 35.1309 45.1562 35.3691C45.3203 35.6074 45.4023 35.8965 45.4023 36.2363C45.4023 36.5137 45.3438 36.7676 45.2266 36.998C45.1133 37.2285 44.9473 37.4277 44.7285 37.5957C44.5137 37.7598 44.2559 37.8887 43.9551 37.9824C43.6582 38.0723 43.3242 38.1172 42.9531 38.1172C42.3945 38.1172 41.9219 38.0176 41.5352 37.8184C41.1484 37.6191 40.8555 37.3613 40.6562 37.0449C40.457 36.7285 40.3574 36.3945 40.3574 36.043H41.4473C41.4629 36.3398 41.5488 36.5762 41.7051 36.752C41.8613 36.9238 42.0527 37.0469 42.2793 37.1211C42.5059 37.1914 42.7305 37.2266 42.9531 37.2266C43.25 37.2266 43.498 37.1875 43.6973 37.1094C43.9004 37.0312 44.0547 36.9238 44.1602 36.7871C44.2656 36.6504 44.3184 36.4941 44.3184 36.3184Z" fill="#9C9D9E"/>
<path d="M19.6895 54.2012H20.4629C20.8418 54.2012 21.1543 54.1387 21.4004 54.0137C21.6504 53.8848 21.8359 53.7109 21.957 53.4922C22.082 53.2695 22.1445 53.0195 22.1445 52.7422C22.1445 52.4141 22.0898 52.1387 21.9805 51.916C21.8711 51.6934 21.707 51.5254 21.4883 51.4121C21.2695 51.2988 20.9922 51.2422 20.6562 51.2422C20.3516 51.2422 20.082 51.3027 19.8477 51.4238C19.6172 51.541 19.4355 51.709 19.3027 51.9277C19.1738 52.1465 19.1094 52.4043 19.1094 52.7012H18.0254C18.0254 52.2676 18.1348 51.873 18.3535 51.5176C18.5723 51.1621 18.8789 50.8789 19.2734 50.668C19.6719 50.457 20.1328 50.3516 20.6562 50.3516C21.1719 50.3516 21.623 50.4434 22.0098 50.627C22.3965 50.8066 22.6973 51.0762 22.9121 51.4355C23.127 51.791 23.2344 52.2344 23.2344 52.7656C23.2344 52.9805 23.1836 53.2109 23.082 53.457C22.9844 53.6992 22.8301 53.9258 22.6191 54.1367C22.4121 54.3477 22.1426 54.5215 21.8105 54.6582C21.4785 54.791 21.0801 54.8574 20.6152 54.8574H19.6895V54.2012ZM19.6895 55.0918V54.4414H20.6152C21.1582 54.4414 21.6074 54.5059 21.9629 54.6348C22.3184 54.7637 22.5977 54.9355 22.8008 55.1504C23.0078 55.3652 23.1523 55.6016 23.2344 55.8594C23.3203 56.1133 23.3633 56.3672 23.3633 56.6211C23.3633 57.0195 23.2949 57.373 23.1582 57.6816C23.0254 57.9902 22.8359 58.252 22.5898 58.4668C22.3477 58.6816 22.0625 58.8438 21.7344 58.9531C21.4062 59.0625 21.0488 59.1172 20.6621 59.1172C20.291 59.1172 19.9414 59.0645 19.6133 58.959C19.2891 58.8535 19.002 58.7012 18.752 58.502C18.502 58.2988 18.3066 58.0508 18.166 57.7578C18.0254 57.4609 17.9551 57.123 17.9551 56.7441H19.0391C19.0391 57.041 19.1035 57.3008 19.2324 57.5234C19.3652 57.7461 19.5527 57.9199 19.7949 58.0449C20.041 58.166 20.3301 58.2266 20.6621 58.2266C20.9941 58.2266 21.2793 58.1699 21.5176 58.0566C21.7598 57.9395 21.9453 57.7637 22.0742 57.5293C22.207 57.2949 22.2734 57 22.2734 56.6445C22.2734 56.2891 22.1992 55.998 22.0508 55.7715C21.9023 55.541 21.6914 55.3711 21.418 55.2617C21.1484 55.1484 20.8301 55.0918 20.4629 55.0918H19.6895ZM27.2305 54.9277V55.8184H24.3711V54.9277H27.2305ZM29.3691 53.9199V59H28.2793V52.6602H29.3105L29.3691 53.9199ZM29.1465 55.5898L28.6426 55.5723C28.6465 55.1387 28.7031 54.7383 28.8125 54.3711C28.9219 54 29.084 53.6777 29.2988 53.4043C29.5137 53.1309 29.7812 52.9199 30.1016 52.7715C30.4219 52.6191 30.793 52.543 31.2148 52.543C31.5117 52.543 31.7852 52.5859 32.0352 52.6719C32.2852 52.7539 32.502 52.8848 32.6855 53.0645C32.8691 53.2441 33.0117 53.4746 33.1133 53.7559C33.2148 54.0371 33.2656 54.377 33.2656 54.7754V59H32.1816V54.8281C32.1816 54.4961 32.125 54.2305 32.0117 54.0312C31.9023 53.832 31.7461 53.6875 31.543 53.5977C31.3398 53.5039 31.1016 53.457 30.8281 53.457C30.5078 53.457 30.2402 53.5137 30.0254 53.627C29.8105 53.7402 29.6387 53.8965 29.5098 54.0957C29.3809 54.2949 29.2871 54.5234 29.2285 54.7812C29.1738 55.0352 29.1465 55.3047 29.1465 55.5898ZM33.2539 54.9922L32.5273 55.2148C32.5312 54.8672 32.5879 54.5332 32.6973 54.2129C32.8105 53.8926 32.9727 53.6074 33.1836 53.3574C33.3984 53.1074 33.6621 52.9102 33.9746 52.7656C34.2871 52.6172 34.6445 52.543 35.0469 52.543C35.3867 52.543 35.6875 52.5879 35.9492 52.6777C36.2148 52.7676 36.4375 52.9062 36.6172 53.0938C36.8008 53.2773 36.9395 53.5137 37.0332 53.8027C37.127 54.0918 37.1738 54.4355 37.1738 54.834V59H36.084V54.8223C36.084 54.4668 36.0273 54.1914 35.9141 53.9961C35.8047 53.7969 35.6484 53.6582 35.4453 53.5801C35.2461 53.498 35.0078 53.457 34.7305 53.457C34.4922 53.457 34.2812 53.498 34.0977 53.5801C33.9141 53.6621 33.7598 53.7754 33.6348 53.9199C33.5098 54.0605 33.4141 54.2227 33.3477 54.4062C33.2852 54.5898 33.2539 54.7852 33.2539 54.9922ZM38.5273 55.9004V55.7656C38.5273 55.3086 38.5938 54.8848 38.7266 54.4941C38.8594 54.0996 39.0508 53.7578 39.3008 53.4688C39.5508 53.1758 39.8535 52.9492 40.209 52.7891C40.5645 52.625 40.9629 52.543 41.4043 52.543C41.8496 52.543 42.25 52.625 42.6055 52.7891C42.9648 52.9492 43.2695 53.1758 43.5195 53.4688C43.7734 53.7578 43.9668 54.0996 44.0996 54.4941C44.2324 54.8848 44.2988 55.3086 44.2988 55.7656V55.9004C44.2988 56.3574 44.2324 56.7812 44.0996 57.1719C43.9668 57.5625 43.7734 57.9043 43.5195 58.1973C43.2695 58.4863 42.9668 58.7129 42.6113 58.877C42.2598 59.0371 41.8613 59.1172 41.416 59.1172C40.9707 59.1172 40.5703 59.0371 40.2148 58.877C39.8594 58.7129 39.5547 58.4863 39.3008 58.1973C39.0508 57.9043 38.8594 57.5625 38.7266 57.1719C38.5938 56.7812 38.5273 56.3574 38.5273 55.9004ZM39.6113 55.7656V55.9004C39.6113 56.2168 39.6484 56.5156 39.7227 56.7969C39.7969 57.0742 39.9082 57.3203 40.0566 57.5352C40.209 57.75 40.3984 57.9199 40.625 58.0449C40.8516 58.166 41.1152 58.2266 41.416 58.2266C41.7129 58.2266 41.9727 58.166 42.1953 58.0449C42.4219 57.9199 42.6094 57.75 42.7578 57.5352C42.9062 57.3203 43.0176 57.0742 43.0918 56.7969C43.1699 56.5156 43.209 56.2168 43.209 55.9004V55.7656C43.209 55.4531 43.1699 55.1582 43.0918 54.8809C43.0176 54.5996 42.9043 54.3516 42.752 54.1367C42.6035 53.918 42.416 53.7461 42.1895 53.6211C41.9668 53.4961 41.7051 53.4336 41.4043 53.4336C41.1074 53.4336 40.8457 53.4961 40.6191 53.6211C40.3965 53.7461 40.209 53.918 40.0566 54.1367C39.9082 54.3516 39.7969 54.5996 39.7227 54.8809C39.6484 55.1582 39.6113 55.4531 39.6113 55.7656ZM46.7422 54.0137V59H45.6582V52.6602H46.6836L46.7422 54.0137ZM46.4844 55.5898L46.0332 55.5723C46.0371 55.1387 46.1016 54.7383 46.2266 54.3711C46.3516 54 46.5273 53.6777 46.7539 53.4043C46.9805 53.1309 47.25 52.9199 47.5625 52.7715C47.8789 52.6191 48.2285 52.543 48.6113 52.543C48.9238 52.543 49.2051 52.5859 49.4551 52.6719C49.7051 52.7539 49.918 52.8867 50.0938 53.0703C50.2734 53.2539 50.4102 53.4922 50.5039 53.7852C50.5977 54.0742 50.6445 54.4277 50.6445 54.8457V59H49.5547V54.834C49.5547 54.502 49.5059 54.2363 49.4082 54.0371C49.3105 53.834 49.168 53.6875 48.9805 53.5977C48.793 53.5039 48.5625 53.457 48.2891 53.457C48.0195 53.457 47.7734 53.5137 47.5508 53.627C47.332 53.7402 47.1426 53.8965 46.9824 54.0957C46.8262 54.2949 46.7031 54.5234 46.6133 54.7812C46.5273 55.0352 46.4844 55.3047 46.4844 55.5898ZM54.9453 52.6602V53.4922H51.5176V52.6602H54.9453ZM52.6777 51.1191H53.7617V57.4297C53.7617 57.6445 53.7949 57.8066 53.8613 57.916C53.9277 58.0254 54.0137 58.0977 54.1191 58.1328C54.2246 58.168 54.3379 58.1855 54.459 58.1855C54.5488 58.1855 54.6426 58.1777 54.7402 58.1621C54.8418 58.1426 54.918 58.127 54.9688 58.1152L54.9746 59C54.8887 59.0273 54.7754 59.0527 54.6348 59.0762C54.498 59.1035 54.332 59.1172 54.1367 59.1172C53.8711 59.1172 53.627 59.0645 53.4043 58.959C53.1816 58.8535 53.0039 58.6777 52.8711 58.4316C52.7422 58.1816 52.6777 57.8457 52.6777 57.4238V51.1191ZM57.3008 50V59H56.2168V50H57.3008ZM57.043 55.5898L56.5918 55.5723C56.5957 55.1387 56.6602 54.7383 56.7852 54.3711C56.9102 54 57.0859 53.6777 57.3125 53.4043C57.5391 53.1309 57.8086 52.9199 58.1211 52.7715C58.4375 52.6191 58.7871 52.543 59.1699 52.543C59.4824 52.543 59.7637 52.5859 60.0137 52.6719C60.2637 52.7539 60.4766 52.8867 60.6523 53.0703C60.832 53.2539 60.9688 53.4922 61.0625 53.7852C61.1562 54.0742 61.2031 54.4277 61.2031 54.8457V59H60.1133V54.834C60.1133 54.502 60.0645 54.2363 59.9668 54.0371C59.8691 53.834 59.7266 53.6875 59.5391 53.5977C59.3516 53.5039 59.1211 53.457 58.8477 53.457C58.5781 53.457 58.332 53.5137 58.1094 53.627C57.8906 53.7402 57.7012 53.8965 57.541 54.0957C57.3848 54.2949 57.2617 54.5234 57.1719 54.7812C57.0859 55.0352 57.043 55.3047 57.043 55.5898ZM4.34375 67.8789V75.4375H3.25391V66.6602H4.25L4.34375 67.8789ZM8.61523 69.7773V69.9004C8.61523 70.3613 8.56055 70.7891 8.45117 71.1836C8.3418 71.5742 8.18164 71.9141 7.9707 72.2031C7.76367 72.4922 7.50781 72.7168 7.20312 72.877C6.89844 73.0371 6.54883 73.1172 6.1543 73.1172C5.75195 73.1172 5.39648 73.0508 5.08789 72.918C4.7793 72.7852 4.51758 72.5918 4.30273 72.3379C4.08789 72.084 3.91602 71.7793 3.78711 71.4238C3.66211 71.0684 3.57617 70.668 3.5293 70.2227V69.5664C3.57617 69.0977 3.66406 68.6777 3.79297 68.3066C3.92188 67.9355 4.0918 67.6191 4.30273 67.3574C4.51758 67.0918 4.77734 66.8906 5.08203 66.7539C5.38672 66.6133 5.73828 66.543 6.13672 66.543C6.53516 66.543 6.88867 66.6211 7.19727 66.7773C7.50586 66.9297 7.76562 67.1484 7.97656 67.4336C8.1875 67.7188 8.3457 68.0605 8.45117 68.459C8.56055 68.8535 8.61523 69.293 8.61523 69.7773ZM7.52539 69.9004V69.7773C7.52539 69.4609 7.49219 69.1641 7.42578 68.8867C7.35938 68.6055 7.25586 68.3594 7.11523 68.1484C6.97852 67.9336 6.80273 67.7656 6.58789 67.6445C6.37305 67.5195 6.11719 67.457 5.82031 67.457C5.54688 67.457 5.30859 67.5039 5.10547 67.5977C4.90625 67.6914 4.73633 67.8184 4.5957 67.9785C4.45508 68.1348 4.33984 68.3145 4.25 68.5176C4.16406 68.7168 4.09961 68.9238 4.05664 69.1387V70.6562C4.13477 70.9297 4.24414 71.1875 4.38477 71.4297C4.52539 71.668 4.71289 71.8613 4.94727 72.0098C5.18164 72.1543 5.47656 72.2266 5.83203 72.2266C6.125 72.2266 6.37695 72.166 6.58789 72.0449C6.80273 71.9199 6.97852 71.75 7.11523 71.5352C7.25586 71.3203 7.35938 71.0742 7.42578 70.7969C7.49219 70.5156 7.52539 70.2168 7.52539 69.9004ZM11.082 67.6562V73H9.99805V66.6602H11.0527L11.082 67.6562ZM13.0625 66.625L13.0566 67.6328C12.9668 67.6133 12.8809 67.6016 12.7988 67.5977C12.7207 67.5898 12.6309 67.5859 12.5293 67.5859C12.2793 67.5859 12.0586 67.625 11.8672 67.7031C11.6758 67.7812 11.5137 67.8906 11.3809 68.0312C11.248 68.1719 11.1426 68.3398 11.0645 68.5352C10.9902 68.7266 10.9414 68.9375 10.918 69.168L10.6133 69.3438C10.6133 68.9609 10.6504 68.6016 10.7246 68.2656C10.8027 67.9297 10.9219 67.6328 11.082 67.375C11.2422 67.1133 11.4453 66.9102 11.6914 66.7656C11.9414 66.6172 12.2383 66.543 12.582 66.543C12.6602 66.543 12.75 66.5527 12.8516 66.5723C12.9531 66.5879 13.0234 66.6055 13.0625 66.625ZM13.6602 69.9004V69.7656C13.6602 69.3086 13.7266 68.8848 13.8594 68.4941C13.9922 68.0996 14.1836 67.7578 14.4336 67.4688C14.6836 67.1758 14.9863 66.9492 15.3418 66.7891C15.6973 66.625 16.0957 66.543 16.5371 66.543C16.9824 66.543 17.3828 66.625 17.7383 66.7891C18.0977 66.9492 18.4023 67.1758 18.6523 67.4688C18.9062 67.7578 19.0996 68.0996 19.2324 68.4941C19.3652 68.8848 19.4316 69.3086 19.4316 69.7656V69.9004C19.4316 70.3574 19.3652 70.7812 19.2324 71.1719C19.0996 71.5625 18.9062 71.9043 18.6523 72.1973C18.4023 72.4863 18.0996 72.7129 17.7441 72.877C17.3926 73.0371 16.9941 73.1172 16.5488 73.1172C16.1035 73.1172 15.7031 73.0371 15.3477 72.877C14.9922 72.7129 14.6875 72.4863 14.4336 72.1973C14.1836 71.9043 13.9922 71.5625 13.8594 71.1719C13.7266 70.7812 13.6602 70.3574 13.6602 69.9004ZM14.7441 69.7656V69.9004C14.7441 70.2168 14.7812 70.5156 14.8555 70.7969C14.9297 71.0742 15.041 71.3203 15.1895 71.5352C15.3418 71.75 15.5312 71.9199 15.7578 72.0449C15.9844 72.166 16.248 72.2266 16.5488 72.2266C16.8457 72.2266 17.1055 72.166 17.3281 72.0449C17.5547 71.9199 17.7422 71.75 17.8906 71.5352C18.0391 71.3203 18.1504 71.0742 18.2246 70.7969C18.3027 70.5156 18.3418 70.2168 18.3418 69.9004V69.7656C18.3418 69.4531 18.3027 69.1582 18.2246 68.8809C18.1504 68.5996 18.0371 68.3516 17.8848 68.1367C17.7363 67.918 17.5488 67.7461 17.3223 67.6211C17.0996 67.4961 16.8379 67.4336 16.5371 67.4336C16.2402 67.4336 15.9785 67.4961 15.752 67.6211C15.5293 67.7461 15.3418 67.918 15.1895 68.1367C15.041 68.3516 14.9297 68.5996 14.8555 68.8809C14.7812 69.1582 14.7441 69.4531 14.7441 69.7656ZM20.8203 66.6602H21.9102V73.7559C21.9102 74.1426 21.8477 74.4707 21.7227 74.7402C21.6016 75.0098 21.418 75.2129 21.1719 75.3496C20.9297 75.4902 20.623 75.5605 20.252 75.5605C20.1543 75.5605 20.041 75.5508 19.9121 75.5312C19.7793 75.5117 19.668 75.4883 19.5781 75.4609L19.584 74.5879C19.6582 74.6035 19.7422 74.6152 19.8359 74.623C19.9297 74.6348 20.0117 74.6406 20.082 74.6406C20.2422 74.6406 20.377 74.6113 20.4863 74.5527C20.5957 74.4941 20.6777 74.4004 20.7324 74.2715C20.791 74.1426 20.8203 73.9707 20.8203 73.7559V66.6602ZM20.709 64.9785C20.709 64.8027 20.7637 64.6543 20.873 64.5332C20.9824 64.4121 21.1406 64.3516 21.3477 64.3516C21.5586 64.3516 21.7188 64.4121 21.8281 64.5332C21.9375 64.6543 21.9922 64.8027 21.9922 64.9785C21.9922 65.1465 21.9375 65.291 21.8281 65.4121C21.7188 65.5293 21.5586 65.5879 21.3477 65.5879C21.1406 65.5879 20.9824 65.5293 20.873 65.4121C20.7637 65.291 20.709 65.1465 20.709 64.9785ZM26.293 73.1172C25.8516 73.1172 25.4512 73.043 25.0918 72.8945C24.7363 72.7422 24.4297 72.5293 24.1719 72.2559C23.918 71.9824 23.7227 71.6582 23.5859 71.2832C23.4492 70.9082 23.3809 70.498 23.3809 70.0527V69.8066C23.3809 69.291 23.457 68.832 23.6094 68.4297C23.7617 68.0234 23.9688 67.6797 24.2305 67.3984C24.4922 67.1172 24.7891 66.9043 25.1211 66.7598C25.4531 66.6152 25.7969 66.543 26.1523 66.543C26.6055 66.543 26.9961 66.6211 27.3242 66.7773C27.6562 66.9336 27.9277 67.1523 28.1387 67.4336C28.3496 67.7109 28.5059 68.0391 28.6074 68.418C28.709 68.793 28.7598 69.2031 28.7598 69.6484V70.1348H24.0254V69.25H27.6758V69.168C27.6602 68.8867 27.6016 68.6133 27.5 68.3477C27.4023 68.082 27.2461 67.8633 27.0312 67.6914C26.8164 67.5195 26.5234 67.4336 26.1523 67.4336C25.9062 67.4336 25.6797 67.4863 25.4727 67.5918C25.2656 67.6934 25.0879 67.8457 24.9395 68.0488C24.791 68.252 24.6758 68.5 24.5938 68.793C24.5117 69.0859 24.4707 69.4238 24.4707 69.8066V70.0527C24.4707 70.3535 24.5117 70.6367 24.5938 70.9023C24.6797 71.1641 24.8027 71.3945 24.9629 71.5938C25.127 71.793 25.3242 71.9492 25.5547 72.0625C25.7891 72.1758 26.0547 72.2324 26.3516 72.2324C26.7344 72.2324 27.0586 72.1543 27.3242 71.998C27.5898 71.8418 27.8223 71.6328 28.0215 71.3711L28.6777 71.8926C28.541 72.0996 28.3672 72.2969 28.1562 72.4844C27.9453 72.6719 27.6855 72.8242 27.377 72.9414C27.0723 73.0586 26.7109 73.1172 26.293 73.1172ZM32.5625 72.2266C32.8203 72.2266 33.0586 72.1738 33.2773 72.0684C33.4961 71.9629 33.6758 71.8184 33.8164 71.6348C33.957 71.4473 34.0371 71.2344 34.0566 70.9961H35.0879C35.0684 71.3711 34.9414 71.7207 34.707 72.0449C34.4766 72.3652 34.1738 72.625 33.7988 72.8242C33.4238 73.0195 33.0117 73.1172 32.5625 73.1172C32.0859 73.1172 31.6699 73.0332 31.3145 72.8652C30.9629 72.6973 30.6699 72.4668 30.4355 72.1738C30.2051 71.8809 30.0312 71.5449 29.9141 71.166C29.8008 70.7832 29.7441 70.3789 29.7441 69.9531V69.707C29.7441 69.2812 29.8008 68.8789 29.9141 68.5C30.0312 68.1172 30.2051 67.7793 30.4355 67.4863C30.6699 67.1934 30.9629 66.9629 31.3145 66.7949C31.6699 66.627 32.0859 66.543 32.5625 66.543C33.0586 66.543 33.4922 66.6445 33.8633 66.8477C34.2344 67.0469 34.5254 67.3203 34.7363 67.668C34.9512 68.0117 35.0684 68.4023 35.0879 68.8398H34.0566C34.0371 68.5781 33.9629 68.3418 33.834 68.1309C33.709 67.9199 33.5371 67.752 33.3184 67.627C33.1035 67.498 32.8516 67.4336 32.5625 67.4336C32.2305 67.4336 31.9512 67.5 31.7246 67.6328C31.502 67.7617 31.3242 67.9375 31.1914 68.1602C31.0625 68.3789 30.9688 68.623 30.9102 68.8926C30.8555 69.1582 30.8281 69.4297 30.8281 69.707V69.9531C30.8281 70.2305 30.8555 70.5039 30.9102 70.7734C30.9648 71.043 31.0566 71.2871 31.1855 71.5059C31.3184 71.7246 31.4961 71.9004 31.7188 72.0332C31.9453 72.1621 32.2266 72.2266 32.5625 72.2266ZM38.9609 66.6602V67.4922H35.5332V66.6602H38.9609ZM36.6934 65.1191H37.7773V71.4297C37.7773 71.6445 37.8105 71.8066 37.877 71.916C37.9434 72.0254 38.0293 72.0977 38.1348 72.1328C38.2402 72.168 38.3535 72.1855 38.4746 72.1855C38.5645 72.1855 38.6582 72.1777 38.7559 72.1621C38.8574 72.1426 38.9336 72.127 38.9844 72.1152L38.9902 73C38.9043 73.0273 38.791 73.0527 38.6504 73.0762C38.5137 73.1035 38.3477 73.1172 38.1523 73.1172C37.8867 73.1172 37.6426 73.0645 37.4199 72.959C37.1973 72.8535 37.0195 72.6777 36.8867 72.4316C36.7578 72.1816 36.6934 71.8457 36.6934 71.4238V65.1191ZM41.4102 66.6602V73H40.3203V66.6602H41.4102ZM40.2383 64.9785C40.2383 64.8027 40.291 64.6543 40.3965 64.5332C40.5059 64.4121 40.666 64.3516 40.877 64.3516C41.084 64.3516 41.2422 64.4121 41.3516 64.5332C41.4648 64.6543 41.5215 64.8027 41.5215 64.9785C41.5215 65.1465 41.4648 65.291 41.3516 65.4121C41.2422 65.5293 41.084 65.5879 40.877 65.5879C40.666 65.5879 40.5059 65.5293 40.3965 65.4121C40.291 65.291 40.2383 65.1465 40.2383 64.9785ZM42.8633 69.9004V69.7656C42.8633 69.3086 42.9297 68.8848 43.0625 68.4941C43.1953 68.0996 43.3867 67.7578 43.6367 67.4688C43.8867 67.1758 44.1895 66.9492 44.5449 66.7891C44.9004 66.625 45.2988 66.543 45.7402 66.543C46.1855 66.543 46.5859 66.625 46.9414 66.7891C47.3008 66.9492 47.6055 67.1758 47.8555 67.4688C48.1094 67.7578 48.3027 68.0996 48.4355 68.4941C48.5684 68.8848 48.6348 69.3086 48.6348 69.7656V69.9004C48.6348 70.3574 48.5684 70.7812 48.4355 71.1719C48.3027 71.5625 48.1094 71.9043 47.8555 72.1973C47.6055 72.4863 47.3027 72.7129 46.9473 72.877C46.5957 73.0371 46.1973 73.1172 45.752 73.1172C45.3066 73.1172 44.9062 73.0371 44.5508 72.877C44.1953 72.7129 43.8906 72.4863 43.6367 72.1973C43.3867 71.9043 43.1953 71.5625 43.0625 71.1719C42.9297 70.7812 42.8633 70.3574 42.8633 69.9004ZM43.9473 69.7656V69.9004C43.9473 70.2168 43.9844 70.5156 44.0586 70.7969C44.1328 71.0742 44.2441 71.3203 44.3926 71.5352C44.5449 71.75 44.7344 71.9199 44.9609 72.0449C45.1875 72.166 45.4512 72.2266 45.752 72.2266C46.0488 72.2266 46.3086 72.166 46.5312 72.0449C46.7578 71.9199 46.9453 71.75 47.0938 71.5352C47.2422 71.3203 47.3535 71.0742 47.4277 70.7969C47.5059 70.5156 47.5449 70.2168 47.5449 69.9004V69.7656C47.5449 69.4531 47.5059 69.1582 47.4277 68.8809C47.3535 68.5996 47.2402 68.3516 47.0879 68.1367C46.9395 67.918 46.752 67.7461 46.5254 67.6211C46.3027 67.4961 46.041 67.4336 45.7402 67.4336C45.4434 67.4336 45.1816 67.4961 44.9551 67.6211C44.7324 67.7461 44.5449 67.918 44.3926 68.1367C44.2441 68.3516 44.1328 68.5996 44.0586 68.8809C43.9844 69.1582 43.9473 69.4531 43.9473 69.7656ZM51.0781 68.0137V73H49.9941V66.6602H51.0195L51.0781 68.0137ZM50.8203 69.5898L50.3691 69.5723C50.373 69.1387 50.4375 68.7383 50.5625 68.3711C50.6875 68 50.8633 67.6777 51.0898 67.4043C51.3164 67.1309 51.5859 66.9199 51.8984 66.7715C52.2148 66.6191 52.5645 66.543 52.9473 66.543C53.2598 66.543 53.541 66.5859 53.791 66.6719C54.041 66.7539 54.2539 66.8867 54.4297 67.0703C54.6094 67.2539 54.7461 67.4922 54.8398 67.7852C54.9336 68.0742 54.9805 68.4277 54.9805 68.8457V73H53.8906V68.834C53.8906 68.502 53.8418 68.2363 53.7441 68.0371C53.6465 67.834 53.5039 67.6875 53.3164 67.5977C53.1289 67.5039 52.8984 67.457 52.625 67.457C52.3555 67.457 52.1094 67.5137 51.8867 67.627C51.668 67.7402 51.4785 67.8965 51.3184 68.0957C51.1621 68.2949 51.0391 68.5234 50.9492 68.7812C50.8633 69.0352 50.8203 69.3047 50.8203 69.5898ZM60.3184 71.3184C60.3184 71.1621 60.2832 71.0176 60.2129 70.8848C60.1465 70.748 60.0078 70.625 59.7969 70.5156C59.5898 70.4023 59.2773 70.3047 58.8594 70.2227C58.5078 70.1484 58.1895 70.0605 57.9043 69.959C57.623 69.8574 57.3828 69.7344 57.1836 69.5898C56.9883 69.4453 56.8379 69.2754 56.7324 69.0801C56.627 68.8848 56.5742 68.6562 56.5742 68.3945C56.5742 68.1445 56.6289 67.9082 56.7383 67.6855C56.8516 67.4629 57.0098 67.2656 57.2129 67.0938C57.4199 66.9219 57.668 66.7871 57.957 66.6895C58.2461 66.5918 58.5684 66.543 58.9238 66.543C59.4316 66.543 59.8652 66.6328 60.2246 66.8125C60.584 66.9922 60.8594 67.2324 61.0508 67.5332C61.2422 67.8301 61.3379 68.1602 61.3379 68.5234H60.2539C60.2539 68.3477 60.2012 68.1777 60.0957 68.0137C59.9941 67.8457 59.8438 67.707 59.6445 67.5977C59.4492 67.4883 59.209 67.4336 58.9238 67.4336C58.623 67.4336 58.3789 67.4805 58.1914 67.5742C58.0078 67.6641 57.873 67.7793 57.7871 67.9199C57.7051 68.0605 57.6641 68.209 57.6641 68.3652C57.6641 68.4824 57.6836 68.5879 57.7227 68.6816C57.7656 68.7715 57.8398 68.8555 57.9453 68.9336C58.0508 69.0078 58.1992 69.0781 58.3906 69.1445C58.582 69.2109 58.8262 69.2773 59.123 69.3438C59.6426 69.4609 60.0703 69.6016 60.4062 69.7656C60.7422 69.9297 60.9922 70.1309 61.1562 70.3691C61.3203 70.6074 61.4023 70.8965 61.4023 71.2363C61.4023 71.5137 61.3438 71.7676 61.2266 71.998C61.1133 72.2285 60.9473 72.4277 60.7285 72.5957C60.5137 72.7598 60.2559 72.8887 59.9551 72.9824C59.6582 73.0723 59.3242 73.1172 58.9531 73.1172C58.3945 73.1172 57.9219 73.0176 57.5352 72.8184C57.1484 72.6191 56.8555 72.3613 56.6562 72.0449C56.457 71.7285 56.3574 71.3945 56.3574 71.043H57.4473C57.4629 71.3398 57.5488 71.5762 57.7051 71.752C57.8613 71.9238 58.0527 72.0469 58.2793 72.1211C58.5059 72.1914 58.7305 72.2266 58.9531 72.2266C59.25 72.2266 59.498 72.1875 59.6973 72.1094C59.9004 72.0312 60.0547 71.9238 60.1602 71.7871C60.2656 71.6504 60.3184 71.4941 60.3184 71.3184Z" fill="black"/>
<path d="M61 10L56 7.11325V12.8868L61 10ZM49 10.5L56.5 10.5V9.5L49 9.5V10.5Z" fill="#9C9D9E"/>
<path d="M74 30L69.7873 33.9479L75.3127 35.6223L74 30ZM64.4785 63.145L73.1735 34.4516L72.2165 34.1616L63.5215 62.855L64.4785 63.145Z" fill="black"/>
<path d="M81.1006 20.851C82.7436 22.8227 79.2226 25.9419 78 27.5557V2C78.884 3.76797 83.7241 5.62008 83.7241 7.75982C83.7241 10.571 82.7797 11.3157 81.7101 13.7224C81.0539 15.1988 79.8765 19.3821 81.1006 20.851Z" fill="#020203"/>
<line x1="78.2241" y1="1.99778" x2="78.5" y2="63.9978" stroke="#9C9D9E"/>
<path d="M72.59 71.372V72.394H73.738C75.11 72.394 75.838 73.052 75.838 74.2V74.312C75.838 75.46 75.11 76.118 73.738 76.118C72.548 76.118 71.974 75.6 71.47 74.83L70.588 75.502C71.19 76.342 72.058 77.168 73.752 77.168C75.74 77.168 77.07 76.006 77.07 74.326C77.07 72.856 76.062 72.072 75.012 71.862V71.806C76.048 71.54 76.888 70.784 76.888 69.524C76.888 67.942 75.572 67.06 73.92 67.06C72.352 67.06 71.498 67.872 71.008 68.656L71.876 69.328C72.282 68.586 72.884 68.11 73.892 68.11C74.928 68.11 75.642 68.628 75.642 69.65V69.748C75.642 70.686 74.97 71.372 73.654 71.372H72.59ZM80.8645 77V71.988C80.8645 71.064 81.7045 70.616 82.5865 70.616C83.6505 70.616 84.1405 71.274 84.1405 72.562V77H85.2605V71.988C85.2605 71.064 86.0725 70.616 86.9545 70.616C88.0465 70.616 88.5365 71.288 88.5365 72.562V77H89.6565V72.366C89.6565 70.616 88.7745 69.608 87.3045 69.608C86.0725 69.608 85.3725 70.294 85.1065 71.078H85.0785C84.6865 70.042 83.8185 69.608 82.8665 69.608C81.7465 69.608 81.2425 70.21 80.9205 70.952H80.8645V69.776H79.7445V77H80.8645Z" fill="#9C9D9E"/>
</svg>
